<?xml version="1.0" ?><!DOCTYPE svg  PUBLIC '-//W3C//DTD SVG 1.1//EN'  'http://www.w3.org/Graphics/SVG/1.1/DTD/svg11.dtd'><svg enable-background="new 0 0 128 128" id="Слой_1" version="1.1" viewBox="0 0 128 128" xml:space="preserve" xmlns="http://www.w3.org/2000/svg" xmlns:xlink="http://www.w3.org/1999/xlink"><circle cx="64" cy="64" fill="#E1E1E5" r="60"/><circle cx="64" cy="64" fill="#FFFFFF" r="45"/><g><g><g><path d="M106.4,21.6L95.9,32.1l0.1,0.2c8.1,8.1,13,19.3,13,31.7h15C124,47.4,117.3,32.4,106.4,21.6z" fill="#F09371"/><g><path d="M95.9,32.1l10.6-10.6C95.6,10.7,80.6,4,64,4v15c12.3,0,23.5,5,31.7,13L95.9,32.1z" fill="#F1C74A"/><g><path d="M64,4c-16.6,0-31.6,6.7-42.4,17.6l10.3,10.3l1.1-0.4C41,23.7,52,19,64,19V4z" fill="#F0EF98"/><path d="M31.9,31.9L21.6,21.6C10.7,32.4,4,47.4,4,64h15c0-12,4.7-23,12.4-31L31.9,31.9z" fill="#95D6DD"/></g></g></g><path d="M124,64h-15c0,12.4-5,23.7-13.2,31.8l10.6,10.6C117.3,95.6,124,80.6,124,64z" fill="#F37865"/><path d="M19,64H4c0,16.6,6.7,31.6,17.6,42.4l10.6-10.6C24,87.7,19,76.4,19,64z" fill="#CCE9E2"/></g></g><g><path d="M1.6,67.2c0,0.1,0,0.3,0,0.4c0.1,0.9,0.1,1.8,0.2,2.7c0,0,0,0.1,0,0.1c1.5,14.3,7.7,27.5,18,37.7   c0.1,0.1,0.2,0.2,0.3,0.2c11.3,11.2,26.8,18.1,43.9,18.1s32.6-6.9,43.9-18.1c0.1-0.1,0.2-0.1,0.3-0.2c10.3-10.3,16.5-23.5,18-37.7   c0,0,0-0.1,0-0.1c0.1-0.9,0.2-1.8,0.2-2.7c0-0.1,0-0.3,0-0.4c0.1-1.1,0.1-2.1,0.1-3.2c0-17.1-6.9-32.6-18.1-43.9   c-0.1-0.1-0.1-0.2-0.2-0.3c-0.1-0.1-0.2-0.2-0.3-0.2C96.6,8.4,81.1,1.5,64,1.5S31.4,8.4,20.1,19.6c-0.1,0.1-0.2,0.1-0.3,0.2   c-0.1,0.1-0.2,0.2-0.2,0.3C8.4,31.4,1.5,46.9,1.5,64C1.5,65.1,1.5,66.1,1.6,67.2z M21.6,25.2l7.1,7.1c-7.1,7.8-11.6,18-12.1,29.3   h-10C7.2,47.5,12.8,34.8,21.6,25.2z M121.4,61.5h-10c-0.6-11.2-5.1-21.4-12.1-29.3l7.1-7.1C115.2,34.8,120.8,47.5,121.4,61.5z    M121.4,67.6c0,0.7-0.1,1.5-0.2,2.2c0,0.2-0.1,0.4-0.1,0.6c-0.1,0.8-0.2,1.5-0.3,2.2c0,0.1,0,0.3-0.1,0.4c-0.1,0.8-0.3,1.7-0.4,2.5   c0,0.1,0,0.1,0,0.2c-2.1,10.3-7.1,19.7-13.9,27.2l-7.1-7.1c7.3-8.1,11.6-18.4,12.1-29.3h10c0,0.1,0,0.2,0,0.4   C121.4,67.1,121.4,67.3,121.4,67.6z M95.8,28.7c-7.8-7.1-18-11.6-29.3-12.1v-10c14,0.6,26.7,6.2,36.3,15.1L95.8,28.7z M61.5,16.6   c-11.2,0.6-21.4,5.1-29.3,12.1l-7.1-7.1c9.7-8.9,22.4-14.5,36.3-15.1V16.6z M21.6,102.8C14.8,95.3,9.8,86,7.7,75.7   c0-0.1,0-0.1,0-0.2c-0.2-0.8-0.3-1.6-0.4-2.5c0-0.1,0-0.3-0.1-0.4c-0.1-0.7-0.2-1.5-0.3-2.2c0-0.2-0.1-0.4-0.1-0.6   c-0.1-0.7-0.1-1.4-0.2-2.2c0-0.2,0-0.5,0-0.7c0-0.1,0-0.2,0-0.4h10c0.6,10.9,4.8,21.2,12.1,29.3L21.6,102.8z M25.2,106.4l8.8-8.8   c0.5-0.5,0.7-1.1,0.7-1.8s-0.3-1.3-0.7-1.8c-8-8-12.4-18.7-12.4-30.1c0-23.4,19.1-42.5,42.5-42.5s42.5,19.1,42.5,42.5   c0,11.4-4.4,22-12.4,30.1c-0.5,0.5-0.7,1.1-0.7,1.8s0.3,1.3,0.7,1.8l8.8,8.8C92.6,115.8,79,121.5,64,121.5S35.4,115.8,25.2,106.4z" fill="#62345B"/><path d="M86.6,37.9L70.9,53.6c-2-1.3-4.3-2.1-6.9-2.1c-6.9,0-12.5,5.6-12.5,12.5S57.1,76.5,64,76.5   S76.5,70.9,76.5,64c0-2.5-0.8-4.9-2.1-6.9l15.7-15.7c1-1,1-2.6,0-3.5C89.1,36.9,87.5,36.9,86.6,37.9z M64,71.5   c-4.1,0-7.5-3.4-7.5-7.5s3.4-7.5,7.5-7.5s7.5,3.4,7.5,7.5S68.1,71.5,64,71.5z" fill="#62345B"/><path d="M75.8,103.3H52.2c-1.4,0-2.5,1.1-2.5,2.5s1.1,2.5,2.5,2.5h23.6c1.4,0,2.5-1.1,2.5-2.5   S77.2,103.3,75.8,103.3z" fill="#62345B"/></g></svg>