<?xml version="1.0" ?><svg id="Слой_1" style="enable-background:new 0 0 128 128;" version="1.1" viewBox="0 0 128 128" xml:space="preserve" xmlns="http://www.w3.org/2000/svg" xmlns:xlink="http://www.w3.org/1999/xlink"><style type="text/css">
	.st0{fill:#89DB4A;}
	.st1{opacity:0.4;enable-background:new    ;}
	.st2{fill:#3AAA35;}
	.st3{opacity:0.4;fill:#3AAA35;enable-background:new    ;}
	.st4{fill:none;stroke:#008D36;stroke-width:4;stroke-linecap:round;stroke-miterlimit:10;}
	.st5{opacity:0.3;fill:none;stroke:#FFFFFF;stroke-width:4;stroke-linecap:round;stroke-miterlimit:10;enable-background:new    ;}
</style><path class="st0" d="M46,42l24-16v12l12-8c0,0,0,23.8,0,28c0,7.7-8.8,12-18,12s-18-4.4-18-12C46,53.8,46,42,46,42z" id="XMLID_2_"/><g class="st1"><path class="st2" d="M78,34l4-2.7c0-0.8,0-1.3,0-1.3l-4,2.7V34z"/><path class="st2" d="M72,66c-9.2,0-18-4.4-18-12c0-4.2,0-16,0-16l16-10.7V26L46,42c0,0,0,11.8,0,16c0,7.6,8.8,12,18,12   c5.7,0,11.3-1.7,14.7-4.8C76.6,65.7,74.3,66,72,66z"/></g><path class="st0" d="M102,106H26c0,0-1.3-28,37.8-28C101.6,78,102,106,102,106z" id="XMLID_1_"/><path class="st3" d="M68.1,78.1C66.7,78,65.3,78,63.8,78C24.7,78,26,106,26,106h9C35,106,33.8,80.3,68.1,78.1z"/><path class="st4" d="M102,106H26c0,0-1.3-28,37.8-28C101.6,78,102,106,102,106z" id="XMLID_594_"/><path class="st5" d="M78.2,88c7.2,2.3,11.2,6.3,13.3,10"/><path class="st4" d="M46,42l24-16v12l12-8c0,0,0,23.8,0,28c0,7.7-8.8,12-18,12s-18-4.4-18-12C46,53.8,46,42,46,42z" id="XMLID_593_"/></svg>