<?xml version="1.0" ?><!DOCTYPE svg  PUBLIC '-//W3C//DTD SVG 1.1//EN'  'http://www.w3.org/Graphics/SVG/1.1/DTD/svg11.dtd'><svg enable-background="new 0 0 64 64" id="Layer_1" version="1.1" viewBox="0 0 64 64" xml:space="preserve" xmlns="http://www.w3.org/2000/svg" xmlns:xlink="http://www.w3.org/1999/xlink"><g><path d="M55,41.6c0,1.9-1.5,3.4-3.3,3.4H44v8l-11.5-8H13c-2.2,0-4-1.8-4-4V15c0-2.2,1.8-4,4-4h38c2.2,0,4,1.8,4,4   V41.6z" fill="#FFD766"/></g><g><polygon fill="#F8B319" points="54,13.2 32.4,31.8 10.7,13 10.4,13 9,15.1 9.6,15.9 26.8,31.1 10.4,44.1 12,45 32.5,45 44,53    44,45 52,45 54,44 37.4,31.5 54.2,16.9  "/></g><g><polygon fill="#EEA220" points="44,45 32.5,45 44,53  "/></g><g><path d="M32,33c-0.2,0-0.5-0.1-0.7-0.2l-22-19c-0.4-0.4-0.5-1-0.1-1.4c0.4-0.4,1-0.5,1.4-0.1L32,30.7l21.3-18.4   c0.4-0.4,1-0.3,1.4,0.1c0.4,0.4,0.3,1-0.1,1.4l-22,19C32.5,32.9,32.3,33,32,33z" fill="#2C3E50"/></g><g><path d="M10.9,45c-0.3,0-0.6-0.1-0.8-0.4c-0.3-0.4-0.3-1.1,0.2-1.4l15.1-12c0.4-0.3,1.1-0.3,1.4,0.2   c0.3,0.4,0.3,1.1-0.2,1.4l-15.1,12C11.4,44.9,11.1,45,10.9,45z" fill="#2C3E50"/></g><g><path d="M54,45c-0.2,0-0.4-0.1-0.6-0.2l-16-12c-0.4-0.3-0.5-1-0.2-1.4c0.3-0.4,1-0.5,1.4-0.2l16,12   c0.4,0.3,0.5,1,0.2,1.4C54.6,44.9,54.3,45,54,45z" fill="#2C3E50"/></g><g><path d="M44,54c-0.2,0-0.4-0.1-0.6-0.2L32.2,46H13c-2.8,0-5-2.2-5-5V15c0-2.8,2.3-5,5-5h38c2.7,0,5,2.2,5,5v26.6   c0,2.4-1.9,4.4-4.3,4.4H45v7c0,0.4-0.2,0.7-0.5,0.9C44.3,54,44.2,54,44,54z M13,12c-1.7,0-3,1.3-3,3v26c0,1.7,1.4,3,3,3h19.5   c0.2,0,0.4,0.1,0.6,0.2l9.9,6.9V45c0-0.6,0.4-1,1-1h7.7c1.3,0,2.3-1,2.3-2.4V15c0-1.7-1.3-3-3-3H13z" fill="#2C3E50"/></g></svg>