<?xml version="1.0" ?><!DOCTYPE svg  PUBLIC '-//W3C//DTD SVG 1.1//EN'  'http://www.w3.org/Graphics/SVG/1.1/DTD/svg11.dtd'><svg height="6.82666in" style="shape-rendering:geometricPrecision; text-rendering:geometricPrecision; image-rendering:optimizeQuality; fill-rule:evenodd; clip-rule:evenodd" viewBox="0 0 6.82666 6.82666" width="6.82666in" xml:space="preserve" xmlns="http://www.w3.org/2000/svg" xmlns:xlink="http://www.w3.org/1999/xlink"><defs><style type="text/css">
   <![CDATA[
    .fil0 {fill:none}
    .fil3 {fill:#63CBE5}
    .fil4 {fill:#AED581}
    .fil5 {fill:#F45A52}
    .fil2 {fill:#FECA5F}
    .fil1 {fill:#333333;fill-rule:nonzero}
   ]]>
  </style></defs><g id="Layer_x0020_1"><g id="_388055912"><rect class="fil0" height="6.82666" id="_388055720" width="6.82666"/><rect class="fil0" height="5.12" id="_388055960" width="5.12" x="0.853331" y="0.853331"/></g><path class="fil1" d="M3.41333 0.746665c0.657413,0 1.25925,0.237921 1.72415,0.632339l-0.151402 0.151402c-0.425827,-0.356063 -0.974244,-0.570402 -1.57275,-0.570402 -0.67748,0 -1.29081,0.274594 -1.73477,0.718555 -0.443961,0.443957 -0.718555,1.05729 -0.718555,1.73477 0,0.67748 0.274594,1.29081 0.718555,1.73477 0.443957,0.443961 1.05729,0.718555 1.73477,0.718555 0.67748,0 1.29081,-0.274594 1.73477,-0.718555 0.443961,-0.443957 0.718555,-1.05729 0.718555,-1.73477 0,-0.291618 -0.0509213,-0.571331 -0.144283,-0.830787l0.194421 -0.0898031c0.105551,0.286941 0.163201,0.597031 0.163201,0.920591 0,0.736366 -0.29848,1.40303 -0.781059,1.88561 -0.482575,0.482579 -1.14924,0.781059 -1.88561,0.781059 -0.736366,0 -1.40303,-0.29848 -1.88561,-0.781059 -0.482579,-0.482575 -0.781059,-1.14924 -0.781059,-1.88561 0,-0.736366 0.29848,-1.40303 0.781059,-1.88561 0.482575,-0.482579 1.14924,-0.781059 1.88561,-0.781059z"/><path class="fil1" d="M3.41333 1.64672c0.41472,0 0.796059,0.142945 1.09747,0.382213l-0.140559 0.140559c-0.26485,-0.204055 -0.596705,-0.325425 -0.956913,-0.325425 -0.43335,0 -0.825669,0.175642 -1.10965,0.459614 -0.283972,0.283976 -0.459614,0.676295 -0.459614,1.10965 0,0.43335 0.175642,0.825669 0.459614,1.10965 0.283976,0.283972 0.676295,0.459614 1.10965,0.459614 0.43335,0 0.825669,-0.175642 1.10965,-0.459614 0.283972,-0.283976 0.459614,-0.676295 0.459614,-1.10965 0,-0.164917 -0.0254646,-0.323882 -0.0726299,-0.473205l0.180476 -0.0833622c0.0580472,0.174988 0.0895,0.362102 0.0895,0.556567 0,0.487823 -0.19774,0.929476 -0.517433,1.24917 -0.319697,0.319693 -0.76135,0.517433 -1.24917,0.517433 -0.487823,0 -0.929476,-0.19774 -1.24917,-0.517433 -0.319693,-0.319697 -0.517433,-0.76135 -0.517433,-1.24917 0,-0.487823 0.19774,-0.929476 0.517433,-1.24917 0.319697,-0.319693 0.76135,-0.517433 1.24917,-0.517433z"/><path class="fil1" d="M3.41333 2.77333c0.0965354,0 0.188087,0.0213819 0.270169,0.0596614l-0.166394 0.166394c-0.0332205,-0.00830315 -0.0679803,-0.0127165 -0.103776,-0.0127165 -0.117831,0 -0.224508,0.0477559 -0.301709,0.124957 -0.0772008,0.0772008 -0.124957,0.183878 -0.124957,0.301709 0,0.117831 0.0477559,0.224508 0.124957,0.301709 0.0772008,0.0772008 0.183878,0.124957 0.301709,0.124957 0.117831,0 0.224508,-0.0477559 0.301709,-0.124957 0.0684685,-0.0684685 0.113772,-0.160122 0.123146,-0.262177l0.212492 -0.0981535c0.00175197,0.0193071 0.00265748,0.0388583 0.00265748,0.058622 0,0.176717 -0.0716457,0.33672 -0.187461,0.452543 -0.115823,0.115815 -0.275827,0.187461 -0.452543,0.187461 -0.176717,0 -0.33672,-0.0716457 -0.452543,-0.187461 -0.115815,-0.115823 -0.187461,-0.275827 -0.187461,-0.452543 0,-0.176717 0.0716457,-0.33672 0.187461,-0.452543 0.115823,-0.115815 0.275827,-0.187461 0.452543,-0.187461z"/><path class="fil1" d="M3.89388 3.07512l2.13479 -0.986075 -0.462252 -0.686461 -1.67254 1.67254zm2.33737 -0.84513l-2.79101 1.28919c-0.0912362,0.0287126 -0.169181,-0.063752 -0.12,-0.172083l2.18667 -2.18667 0.091315 -0.091315 0.072437 0.107567 0.604343 0.897476 0.0696575 0.103449 -0.113409 0.0523819z"/><polygon class="fil2" points="3.89388,3.07512 6.02867,2.08905 5.56642,1.40259 "/><path class="fil3" d="M2.16416 2.16416c0.319697,-0.319693 0.76135,-0.517433 1.24917,-0.517433 0.408772,0 0.785114,0.138874 1.08446,0.371976l0.488295 -0.488295c-0.425827,-0.356063 -0.974244,-0.570402 -1.57275,-0.570402 -0.67748,0 -1.29081,0.274594 -1.73477,0.718555 -0.443961,0.443957 -0.718555,1.05729 -0.718555,1.73477 0,0.67748 0.274594,1.29081 0.718555,1.73477 0.443957,0.443961 1.05729,0.718555 1.73477,0.718555 0.67748,0 1.29081,-0.274594 1.73477,-0.718555 0.443961,-0.443957 0.718555,-1.05729 0.718555,-1.73477 0,-0.291618 -0.0509213,-0.571331 -0.144283,-0.830787l-0.626921 0.289579c0.0548425,0.170563 0.0844843,0.352421 0.0844843,0.541209 0,0.487823 -0.19774,0.929476 -0.517433,1.24917 -0.319697,0.319693 -0.76135,0.517433 -1.24917,0.517433 -0.487823,0 -0.929476,-0.19774 -1.24917,-0.517433 -0.319693,-0.319697 -0.517433,-0.76135 -0.517433,-1.24917 0,-0.487823 0.19774,-0.929476 0.517433,-1.24917z"/><path class="fil4" d="M3.41333 1.84407c-0.43335,0 -0.825669,0.175642 -1.10965,0.459614 -0.283972,0.283976 -0.459614,0.676295 -0.459614,1.10965 0,0.43335 0.175642,0.825669 0.459614,1.10965 0.283976,0.283972 0.676295,0.459614 1.10965,0.459614 0.43335,0 0.825669,-0.175642 1.10965,-0.459614 0.283972,-0.283976 0.459614,-0.676295 0.459614,-1.10965 0,-0.159236 -0.0237402,-0.312925 -0.0678346,-0.457744l-0.864079 0.399122c0.00175197,0.0193071 0.00265748,0.0388583 0.00265748,0.058622 0,0.176717 -0.0716457,0.33672 -0.187461,0.452543 -0.115823,0.115815 -0.275827,0.187461 -0.452543,0.187461 -0.176717,0 -0.33672,-0.0716457 -0.452543,-0.187461 -0.115815,-0.115823 -0.187461,-0.275827 -0.187461,-0.452543 0,-0.176717 0.0716457,-0.33672 0.187461,-0.452543 0.115823,-0.115815 0.275827,-0.187461 0.452543,-0.187461 0.0965354,0 0.188087,0.0213819 0.270169,0.0596614l0.673547 -0.673547c-0.262638,-0.19798 -0.589465,-0.31537 -0.943717,-0.31537z"/><path class="fil5" d="M3.11162 3.11162c-0.0772008,0.0772008 -0.124957,0.183878 -0.124957,0.301709 0,0.117831 0.0477559,0.224508 0.124957,0.301709 0.0772008,0.0772008 0.183878,0.124957 0.301709,0.124957 0.117831,0 0.224508,-0.0477559 0.301709,-0.124957 0.0684685,-0.0684685 0.113772,-0.160122 0.123146,-0.262177l-0.35322 0.163154c-0.0458898,0.0211969 -0.0973031,0.0246339 -0.145173,0.0079252 -0.131197,-0.0457835 -0.170831,-0.201654 -0.116681,-0.320937l0.00800787 -0.0176339 0.285988 -0.285988c-0.0332205,-0.00830315 -0.0679803,-0.0127165 -0.103776,-0.0127165 -0.117831,0 -0.224508,0.0477559 -0.301709,0.124957z"/></g></svg>