<?xml version="1.0" ?><!DOCTYPE svg  PUBLIC '-//W3C//DTD SVG 1.1//EN'  'http://www.w3.org/Graphics/SVG/1.1/DTD/svg11.dtd'><svg enable-background="new 0 0 64 64" id="Layer_1" version="1.1" viewBox="0 0 64 64" xml:space="preserve" xmlns="http://www.w3.org/2000/svg" xmlns:xlink="http://www.w3.org/1999/xlink"><path d="M54,11v30c0,2.2-1.8,4-4,4H13c-2.2,0-4-1.8-4-4V11" fill="#E5E5E5"/><rect fill="#FFD766" height="7" width="4.5" x="37.5" y="29"/><rect fill="#F8B319" height="12" width="4.8" x="42" y="24"/><rect fill="#8C623B" height="4.8" width="8" x="28" y="44.2"/><path d="  M54,11v30c0,2.2-1.8,4-4,4H13c-2.2,0-4-1.8-4-4V11" fill="none" stroke="#2C3E50" stroke-linecap="round" stroke-linejoin="round" stroke-miterlimit="10" stroke-width="2"/><line fill="none" stroke="#2C3E50" stroke-linecap="round" stroke-linejoin="round" stroke-miterlimit="10" stroke-width="2" x1="6" x2="57" y1="11" y2="11"/><line fill="none" stroke="#2C3E50" stroke-linecap="round" stroke-linejoin="round" stroke-miterlimit="10" stroke-width="2" x1="32" x2="32" y1="11" y2="7"/><line fill="none" stroke="#2C3E50" stroke-linecap="round" stroke-linejoin="round" stroke-miterlimit="10" stroke-width="2" x1="32" x2="39.2" y1="49" y2="56.2"/><line fill="none" stroke="#2C3E50" stroke-linecap="round" stroke-linejoin="round" stroke-miterlimit="10" stroke-width="2" x1="32" x2="24.4" y1="49" y2="56.6"/><line fill="none" stroke="#2C3E50" stroke-linecap="round" stroke-linejoin="round" stroke-miterlimit="10" stroke-width="2" x1="28" x2="36" y1="49" y2="49"/><line fill="none" stroke="#2C3E50" stroke-linecap="round" stroke-linejoin="round" stroke-miterlimit="10" stroke-width="2" x1="46.8" x2="46.8" y1="24" y2="36"/><line fill="none" stroke="#2C3E50" stroke-linecap="round" stroke-linejoin="round" stroke-miterlimit="10" stroke-width="2" x1="42" x2="42" y1="36" y2="19.8"/><line fill="none" stroke="#2C3E50" stroke-linecap="round" stroke-linejoin="round" stroke-miterlimit="10" stroke-width="2" x1="37.5" x2="37.5" y1="36" y2="29"/><path d="M15.2,31.1c0,0,0.4-3.5,1.8-2.7c1.4,0.8,0.5,7.4,2.6,4.8s1.9-9.1,3.5-9s1.1,11.5,2.9,11.5s5.5-16.3,5.5-16.3  " fill="#2980BA"/><path d="  M15.2,31.1c0,0,0.4-3.5,1.8-2.7c1.4,0.8,0.5,7.4,2.6,4.8s1.9-9.1,3.5-9s1.1,11.5,2.9,11.5s5.5-16.3,5.5-16.3" fill="none" stroke="#2C3E50" stroke-linecap="round" stroke-linejoin="round" stroke-miterlimit="10" stroke-width="2"/></svg>