<?xml version="1.0" ?><!DOCTYPE svg  PUBLIC '-//W3C//DTD SVG 1.1//EN'  'http://www.w3.org/Graphics/SVG/1.1/DTD/svg11.dtd'><svg enable-background="new 0 0 128 128" id="Слой_1" version="1.1" viewBox="0 0 128 128" xml:space="preserve" xmlns="http://www.w3.org/2000/svg" xmlns:xlink="http://www.w3.org/1999/xlink"><circle cx="64" cy="64" fill="#C1E1CA" r="62"/><g><g><path d="M90.2,42.3H37.8c-8.3,0-15,6.7-15,15v53c11,9.8,25.4,15.7,41.2,15.7s30.3-5.9,41.2-15.7v-53    C105.2,49,98.5,42.3,90.2,42.3z" fill="#F6F3E0"/></g><g><path d="M90.2,79.8H72.7c-0.5,0-0.9,0.3-1.1,0.7l-1.7,3.5l-1.9-9.2c-0.1-0.6-0.6-1-1.2-1c0,0,0,0,0,0    c-0.6,0-1.1,0.4-1.2,1L61,93.4l-3.1-23.9c-0.1-0.6-0.6-1-1.1-1.1c-0.6-0.1-1.1,0.3-1.3,0.9l-4.2,14.6l-3.4-11.3    c-0.1-0.5-0.6-0.8-1.1-0.9c-0.5,0-1,0.2-1.2,0.7l-3.7,7.3h-4.1c-0.7,0-1.2,0.6-1.2,1.2s0.6,1.2,1.2,1.2h4.9c0.5,0,0.9-0.3,1.1-0.7    l2.6-5.2l3.8,12.3c0.2,0.5,0.6,0.9,1.2,0.9c0,0,0,0,0,0c0.6,0,1-0.4,1.2-0.9l3.7-12.9l3.2,24.7c0.1,0.6,0.6,1.1,1.2,1.1    c0,0,0,0,0.1,0c0.6,0,1.1-0.4,1.2-1l4.7-19.9l1.5,7.2c0.1,0.5,0.5,0.9,1.1,1c0.5,0.1,1-0.2,1.3-0.7l3-6h16.8    c0.7,0,1.2-0.6,1.2-1.2S90.9,79.8,90.2,79.8z" fill="#DF665B"/></g><g><path d="M90.2,41.1H37.8c-9,0-16.2,7.3-16.2,16.2v51.8c0.8,0.8,1.6,1.5,2.5,2.2V57.3c0-7.6,6.2-13.8,13.8-13.8    h52.4c7.6,0,13.8,6.2,13.8,13.8v54.1c0.9-0.7,1.7-1.5,2.5-2.2V57.3C106.5,48.4,99.2,41.1,90.2,41.1z" fill="#2D2E2D"/></g><g><path d="M54.4,125.2h19.3c3.5-0.5,6.9-1.4,10.2-2.5H44.2C47.5,123.9,50.9,124.7,54.4,125.2z" fill="#2D2E2D"/></g><g><path d="M90.2,112.8H37.8c-0.7,0-1.2,0.6-1.2,1.2s0.6,1.2,1.2,1.2h52.4c0.7,0,1.2-0.6,1.2-1.2    S90.9,112.8,90.2,112.8z" fill="#2D2E2D"/></g><g><path d="M70.7,35.7c0-3.7-3-6.7-6.7-6.7s-6.7,3-6.7,6.7v6.7H44V49c0,3.7,3,6.7,6.7,6.7h26.7c3.7,0,6.7-3,6.7-6.7    v-6.7H70.7V35.7z M64,39.5c-2.1,0-3.8-1.7-3.8-3.8S61.9,32,64,32s3.8,1.7,3.8,3.8S66.1,39.5,64,39.5z" fill="#52544F"/></g><g><path d="M84,41.1H71.9v-5.4c0-4.4-3.6-7.9-7.9-7.9s-7.9,3.6-7.9,7.9v5.4H44c-0.7,0-1.2,0.6-1.2,1.2V49    c0,4.4,3.6,7.9,7.9,7.9h26.7c4.4,0,7.9-3.6,7.9-7.9v-6.7C85.2,41.6,84.7,41.1,84,41.1z M82.8,49c0,3-2.4,5.4-5.4,5.4H50.7    c-3,0-5.4-2.4-5.4-5.4v-5.4h12.1c0.7,0,1.2-0.6,1.2-1.2v-6.7c0-3,2.4-5.4,5.4-5.4s5.4,2.4,5.4,5.4v6.7c0,0.7,0.6,1.2,1.2,1.2h12.1    V49z" fill="#2D2E2D"/></g><g><path d="M64,30.8c-2.8,0-5,2.2-5,5s2.2,5,5,5s5-2.2,5-5S66.8,30.8,64,30.8z M64,38.2c-1.4,0-2.5-1.1-2.5-2.5    s1.1-2.5,2.5-2.5s2.5,1.1,2.5,2.5S65.4,38.2,64,38.2z" fill="#2D2E2D"/></g></g></svg>