<?xml version="1.0" ?><!DOCTYPE svg  PUBLIC '-//W3C//DTD SVG 1.1//EN'  'http://www.w3.org/Graphics/SVG/1.1/DTD/svg11.dtd'><svg enable-background="new 0 0 128 128" id="Слой_1" version="1.1" viewBox="0 0 128 128" xml:space="preserve" xmlns="http://www.w3.org/2000/svg" xmlns:xlink="http://www.w3.org/1999/xlink"><g><g><circle cx="64" cy="64" fill="#C0E3CF" r="62"/></g><g><g><g><path d="M64,126c20.5,0,38.7-10,50-25.4V76.5L72,41.9C67.3,38,60.7,38,56,41.9L14,76.5v24.1      C25.3,116,43.5,126,64,126z" fill="#F2D856"/></g><g><path d="M15,77l41.7-34.4c2.1-1.7,4.7-2.6,7.3-2.6s5.3,0.9,7.3,2.6L113,77v25c0.7-0.9,1.4-1.8,2-2.7V76.5      c0-0.3-0.1-0.6-0.4-0.8l-42-34.7c-2.4-2-5.5-3.1-8.6-3.1s-6.2,1.1-8.6,3.1l-42,34.7c-0.2,0.2-0.4,0.5-0.4,0.8v22.7      c0.6,0.9,1.3,1.8,2,2.7V77z" fill="#252525"/></g><g opacity="0.1"><path d="M64,126c20.5,0,38.7-10,50-25.4V76.5L72,41.9C67.3,38,60.7,38,56,41.9L14,76.5v24.1      C25.3,116,43.5,126,64,126z" fill="#08090A"/></g><g><path d="M109.3,106.3V57.2c0-3.7-3-6.7-6.7-6.7H25.3c-3.7,0-6.7,3-6.7,6.7v49.1c6.8,7.2,15.2,12.9,24.8,16.2      h41.1C94.1,119.1,102.6,113.5,109.3,106.3z" fill="#E8E7E7"/></g><g><path d="M40.8,121.5c1.9,0.8,3.8,1.4,5.8,2h34.9c2-0.6,3.9-1.2,5.8-2H40.8z" fill="#252525"/><path d="M19.7,57.2c0-3.1,2.5-5.7,5.7-5.7h77.3c3.1,0,5.7,2.5,5.7,5.7v50.1c0.7-0.7,1.4-1.4,2-2.1v-48      c0-4.2-3.4-7.7-7.7-7.7H25.3c-4.2,0-7.7,3.4-7.7,7.7v48c0.6,0.7,1.3,1.4,2,2.1V57.2z" fill="#252525"/></g><g><path d="M114,100.6V76.5l-74.3,44.5c7.5,3.2,15.7,4.9,24.3,4.9C84.5,126,102.7,116,114,100.6z" fill="#F2D856"/></g><g opacity="0.1"><path d="M114,100.6V76.5l-74.3,44.5c7.5,3.2,15.7,4.9,24.3,4.9C84.5,126,102.7,116,114,100.6z" fill="#08090A"/></g><g><path d="M113,78.3V102c0.7-0.9,1.4-1.8,2-2.7V76.5c0-0.4-0.2-0.7-0.5-0.9c-0.3-0.2-0.7-0.2-1,0l-74.9,44.9      c0.8,0.3,1.5,0.7,2.3,1L113,78.3z" fill="#252525"/></g><g><path d="M64,126c8.6,0,16.8-1.8,24.3-4.9L14,76.5v24.1C25.3,116,43.5,126,64,126z" fill="#F2D856"/></g><g><path d="M14.7,77.7l72.8,43.7c0.5-0.2,1-0.4,1.5-0.6L14.3,76c-0.2-0.1-0.5-0.1-0.7,0s-0.3,0.3-0.3,0.6v23.2      c0.4,0.6,0.9,1.2,1.3,1.8V77.7z" fill="#252525"/></g><g><path d="M15,78.3l72.1,43.2c0.8-0.3,1.5-0.6,2.3-1L14.5,75.7c-0.3-0.2-0.7-0.2-1,0c-0.3,0.2-0.5,0.5-0.5,0.9      v22.7c0.6,0.9,1.3,1.8,2,2.7V78.3z" fill="#252525"/></g></g></g></g></svg>