<?xml version="1.0" ?><!DOCTYPE svg  PUBLIC '-//W3C//DTD SVG 1.1//EN'  'http://www.w3.org/Graphics/SVG/1.1/DTD/svg11.dtd'><svg enable-background="new 0 0 128 128" id="Слой_1" version="1.1" viewBox="0 0 128 128" xml:space="preserve" xmlns="http://www.w3.org/2000/svg" xmlns:xlink="http://www.w3.org/1999/xlink"><g><circle cx="64" cy="64" fill="#B0E0DF" r="62"/><g><g><path d="M60,97.5c1.1,0.4,2.3-0.1,2.9-1.1L94,45.3l0,0L2.3,70c0.3,3.1,0.8,6.2,1.6,9.2l8.9,2.9l4.4,22.4     c2.2,2.5,4.6,4.9,7.2,7.1l7.6-23.2l-7.6,23.2c1.3,1.1,2.6,2.1,4,3.1l19.9-21L60,97.5z" fill="#E8E7E7"/></g><g><path d="M59.7,98.5c1.6,0.5,3.2-0.1,4.1-1.5l31.1-51.2c0.2-0.3,0.2-0.8-0.1-1.1c-0.2-0.3-0.7-0.5-1.1-0.4L2.2,69     c0.1,0.7,0.1,1.4,0.2,2l89.4-24.1L62,95.9c-0.4,0.6-1.1,0.9-1.7,0.6l-11.8-3.9c-0.4-0.1-0.8,0-1,0.3l-20,21.1     c0.5,0.4,1.1,0.8,1.6,1.2l19.3-20.4L59.7,98.5z" fill="#252525"/><path d="M13.7,81.9c-0.1-0.4-0.3-0.6-0.7-0.8l-9.4-3.1c0.2,0.8,0.4,1.5,0.6,2.3l7.7,2.5l3.9,20.1     c0.8,1,1.7,2.1,2.6,3.1L13.7,81.9z" fill="#252525"/><path d="M32.2,87.4c-0.1,0-0.2-0.1-0.3-0.1c-0.4,0-0.8,0.3-1,0.7l-7.5,22.8c0.5,0.5,1.1,0.9,1.7,1.4l7.7-23.6     C33,88.2,32.7,87.6,32.2,87.4z" fill="#252525"/></g><g><polygon fill="#F2D856" points="51.2,64.6 51.2,64.6 52.9,73.6 61.2,67.9 61.2,67.9 61.2,67.9 74.1,78 94,45.3 30.5,62.4    "/></g><g><path d="M93.7,44.3L30.3,61.5c-0.5,0.1-0.8,0.6-0.7,1c0,0.5,0.4,0.9,0.9,0.9l19.9,2.1l1.6,8.3     c0.1,0.3,0.3,0.6,0.6,0.7c0.3,0.1,0.7,0.1,0.9-0.1l7.7-5.3l12.3,9.7c0.2,0.1,0.4,0.2,0.6,0.2c0.1,0,0.1,0,0.2,0     c0.3-0.1,0.5-0.2,0.7-0.5l19.9-32.7c0.2-0.3,0.2-0.8-0.1-1.1C94.6,44.4,94.1,44.2,93.7,44.3z M73.8,76.5l-12-9.4     c-0.2-0.1-0.4-0.2-0.6-0.2c-0.2,0-0.4,0.1-0.6,0.2l-7,4.9l-1.5-7.5c-0.1-0.4-0.4-0.8-0.9-0.8L36,62l55.9-15.1L73.8,76.5z" fill="#252525"/></g><g opacity="0.1"><path d="M31.9,88.4l-7.6,23.2c1.3,1.1,2.6,2.1,4,3.1l19.9-21L31.9,88.4z" fill="#0B0D0E"/></g><g opacity="0.1"><path d="M31.9,88.4L94,45.3L12.7,81.9l4.4,22.6c3.3,3.8,7,7.2,11.2,10.1l19.9-21L31.9,88.4z" fill="#0B0D0E"/></g><g><path d="M49.1,93.4c-0.1-0.3-0.3-0.6-0.7-0.7L34.1,88l60.5-41.9c0.4-0.3,0.6-0.9,0.3-1.3     c-0.3-0.4-0.8-0.6-1.3-0.4L12.3,81c-0.4,0.2-0.7,0.6-0.6,1.1l4.1,20.8c0.8,1,1.7,2.1,2.6,3l-4.6-23.5l70.6-31.8L31.3,87.5     c-0.3,0.2-0.5,0.6-0.4,1c0.1,0.4,0.3,0.7,0.7,0.8l14.8,4.8l-18.9,19.9c0.5,0.4,1.1,0.8,1.6,1.2l19.8-20.9     C49.1,94.1,49.2,93.8,49.1,93.4z" fill="#252525"/></g></g></g></svg>