<svg width="171" height="60" viewBox="0 0 171 60" fill="none" xmlns="http://www.w3.org/2000/svg">
<g clip-path="url(#clip0_101_2108)">
<path d="M69.3311 41.5039H73.6734V42.5279H70.3958V44.3461H73.1306V45.3702H70.3958V47.3764H73.6734V48.4005H69.3311V41.5039Z" fill="white"/>
<path d="M77.8278 43.1328C78.2871 43.1328 78.6629 43.2373 78.9134 43.4254C79.164 43.6135 79.3518 43.8643 79.4562 44.1986C79.5606 44.5121 79.6024 44.8883 79.6024 45.2645V48.4202H78.5794V45.3272C78.5794 45.0764 78.5377 44.8465 78.475 44.6584C78.4124 44.4703 78.2871 44.3031 78.141 44.1986C77.974 44.0942 77.7652 44.0315 77.4729 44.0524C77.2016 44.0524 76.9719 44.1151 76.7631 44.2195C76.5544 44.324 76.4082 44.4703 76.283 44.6584C76.1577 44.8465 76.116 45.0555 76.116 45.2645V48.3993H75.093V43.2164H76.116V44.0315C76.283 43.7807 76.5126 43.5717 76.8049 43.3836C77.1389 43.2164 77.4729 43.1328 77.8278 43.1328Z" fill="white"/>
<path d="M81.7108 49.2772C81.8987 49.4235 82.1492 49.5489 82.4415 49.6325C82.7338 49.7161 83.026 49.7788 83.3183 49.7788C83.8402 49.7788 84.2578 49.6534 84.55 49.3817C84.8423 49.1309 84.9676 48.7338 84.9676 48.2114V47.5844C84.8841 47.7516 84.7379 47.8979 84.5709 48.0233C84.4039 48.1696 84.1951 48.2741 83.9655 48.3786C83.7359 48.4622 83.5062 48.504 83.2557 48.504C82.7755 48.504 82.3371 48.3786 81.9613 48.1487C81.5647 47.9188 81.2724 47.6053 81.0428 47.1873C80.8131 46.7694 80.7087 46.3096 80.7087 45.7871C80.7087 45.2647 80.8131 44.8049 81.0428 44.3869C81.2724 43.9899 81.5647 43.6555 81.9613 43.4256C82.3371 43.1957 82.7755 43.0703 83.2557 43.0703C83.6523 43.0703 84.0072 43.1539 84.2995 43.342C84.6127 43.5092 84.8423 43.6973 84.9884 43.9063V43.1957H86.0114V48.0651C86.0114 48.6921 85.8861 49.1727 85.6356 49.5698C85.3851 49.946 85.072 50.2177 84.6544 50.4057C84.2578 50.5729 83.8194 50.6774 83.3392 50.6774C82.9634 50.6774 82.6085 50.6147 82.2327 50.5102C81.8778 50.3848 81.5647 50.2386 81.3559 50.0714L81.7108 49.2772ZM83.3392 44.0525C83.026 44.0525 82.7338 44.1361 82.5041 44.2824C82.2536 44.4287 82.0657 44.6377 81.9196 44.9094C81.7734 45.1811 81.7108 45.4737 81.7108 45.808C81.7108 46.1424 81.7734 46.435 81.9196 46.7067C82.0657 46.9784 82.2536 47.1873 82.5041 47.3336C82.7546 47.4799 83.026 47.5635 83.3392 47.5635C83.6732 47.5635 83.9446 47.4799 84.1951 47.3336C84.4456 47.1873 84.6335 46.9784 84.7797 46.7067C84.9258 46.435 84.9884 46.1424 84.9884 45.808C84.9884 45.4737 84.9258 45.1602 84.7797 44.9094C84.6335 44.6377 84.4456 44.4287 84.1951 44.2824C83.9655 44.1361 83.6732 44.0525 83.3392 44.0525Z" fill="white"/>
<path d="M87.3894 48.4206V41.127H88.4122V48.4206H87.3894Z" fill="white"/>
<path d="M90.5419 42.1094C90.3123 42.1094 90.1453 42.0467 90.02 41.9422C89.9157 41.8168 89.853 41.6705 89.853 41.4824C89.853 41.3152 89.9157 41.1689 90.02 41.0436C90.1244 40.9182 90.3123 40.8555 90.5419 40.8555C90.7715 40.8555 90.9385 40.9182 91.0638 41.0436C91.1682 41.1689 91.2308 41.3152 91.2308 41.5033C91.2308 41.6705 91.1682 41.8168 91.0638 41.9422C90.9385 42.0467 90.7715 42.1094 90.5419 42.1094ZM91.0638 48.4207H90.0409V43.2379H91.0638V48.4207Z" fill="white"/>
<path d="M95.5731 44.5971C95.3852 44.409 95.1764 44.2627 94.9468 44.1373C94.7172 44.0119 94.5084 43.9492 94.2997 43.9492C94.1535 43.9492 94.0283 43.9701 93.8821 43.991C93.7569 44.0328 93.6316 44.0746 93.5481 44.1791C93.4646 44.2627 93.402 44.3881 93.402 44.5762C93.402 44.8061 93.5064 44.9733 93.7151 45.0778C93.9239 45.1822 94.1744 45.2658 94.4875 45.3494C94.7589 45.4121 95.0094 45.5166 95.2808 45.6211C95.5313 45.7256 95.7401 45.8928 95.9071 46.1018C96.0741 46.3108 96.1576 46.6034 96.1576 46.9795C96.1576 47.293 96.0741 47.5856 95.8862 47.8155C95.6984 48.0454 95.4687 48.2125 95.1764 48.3379C94.8842 48.4633 94.5919 48.526 94.2788 48.526C93.903 48.526 93.5272 48.4633 93.1723 48.317C92.8174 48.1916 92.5043 47.9409 92.2329 47.6274L92.9218 47.0422C93.0888 47.2512 93.2976 47.3975 93.5272 47.5229C93.7569 47.6483 94.0283 47.6901 94.3623 47.6901C94.4875 47.6901 94.6128 47.6692 94.738 47.6274C94.8633 47.5856 94.9677 47.5229 95.0512 47.4184C95.1347 47.3139 95.1764 47.1885 95.1764 47.0213C95.1764 46.8541 95.1347 46.7496 95.0303 46.6451C94.9259 46.5616 94.8007 46.478 94.6545 46.4362C94.4875 46.3735 94.3205 46.3317 94.1326 46.2899C93.8404 46.2063 93.569 46.1227 93.2976 45.9973C93.0262 45.8719 92.7966 45.7256 92.6087 45.4957C92.4208 45.2867 92.3373 44.9942 92.3373 44.618C92.3373 44.3045 92.4208 44.0537 92.5878 43.8238C92.7548 43.5939 92.9845 43.4268 93.2767 43.3014C93.569 43.176 93.8613 43.1133 94.1744 43.1133C94.4875 43.1133 94.8216 43.176 95.1764 43.3014C95.5313 43.4268 95.8445 43.6357 96.0741 43.9283L95.5731 44.5971Z" fill="white"/>
<path d="M100.02 43.1326C100.479 43.1326 100.855 43.2371 101.105 43.4252C101.356 43.6133 101.544 43.8641 101.648 44.1985C101.752 44.512 101.794 44.8881 101.794 45.2643V48.42H100.771V45.327C100.771 45.0762 100.729 44.8463 100.667 44.6582C100.604 44.4702 100.479 44.303 100.333 44.1985C100.166 44.094 99.957 44.0313 99.6648 44.0522C99.3934 44.0522 99.1637 44.1149 98.955 44.2194C98.7462 44.3239 98.6001 44.4702 98.4748 44.6582C98.3496 44.8463 98.3078 45.0553 98.3078 45.2643V48.3991H97.2849V41.1055H98.3078V44.0522C98.4748 43.8014 98.7045 43.5924 98.9967 43.4043C99.3308 43.2162 99.6648 43.1326 100.02 43.1326Z" fill="white"/>
<path d="M108.913 44.5971C108.725 44.409 108.516 44.2627 108.287 44.1373C108.057 44.0119 107.848 43.9492 107.64 43.9492C107.493 43.9492 107.368 43.9701 107.222 43.991C107.097 44.0328 106.971 44.0746 106.888 44.1791C106.804 44.2627 106.742 44.3881 106.742 44.5762C106.742 44.8061 106.846 44.9733 107.055 45.0778C107.264 45.1822 107.514 45.2658 107.827 45.3494C108.099 45.4121 108.349 45.5166 108.621 45.6211C108.871 45.7256 109.08 45.8928 109.247 46.1018C109.414 46.3108 109.498 46.6034 109.498 46.9795C109.498 47.293 109.414 47.5856 109.226 47.8155C109.038 48.0454 108.809 48.2125 108.516 48.3379C108.224 48.4633 107.932 48.526 107.619 48.526C107.243 48.526 106.867 48.4633 106.512 48.317C106.157 48.1916 105.844 47.9409 105.573 47.6274L106.262 47.0422C106.429 47.2512 106.637 47.3975 106.867 47.5229C107.097 47.6483 107.368 47.6901 107.702 47.6901C107.827 47.6901 107.953 47.6692 108.078 47.6274C108.203 47.5856 108.308 47.5229 108.391 47.4184C108.475 47.3139 108.516 47.1885 108.516 47.0213C108.516 46.8541 108.475 46.7496 108.37 46.6451C108.266 46.5616 108.141 46.478 107.994 46.4362C107.827 46.3735 107.66 46.3317 107.473 46.2899C107.18 46.2063 106.909 46.1227 106.637 45.9973C106.366 45.8719 106.136 45.7256 105.949 45.4957C105.761 45.2867 105.677 44.9942 105.677 44.618C105.677 44.3045 105.761 44.0537 105.928 43.8238C106.095 43.5939 106.324 43.4268 106.617 43.3014C106.909 43.176 107.201 43.1133 107.514 43.1133C107.827 43.1133 108.161 43.176 108.516 43.3014C108.871 43.4268 109.184 43.6357 109.414 43.9283L108.913 44.5971Z" fill="white"/>
<path d="M113.36 43.1328C113.819 43.1328 114.237 43.2373 114.592 43.4672C114.947 43.6971 115.239 44.0106 115.448 44.4076C115.656 44.8047 115.761 45.2645 115.761 45.8078C115.761 46.3303 115.656 46.7901 115.448 47.1872C115.239 47.5842 114.947 47.9186 114.592 48.1485C114.237 48.3784 113.819 48.5038 113.381 48.5038C113.005 48.5038 112.671 48.4202 112.379 48.2739C112.086 48.1276 111.836 47.9395 111.669 47.7305V50.5727H110.646V43.2164H111.669V43.9688C111.815 43.7598 112.045 43.5508 112.358 43.3836C112.671 43.2373 113.005 43.1328 113.36 43.1328ZM113.214 44.0733C112.901 44.0733 112.629 44.1568 112.4 44.3031C112.17 44.4494 111.982 44.6584 111.836 44.9301C111.711 45.1809 111.627 45.4944 111.627 45.8287C111.627 46.1631 111.69 46.4557 111.836 46.7065C111.961 46.9782 112.149 47.1872 112.4 47.3334C112.629 47.4797 112.922 47.5633 113.214 47.5633C113.506 47.5633 113.798 47.4797 114.028 47.3334C114.258 47.1872 114.446 46.9782 114.592 46.7065C114.717 46.4348 114.8 46.1422 114.8 45.8287C114.8 45.4944 114.738 45.2018 114.592 44.9301C114.466 44.6793 114.279 44.4703 114.028 44.3031C113.798 44.1568 113.527 44.0733 113.214 44.0733Z" fill="white"/>
<path d="M121.314 47.7319C121.084 47.9409 120.813 48.1081 120.437 48.2752C120.061 48.4424 119.685 48.5051 119.289 48.5051C118.746 48.5051 118.266 48.4006 117.869 48.1708C117.452 47.9409 117.138 47.6274 116.909 47.2303C116.679 46.8332 116.554 46.3735 116.554 45.8719C116.554 45.2867 116.679 44.8061 116.909 44.3881C117.159 43.9701 117.473 43.6566 117.869 43.4477C118.266 43.2178 118.704 43.1133 119.184 43.1133C119.623 43.1133 120.019 43.2178 120.374 43.4268C120.729 43.6357 121.022 43.9283 121.23 44.3045C121.439 44.6807 121.543 45.1196 121.543 45.6211V46.06H117.577C117.64 46.5198 117.827 46.8959 118.161 47.1676C118.495 47.4393 118.892 47.5856 119.393 47.5856C119.748 47.5856 120.04 47.5229 120.27 47.3766C120.5 47.2512 120.687 47.1049 120.813 46.9795L121.314 47.7319ZM119.205 44.0537C118.809 44.0537 118.475 44.1373 118.182 44.3254C117.89 44.5135 117.702 44.827 117.619 45.2658H120.52V45.2031C120.5 44.9733 120.437 44.7852 120.291 44.618C120.166 44.4508 119.999 44.3045 119.811 44.2209C119.623 44.0955 119.414 44.0537 119.205 44.0537Z" fill="white"/>
<path d="M127.472 43.2373V48.4202H126.449V47.626C126.282 47.835 126.053 48.044 125.739 48.2321C125.426 48.4202 125.071 48.5247 124.675 48.5247C124.236 48.5247 123.84 48.3993 123.485 48.1694C123.13 47.9395 122.838 47.626 122.629 47.208C122.42 46.7901 122.316 46.3303 122.316 45.8078C122.316 45.2854 122.42 44.8256 122.65 44.4076C122.858 44.0106 123.172 43.6971 123.547 43.4672C123.923 43.2373 124.362 43.1328 124.842 43.1328C125.197 43.1328 125.51 43.2164 125.802 43.3627C126.073 43.5299 126.303 43.6971 126.449 43.9061V43.2164H127.472V43.2373ZM124.904 47.5633C125.218 47.5633 125.489 47.4797 125.739 47.3334C125.969 47.1872 126.157 46.9782 126.282 46.7065C126.407 46.4348 126.47 46.1422 126.47 45.8078C126.47 45.4735 126.407 45.1809 126.282 44.9301C126.157 44.6584 125.969 44.4494 125.739 44.3031C125.51 44.1568 125.218 44.0733 124.904 44.0733C124.612 44.0733 124.341 44.1568 124.09 44.3031C123.861 44.4494 123.673 44.6584 123.547 44.9301C123.422 45.2018 123.36 45.4944 123.36 45.8287C123.36 46.1631 123.422 46.4557 123.547 46.7274C123.673 46.9991 123.861 47.2081 124.09 47.3543C124.341 47.5006 124.612 47.5633 124.904 47.5633Z" fill="white"/>
<path d="M128.892 48.4206V41.127H129.915V45.5575L132.253 43.2377H133.631L131.209 45.5157L133.694 48.4206H132.399L130.479 46.1844L129.915 46.7278V48.4206H128.892Z" fill="white"/>
<path d="M135.176 42.1094C134.946 42.1094 134.779 42.0467 134.654 41.9422C134.549 41.8168 134.487 41.6705 134.487 41.4824C134.487 41.3152 134.549 41.1689 134.654 41.0436C134.758 40.9182 134.946 40.8555 135.176 40.8555C135.405 40.8555 135.572 40.9182 135.698 41.0436C135.802 41.1689 135.865 41.3152 135.865 41.5033C135.865 41.6705 135.802 41.8168 135.698 41.9422C135.572 42.0467 135.405 42.1094 135.176 42.1094ZM135.698 48.4207H134.675V43.2379H135.698V48.4207Z" fill="white"/>
<path d="M139.936 43.1328C140.395 43.1328 140.771 43.2373 141.021 43.4254C141.272 43.6135 141.46 43.8643 141.564 44.1986C141.669 44.5121 141.71 44.8883 141.71 45.2645V48.4202H140.708V45.3272C140.708 45.0764 140.667 44.8465 140.604 44.6584C140.541 44.4703 140.416 44.3031 140.27 44.1986C140.103 44.0942 139.894 44.0315 139.602 44.0524C139.33 44.0524 139.101 44.1151 138.892 44.2195C138.683 44.324 138.537 44.4703 138.412 44.6584C138.287 44.8465 138.245 45.0555 138.245 45.2645V48.3993H137.222V43.2164H138.245V44.0315C138.412 43.7807 138.642 43.5717 138.934 43.3836C139.247 43.2164 139.581 43.1328 139.936 43.1328Z" fill="white"/>
<path d="M143.798 49.2772C143.986 49.4235 144.236 49.5489 144.529 49.6325C144.821 49.7161 145.113 49.7788 145.405 49.7788C145.927 49.7788 146.345 49.6534 146.637 49.3817C146.929 49.1309 147.055 48.7338 147.055 48.2114V47.5844C146.971 47.7516 146.825 47.8979 146.658 48.0233C146.491 48.1696 146.282 48.2741 146.053 48.3786C145.823 48.4622 145.593 48.504 145.343 48.504C144.863 48.504 144.424 48.3786 144.048 48.1487C143.652 47.9188 143.36 47.6053 143.13 47.1873C142.9 46.7694 142.796 46.3096 142.796 45.7871C142.796 45.2647 142.9 44.8049 143.13 44.3869C143.36 43.9899 143.652 43.6555 144.048 43.4256C144.424 43.1957 144.863 43.0703 145.343 43.0703C145.739 43.0703 146.094 43.1539 146.387 43.342C146.7 43.5092 146.929 43.6973 147.076 43.9063V43.1957H148.099V48.0651C148.099 48.6921 147.973 49.1727 147.723 49.5698C147.472 49.946 147.159 50.2177 146.742 50.4057C146.345 50.5729 145.906 50.6774 145.426 50.6774C145.051 50.6774 144.696 50.6147 144.32 50.5102C143.965 50.3848 143.652 50.2386 143.443 50.0714L143.798 49.2772ZM145.447 44.0525C145.134 44.0525 144.842 44.1361 144.612 44.2824C144.362 44.4287 144.174 44.6377 144.028 44.9094C143.881 45.1811 143.819 45.4737 143.819 45.808C143.819 46.1424 143.881 46.435 144.028 46.7067C144.174 46.9784 144.362 47.1873 144.612 47.3336C144.863 47.4799 145.134 47.5635 145.447 47.5635C145.781 47.5635 146.053 47.4799 146.303 47.3336C146.554 47.1873 146.742 46.9784 146.888 46.7067C147.034 46.435 147.096 46.1424 147.096 45.808C147.096 45.4737 147.034 45.1602 146.888 44.9094C146.742 44.6377 146.554 44.4287 146.303 44.2824C146.074 44.1361 145.781 44.0525 145.447 44.0525Z" fill="white"/>
<path d="M152.9 45.8092C152.9 46.1436 152.984 46.4571 153.13 46.7287C153.276 47.0004 153.485 47.2094 153.735 47.3557C153.986 47.502 154.257 47.5856 154.549 47.5856C154.883 47.5856 155.155 47.502 155.405 47.3348C155.656 47.1676 155.844 46.9795 155.99 46.7914L156.554 47.4811C156.428 47.6692 156.261 47.8155 156.032 47.9827C155.823 48.129 155.572 48.2543 155.301 48.3588C155.03 48.4633 154.737 48.5051 154.424 48.5051C153.944 48.5051 153.526 48.3797 153.151 48.1499C152.775 47.92 152.462 47.5856 152.253 47.1885C152.023 46.7705 151.919 46.3317 151.919 45.8092C151.919 45.2867 152.023 44.827 152.253 44.4299C152.483 44.0328 152.775 43.6984 153.151 43.4686C153.526 43.2387 153.965 43.1133 154.424 43.1133C154.904 43.1133 155.322 43.2178 155.698 43.4059C156.073 43.5939 156.345 43.8447 156.533 44.1582L155.969 44.8479C155.823 44.618 155.593 44.4299 155.322 44.2627C155.05 44.0955 154.779 44.0119 154.508 44.0119C154.194 44.0119 153.923 44.0955 153.673 44.2418C153.422 44.3881 153.234 44.5971 153.088 44.8688C152.984 45.1613 152.9 45.4748 152.9 45.8092Z" fill="white"/>
<path d="M157.514 48.4206V41.127H158.537V48.4206H157.514Z" fill="white"/>
<path d="M163.463 46.3522V43.2383H164.486V48.4211H163.463V47.5852C163.317 47.836 163.088 48.045 162.795 48.2331C162.503 48.4211 162.148 48.5047 161.752 48.5047C161.209 48.5047 160.77 48.3166 160.436 47.9614C160.102 47.5852 159.935 47.0836 159.935 46.4358V43.2383H160.958V46.1641C160.958 46.4358 161 46.6657 161.084 46.8955C161.167 47.1254 161.292 47.2926 161.48 47.4389C161.668 47.5643 161.898 47.6479 162.169 47.6479C162.524 47.6479 162.837 47.5434 163.088 47.3135C163.338 47.0627 163.463 46.7493 163.463 46.3522Z" fill="white"/>
<path d="M168.599 43.1332C169.058 43.1332 169.476 43.2377 169.831 43.4676C170.186 43.6975 170.478 44.011 170.687 44.408C170.895 44.8051 171 45.2858 171 45.8082C171 46.3307 170.895 46.8114 170.687 47.2085C170.478 47.6264 170.186 47.9399 169.831 48.1698C169.476 48.3997 169.058 48.5251 168.62 48.5251C168.244 48.5251 167.91 48.4415 167.618 48.2743C167.325 48.1071 167.075 47.9399 166.908 47.7309V48.3997H165.885V41.127H166.908V43.9901C167.054 43.7811 167.284 43.5721 167.597 43.4049C167.889 43.2168 168.223 43.1332 168.599 43.1332ZM168.453 44.0528C168.14 44.0528 167.868 44.1364 167.639 44.2826C167.409 44.4289 167.221 44.6379 167.075 44.9096C166.95 45.1813 166.866 45.4739 166.866 45.8082C166.866 46.1426 166.929 46.4352 167.075 46.7069C167.221 46.9786 167.388 47.1876 167.639 47.3338C167.868 47.501 168.161 47.5637 168.453 47.5637C168.745 47.5637 169.037 47.4801 169.267 47.3338C169.497 47.1667 169.685 46.9577 169.831 46.7069C169.956 46.4352 170.039 46.1426 170.039 45.8082C170.039 45.4739 169.977 45.1813 169.831 44.9096C169.705 44.6379 169.518 44.4289 169.267 44.2826C169.037 44.1364 168.766 44.0528 168.453 44.0528Z" fill="white"/>
<path d="M69.4146 10.9088C69.4146 10.5744 69.6859 10.3027 70.02 10.3027H81.7109C84.0282 10.3027 85.7819 10.867 86.9927 12.0164C88.2035 13.1659 88.809 14.8168 88.809 16.9485C88.809 18.1815 88.5793 19.2474 88.12 20.146C87.8278 20.7312 87.452 21.2327 86.9927 21.6507C86.7004 21.9224 86.7422 22.424 87.0971 22.6121C87.8069 23.0091 88.3706 23.4898 88.7672 24.075C89.3309 24.89 89.6232 26.0394 89.6232 27.5023C89.6232 29.8221 88.976 31.5985 87.6816 32.8106C86.3873 34.0227 84.5084 34.6497 82.0867 34.6497H70.0409C69.7068 34.6497 69.4354 34.378 69.4354 34.0436V10.9088H69.4146ZM79.9781 20.2087C81.8988 20.2087 82.8591 19.3101 82.8591 17.4919C82.8591 16.5305 82.6086 15.82 82.1284 15.3811C81.6483 14.9213 80.8341 14.6915 79.665 14.6915H75.8237C75.4897 14.6915 75.2183 14.9631 75.2183 15.2975V19.6235C75.2183 19.9579 75.4897 20.2296 75.8237 20.2296H79.9781V20.2087ZM80.5418 30.3028C81.6274 30.3028 82.4207 30.0729 82.9218 29.6131C83.4228 29.1533 83.6733 28.3383 83.6733 27.2098C83.6733 26.2484 83.4228 25.5379 82.9009 25.099C82.379 24.6392 81.523 24.4093 80.3122 24.4093H75.8237C75.4897 24.4093 75.2183 24.681 75.2183 25.0154V29.7176C75.2183 30.052 75.4897 30.3237 75.8237 30.3237H80.5418V30.3028Z" fill="white"/>
<path d="M93.6102 21.2325H92.3576C92.0027 21.2325 91.7313 20.9191 91.773 20.5638L92.1488 17.2618C92.1906 16.9692 92.4411 16.7393 92.7334 16.7393H99.4347C99.7687 16.7393 100.04 17.011 100.04 17.3454V34.0643C100.04 34.3987 99.7687 34.6704 99.4347 34.6704H94.821C94.487 34.6704 94.2156 34.3987 94.2156 34.0643V21.8386C94.2156 21.5042 93.9442 21.2325 93.6102 21.2325ZM94.3408 9.32031H99.4765C99.8105 9.32031 100.082 9.592 100.082 9.92637V13.312C100.082 13.6463 99.8105 13.918 99.4765 13.918H94.3408C94.0068 13.918 93.7354 13.6463 93.7354 13.312V9.92637C93.7354 9.592 94.0068 9.32031 94.3408 9.32031Z" fill="white"/>
<path d="M106.157 33.3538C105.134 32.2462 104.612 30.6788 104.612 28.6307V21.9431C104.612 21.6087 104.341 21.3371 104.007 21.3371H102.901C102.567 21.3371 102.295 21.0654 102.295 20.731V17.3245C102.295 16.9901 102.567 16.7185 102.901 16.7185H104.007C104.341 16.7185 104.612 16.4468 104.612 16.1124V13.4374C104.612 13.1657 104.8 12.9358 105.051 12.8522L109.665 11.5565C110.04 11.452 110.416 11.7446 110.416 12.1417V16.1124C110.416 16.4468 110.688 16.7185 111.022 16.7185H113.944C114.278 16.7185 114.571 17.011 114.55 17.3454L114.362 20.7519C114.341 21.0654 114.09 21.3162 113.756 21.3162H111.022C110.688 21.3162 110.416 21.5878 110.416 21.9222V28.1918C110.416 29.0487 110.604 29.6547 111.001 29.9891C111.376 30.3235 112.003 30.4907 112.88 30.4907C113.339 30.4907 113.819 30.428 114.278 30.3235C114.654 30.2399 115.009 30.5116 115.009 30.9086V33.8344C115.009 34.0852 114.863 34.3151 114.612 34.3987C113.548 34.7958 112.274 35.0048 110.771 35.0048C108.725 35.0257 107.18 34.4614 106.157 33.3538Z" fill="white"/>
<path d="M117.869 33.2287C116.742 32.0375 116.199 30.282 116.199 28.004V17.3457C116.199 17.0113 116.47 16.7396 116.804 16.7396H121.418C121.752 16.7396 122.024 17.0113 122.024 17.3457V27.6696C122.024 28.6728 122.253 29.4042 122.712 29.8849C123.172 30.3447 123.882 30.5745 124.842 30.5745C125.51 30.5745 126.157 30.4283 126.783 30.1357C127.326 29.8849 127.806 29.5505 128.203 29.1534C128.307 29.0489 128.37 28.9027 128.37 28.7355V17.3248C128.37 16.9904 128.641 16.7188 128.975 16.7188H133.589C133.923 16.7188 134.195 16.9904 134.195 17.3248V34.0437C134.195 34.3781 133.923 34.6498 133.589 34.6498H129.289C128.975 34.6498 128.725 34.4199 128.704 34.1273C128.662 33.6884 128.161 33.4586 127.806 33.6884C126.345 34.5871 124.612 35.026 122.629 35.026C120.562 35.026 118.976 34.4199 117.869 33.2287Z" fill="white"/>
<path d="M29.3944 59.9791C24.217 60.1254 13.4865 59.5193 9.54079 57.1578C9.10238 56.9488 8.68485 56.6771 8.26732 56.4263C4.88531 54.2947 2.69327 51.2853 1.73295 47.3772C0.668247 43.0721 0.188085 38.7043 0.0419493 34.2738C-0.229446 25.3709 0.772629 18.8506 1.89996 15.8203C3.54921 11.4316 6.43018 8.31766 10.5429 6.26959C11.6702 5.70533 12.8393 5.26646 14.0293 4.84848C26.9936 0.355277 46.722 0.0835946 49.8326 0C50.2084 0 50.5633 0 50.939 0.0208986C51.2731 0.0417973 51.628 0.0417973 51.9411 0.125392C51.8367 0.188088 51.7115 0.208986 51.6071 0.271682C51.4609 0.355277 51.2939 0.438871 51.1478 0.543365C51.0225 0.626959 50.939 0.752351 50.8138 0.856844C50.5424 1.04493 50.1875 1.10763 49.8743 1.25392C47.4318 2.36155 45.0518 3.57367 43.0686 5.41275C41.6907 6.66667 41.6907 7.37722 43.0477 8.65204C44.0498 9.57158 45.0936 10.5329 46.3462 11.0554C49.8743 12.5183 51.7741 15.5486 53.6112 18.558C55.8033 22.1317 56.4296 26.186 56.534 30.3448C56.6175 33.8349 56.5966 37.3668 55.9912 40.7732C56.1999 45.2874 53.7991 52.79 48.0372 56.698C43.4652 59.7492 36.576 59.791 29.3944 59.9791Z" fill="#FF6D03"/>
<path d="M51.3147 1.54702C50.9806 1.8396 50.584 2.04858 50.2291 2.29937C49.6863 2.71734 49.2688 3.19801 48.8512 3.74137C48.4128 4.30564 48.1832 5.07889 48.3084 5.78944C48.4546 6.64629 49.0809 7.14785 49.7489 7.60762C50.0412 7.79571 50.25 8.0047 50.5631 8.17189C51.2729 8.54806 51.8157 9.11232 52.4002 9.65569C54.0912 11.2649 55.2186 13.2503 56.0328 15.4028C57.2645 18.6839 57.9743 22.0904 58.0369 25.6014C58.1204 29.6975 58.1622 33.7727 57.8908 37.848C57.6611 41.3798 57.1392 44.8908 56.0536 48.2764C55.5526 49.8438 54.801 51.4948 53.8198 53.0204C51.8992 56.0507 48.7677 58.0987 45.2396 58.7257C42.9014 59.1437 36.722 59.6661 36.3879 59.6661C38.7052 58.7675 41.4609 57.7226 43.6738 56.6776C45.4484 55.8417 47.0767 54.6923 48.4755 53.313C49.9159 51.8918 51.3564 50.4916 52.3794 48.7361C53.7572 46.3955 54.9472 43.9713 55.4065 41.2335C55.5735 40.2095 55.991 35.361 55.991 34.943C55.991 32.9786 56.1163 31.0141 55.9701 29.0496C55.7405 25.9148 55.2394 22.8218 53.8407 19.9378C53.3397 18.8929 52.9848 17.8689 52.3167 16.8866C51.6278 15.9044 50.8345 15.0057 49.9786 14.1489C48.9347 13.104 47.6404 12.5188 46.4713 11.662C45.6571 11.0768 44.7177 10.7424 43.9035 10.1364C42.3795 9.00783 40.8973 6.68808 42.6718 5.05799C43.8617 3.97126 45.177 3.00992 46.6383 2.27847C47.4734 1.8605 48.2876 1.40073 49.1435 1.02455C49.5402 0.836463 49.9786 0.731969 50.3752 0.543882C50.6049 0.439389 50.8554 0.334895 51.085 0.230402C51.2312 0.167706 51.3982 0.0841116 51.5652 0.0423143C51.7322 0.000517037 51.941 0.0214157 52.1288 0.063213C53.0683 0.439389 51.5652 1.33803 51.3147 1.54702Z" fill="#F54D05"/>
<path d="M28.5178 55.4227C26.2214 55.6108 23.9876 55.4227 21.7747 55.1092C17.9752 54.5868 14.5305 53.103 11.6913 50.4488C9.95858 48.8187 8.76862 46.7916 7.95443 44.5554C6.84797 41.5251 6.26343 38.3694 6.26343 35.1092C6.26343 32.2043 6.45132 29.3412 6.95235 26.4781C7.64128 22.57 9.4993 19.3307 12.5264 16.7811C13.1944 16.2168 13.8207 15.6108 14.5097 15.0883C16.2633 13.7717 18.1839 12.7686 20.3134 12.1416C22.6724 11.452 25.0732 10.825 27.5158 10.7832C30.0001 10.7414 32.5261 10.7832 34.9896 11.3893C35.7203 11.5773 36.4718 11.7445 37.2025 11.9326C40.6263 12.7477 43.4863 14.5867 46.0959 16.9065C49.5406 19.9577 51.3359 23.7822 51.8578 28.2963C52.0666 30.1353 52.2545 31.9953 52.2963 33.8344C52.4006 37.9514 51.7952 42.0058 50.0833 45.8093C47.8495 50.7623 43.8412 53.5209 38.7056 54.7958C37.7662 55.0257 36.7641 55.1092 35.7829 55.1719C33.3612 55.2764 30.9187 55.6526 28.5178 55.4227Z" fill="white"/>
<path d="M30.4592 32.1632C30.8559 30.2614 31.691 28.7149 33.0271 27.4192C36.9518 23.6157 44.3421 24.9323 46.0749 30.972C47.3484 35.4861 44.5509 39.2687 40.6679 40.4391C36.2629 41.7766 31.7745 39.206 30.6262 34.7546C30.5636 34.5456 30.5636 34.3158 30.5219 34.1068C30.3966 33.6052 30.334 33.5216 29.7077 33.5634C29.2066 33.5843 28.5595 33.3126 28.3507 34.1068C28.3089 34.274 28.2881 34.4203 28.2463 34.5874C27.4739 37.7431 25.5115 39.7912 22.38 40.5644C16.3675 42.0483 11.8791 37.0117 12.5471 32.205C13.0273 28.7358 16.284 25.4547 20.1671 25.3503C23.3821 25.2458 27.2234 27.2729 28.1628 31.2855C28.3925 32.2677 28.6012 32.3304 29.478 32.2468C29.7703 32.205 30.0417 32.205 30.4592 32.1632Z" fill="#0F477D"/>
<path d="M29.4986 44.2629C28.413 44.2211 27.2022 43.9494 26.0539 43.4061C25.365 43.0717 24.7178 42.6537 24.4047 41.9014C24.3003 41.6506 24.3003 41.358 24.5508 41.1699C24.8014 40.9819 25.0727 41.0028 25.3024 41.2117C27.5571 43.427 30.1666 43.218 32.8806 42.3611C33.3399 42.2149 33.7365 41.9014 34.0914 41.5461C34.2793 41.358 34.5089 41.1908 34.7386 41.0864C34.8638 41.0237 35.0726 41.0864 35.1979 41.149C35.3858 41.2535 35.4901 41.4625 35.4484 41.7133C35.4066 42.1313 35.1352 42.4238 34.843 42.6537C34.1749 43.1971 33.4442 43.6986 32.5674 43.9076C31.628 44.0957 30.6677 44.242 29.4986 44.2629Z" fill="#0F477D"/>
<path d="M20.4381 39.478C17.1396 39.3944 14.6135 37.3254 13.9664 34.1906C13.5697 32.2471 14.0499 30.4498 15.3442 29.0078C17.8703 26.1447 22.5884 25.6849 25.4694 28.8615C28.3503 32.0381 27.2647 36.9075 23.4861 38.7883C22.5049 39.2899 21.4402 39.5407 20.4381 39.478Z" fill="white"/>
<path d="M38.4129 39.4365C33.7992 39.4156 30.6677 35.0687 32.1708 30.8472C32.985 28.5901 34.6969 27.3571 36.9307 26.8138C40.0622 26.0405 43.3816 27.7333 44.5507 30.68C45.8033 33.8148 44.3837 37.3676 41.3357 38.8096C40.4171 39.2275 39.415 39.4992 38.4129 39.4365Z" fill="white"/>
</g>
<defs>
<clipPath id="clip0_101_2108">
<rect width="171" height="60" fill="white"/>
</clipPath>
</defs>
</svg>
