<svg width="171" height="60" viewBox="0 0 171 60" fill="none" xmlns="http://www.w3.org/2000/svg">
<g clip-path="url(#clip0_730_4543)">
<path d="M69.3311 41.5049H73.6734V42.5289H70.3958V44.3471H73.1306V45.3711H70.3958V47.3774H73.6734V48.4014H69.3311V41.5049Z" fill="#4A5568"/>
<path d="M77.8278 43.1357C78.2871 43.1357 78.6629 43.2402 78.9134 43.4283C79.164 43.6164 79.3518 43.8672 79.4562 44.2016C79.5606 44.5151 79.6024 44.8912 79.6024 45.2674V48.4231H78.5794V45.3301C78.5794 45.0793 78.5377 44.8494 78.475 44.6613C78.4124 44.4733 78.2871 44.3061 78.141 44.2016C77.974 44.0971 77.7652 44.0344 77.4729 44.0553C77.2016 44.0553 76.9719 44.118 76.7631 44.2225C76.5544 44.327 76.4082 44.4733 76.283 44.6613C76.1577 44.8494 76.116 45.0584 76.116 45.2674V48.4022H75.093V43.2193H76.116V44.0344C76.283 43.7836 76.5126 43.5746 76.8049 43.3865C77.1389 43.2193 77.4729 43.1357 77.8278 43.1357Z" fill="#4A5568"/>
<path d="M81.7108 49.2792C81.8987 49.4255 82.1492 49.5509 82.4415 49.6344C82.7338 49.718 83.026 49.7807 83.3183 49.7807C83.8402 49.7807 84.2578 49.6553 84.55 49.3837C84.8423 49.1329 84.9676 48.7358 84.9676 48.2133V47.5864C84.8841 47.7536 84.7379 47.8999 84.5709 48.0252C84.4039 48.1715 84.1951 48.276 83.9655 48.3805C83.7359 48.4641 83.5062 48.5059 83.2557 48.5059C82.7755 48.5059 82.3371 48.3805 81.9613 48.1506C81.5647 47.9208 81.2724 47.6073 81.0428 47.1893C80.8131 46.7713 80.7087 46.3116 80.7087 45.7891C80.7087 45.2666 80.8131 44.8069 81.0428 44.3889C81.2724 43.9918 81.5647 43.6574 81.9613 43.4275C82.3371 43.1977 82.7755 43.0723 83.2557 43.0723C83.6523 43.0723 84.0072 43.1559 84.2995 43.3439C84.6127 43.5111 84.8423 43.6992 84.9884 43.9082V43.1977H86.0114V48.067C86.0114 48.694 85.8861 49.1747 85.6356 49.5717C85.3851 49.9479 85.072 50.2196 84.6544 50.4077C84.2578 50.5749 83.8194 50.6794 83.3392 50.6794C82.9634 50.6794 82.6085 50.6167 82.2327 50.5122C81.8778 50.3868 81.5647 50.2405 81.3559 50.0733L81.7108 49.2792ZM83.3392 44.0545C83.026 44.0545 82.7338 44.1381 82.5041 44.2844C82.2536 44.4307 82.0657 44.6397 81.9196 44.9113C81.7734 45.183 81.7108 45.4756 81.7108 45.81C81.7108 46.1444 81.7734 46.4369 81.9196 46.7086C82.0657 46.9803 82.2536 47.1893 82.5041 47.3356C82.7546 47.4819 83.026 47.5655 83.3392 47.5655C83.6732 47.5655 83.9446 47.4819 84.1951 47.3356C84.4456 47.1893 84.6335 46.9803 84.7797 46.7086C84.9258 46.4369 84.9884 46.1444 84.9884 45.81C84.9884 45.4756 84.9258 45.1621 84.7797 44.9113C84.6335 44.6397 84.4456 44.4307 84.1951 44.2844C83.9655 44.1381 83.6732 44.0545 83.3392 44.0545Z" fill="#4A5568"/>
<path d="M87.3894 48.4225V41.1289H88.4122V48.4225H87.3894Z" fill="#4A5568"/>
<path d="M90.5419 42.1113C90.3123 42.1113 90.1453 42.0486 90.02 41.9441C89.9157 41.8188 89.853 41.6725 89.853 41.4844C89.853 41.3172 89.9157 41.1709 90.02 41.0455C90.1244 40.9201 90.3123 40.8574 90.5419 40.8574C90.7715 40.8574 90.9385 40.9201 91.0638 41.0455C91.1682 41.1709 91.2308 41.3172 91.2308 41.5053C91.2308 41.6725 91.1682 41.8188 91.0638 41.9441C90.9385 42.0486 90.7715 42.1113 90.5419 42.1113ZM91.0638 48.4227H90.0409V43.2399H91.0638V48.4227Z" fill="#4A5568"/>
<path d="M95.5731 44.5981C95.3852 44.41 95.1764 44.2637 94.9468 44.1383C94.7172 44.0129 94.5084 43.9502 94.2997 43.9502C94.1535 43.9502 94.0283 43.9711 93.8821 43.992C93.7569 44.0338 93.6316 44.0756 93.5481 44.1801C93.4646 44.2637 93.402 44.3891 93.402 44.5772C93.402 44.807 93.5064 44.9742 93.7151 45.0787C93.9239 45.1832 94.1744 45.2668 94.4875 45.3504C94.7589 45.4131 95.0094 45.5176 95.2808 45.6221C95.5313 45.7266 95.7401 45.8938 95.9071 46.1028C96.0741 46.3117 96.1576 46.6043 96.1576 46.9805C96.1576 47.294 96.0741 47.5866 95.8862 47.8164C95.6984 48.0463 95.4687 48.2135 95.1764 48.3389C94.8842 48.4643 94.5919 48.527 94.2788 48.527C93.903 48.527 93.5272 48.4643 93.1723 48.318C92.8174 48.1926 92.5043 47.9418 92.2329 47.6284L92.9218 47.0432C93.0888 47.2522 93.2976 47.3985 93.5272 47.5239C93.7569 47.6493 94.0283 47.6911 94.3623 47.6911C94.4875 47.6911 94.6128 47.6702 94.738 47.6284C94.8633 47.5866 94.9677 47.5239 95.0512 47.4194C95.1347 47.3149 95.1764 47.1895 95.1764 47.0223C95.1764 46.8551 95.1347 46.7506 95.0303 46.6461C94.9259 46.5625 94.8007 46.4789 94.6545 46.4371C94.4875 46.3744 94.3205 46.3326 94.1326 46.2908C93.8404 46.2073 93.569 46.1237 93.2976 45.9983C93.0262 45.8729 92.7966 45.7266 92.6087 45.4967C92.4208 45.2877 92.3373 44.9951 92.3373 44.619C92.3373 44.3055 92.4208 44.0547 92.5878 43.8248C92.7548 43.5949 92.9845 43.4277 93.2767 43.3023C93.569 43.177 93.8613 43.1143 94.1744 43.1143C94.4875 43.1143 94.8216 43.177 95.1764 43.3023C95.5313 43.4277 95.8445 43.6367 96.0741 43.9293L95.5731 44.5981Z" fill="#4A5568"/>
<path d="M100.02 43.1356C100.479 43.1356 100.855 43.2401 101.105 43.4282C101.356 43.6162 101.544 43.867 101.648 44.2014C101.752 44.5149 101.794 44.8911 101.794 45.2672V48.4229H100.771V45.3299C100.771 45.0791 100.729 44.8493 100.667 44.6612C100.604 44.4731 100.479 44.3059 100.333 44.2014C100.166 44.0969 99.957 44.0342 99.6648 44.0551C99.3934 44.0551 99.1637 44.1178 98.955 44.2223C98.7462 44.3268 98.6001 44.4731 98.4748 44.6612C98.3496 44.8493 98.3078 45.0582 98.3078 45.2672V48.402H97.2849V41.1084H98.3078V44.0551C98.4748 43.8043 98.7045 43.5953 98.9967 43.4073C99.3308 43.2192 99.6648 43.1356 100.02 43.1356Z" fill="#4A5568"/>
<path d="M108.913 44.5981C108.725 44.41 108.516 44.2637 108.287 44.1383C108.057 44.0129 107.848 43.9502 107.64 43.9502C107.493 43.9502 107.368 43.9711 107.222 43.992C107.097 44.0338 106.971 44.0756 106.888 44.1801C106.804 44.2637 106.742 44.3891 106.742 44.5772C106.742 44.807 106.846 44.9742 107.055 45.0787C107.264 45.1832 107.514 45.2668 107.827 45.3504C108.099 45.4131 108.349 45.5176 108.621 45.6221C108.871 45.7266 109.08 45.8938 109.247 46.1028C109.414 46.3117 109.498 46.6043 109.498 46.9805C109.498 47.294 109.414 47.5866 109.226 47.8164C109.038 48.0463 108.809 48.2135 108.516 48.3389C108.224 48.4643 107.932 48.527 107.619 48.527C107.243 48.527 106.867 48.4643 106.512 48.318C106.157 48.1926 105.844 47.9418 105.573 47.6284L106.262 47.0432C106.429 47.2522 106.637 47.3985 106.867 47.5239C107.097 47.6493 107.368 47.6911 107.702 47.6911C107.827 47.6911 107.953 47.6702 108.078 47.6284C108.203 47.5866 108.308 47.5239 108.391 47.4194C108.475 47.3149 108.516 47.1895 108.516 47.0223C108.516 46.8551 108.475 46.7506 108.37 46.6461C108.266 46.5625 108.141 46.4789 107.994 46.4371C107.827 46.3744 107.66 46.3326 107.473 46.2908C107.18 46.2073 106.909 46.1237 106.637 45.9983C106.366 45.8729 106.136 45.7266 105.949 45.4967C105.761 45.2877 105.677 44.9951 105.677 44.619C105.677 44.3055 105.761 44.0547 105.928 43.8248C106.095 43.5949 106.324 43.4277 106.617 43.3023C106.909 43.177 107.201 43.1143 107.514 43.1143C107.827 43.1143 108.161 43.177 108.516 43.3023C108.871 43.4277 109.184 43.6367 109.414 43.9293L108.913 44.5981Z" fill="#4A5568"/>
<path d="M113.36 43.1357C113.819 43.1357 114.237 43.2402 114.592 43.4701C114.947 43.7 115.239 44.0135 115.448 44.4106C115.656 44.8076 115.761 45.2674 115.761 45.8108C115.761 46.3332 115.656 46.793 115.448 47.1901C115.239 47.5872 114.947 47.9215 114.592 48.1514C114.237 48.3813 113.819 48.5067 113.381 48.5067C113.005 48.5067 112.671 48.4231 112.379 48.2768C112.086 48.1305 111.836 47.9424 111.669 47.7334V50.5757H110.646V43.2193H111.669V43.9717C111.815 43.7627 112.045 43.5537 112.358 43.3865C112.671 43.2402 113.005 43.1357 113.36 43.1357ZM113.214 44.0762C112.901 44.0762 112.629 44.1598 112.4 44.3061C112.17 44.4524 111.982 44.6613 111.836 44.933C111.711 45.1838 111.627 45.4973 111.627 45.8317C111.627 46.166 111.69 46.4586 111.836 46.7094C111.961 46.9811 112.149 47.1901 112.4 47.3364C112.629 47.4827 112.922 47.5663 113.214 47.5663C113.506 47.5663 113.798 47.4827 114.028 47.3364C114.258 47.1901 114.446 46.9811 114.592 46.7094C114.717 46.4377 114.8 46.1451 114.8 45.8317C114.8 45.4973 114.738 45.2047 114.592 44.933C114.466 44.6822 114.279 44.4733 114.028 44.3061C113.798 44.1598 113.527 44.0762 113.214 44.0762Z" fill="#4A5568"/>
<path d="M121.314 47.7329C121.084 47.9418 120.813 48.109 120.437 48.2762C120.061 48.4434 119.685 48.5061 119.289 48.5061C118.746 48.5061 118.266 48.4016 117.869 48.1717C117.452 47.9418 117.138 47.6284 116.909 47.2313C116.679 46.8342 116.554 46.3744 116.554 45.8729C116.554 45.2877 116.679 44.807 116.909 44.3891C117.159 43.9711 117.473 43.6576 117.869 43.4486C118.266 43.2187 118.704 43.1143 119.184 43.1143C119.623 43.1143 120.019 43.2188 120.374 43.4277C120.729 43.6367 121.022 43.9293 121.23 44.3055C121.439 44.6817 121.543 45.1205 121.543 45.6221V46.061H117.577C117.64 46.5207 117.827 46.8969 118.161 47.1686C118.495 47.4403 118.892 47.5866 119.393 47.5866C119.748 47.5866 120.04 47.5239 120.27 47.3776C120.5 47.2522 120.687 47.1059 120.813 46.9805L121.314 47.7329ZM119.205 44.0547C118.809 44.0547 118.475 44.1383 118.182 44.3264C117.89 44.5145 117.702 44.8279 117.619 45.2668H120.52V45.2041C120.5 44.9742 120.437 44.7861 120.291 44.619C120.166 44.4518 119.999 44.3055 119.811 44.2219C119.623 44.0965 119.414 44.0547 119.205 44.0547Z" fill="#4A5568"/>
<path d="M127.472 43.2402V48.4231H126.449V47.629C126.282 47.8379 126.053 48.0469 125.739 48.235C125.426 48.4231 125.071 48.5276 124.675 48.5276C124.236 48.5276 123.84 48.4022 123.485 48.1723C123.13 47.9424 122.838 47.629 122.629 47.211C122.42 46.793 122.316 46.3332 122.316 45.8108C122.316 45.2883 122.42 44.8285 122.65 44.4106C122.858 44.0135 123.172 43.7 123.547 43.4701C123.923 43.2402 124.362 43.1357 124.842 43.1357C125.197 43.1357 125.51 43.2193 125.802 43.3656C126.073 43.5328 126.303 43.7 126.449 43.909V43.2193H127.472V43.2402ZM124.904 47.5663C125.218 47.5663 125.489 47.4827 125.739 47.3364C125.969 47.1901 126.157 46.9811 126.282 46.7094C126.407 46.4377 126.47 46.1451 126.47 45.8108C126.47 45.4764 126.407 45.1838 126.282 44.933C126.157 44.6613 125.969 44.4524 125.739 44.3061C125.51 44.1598 125.218 44.0762 124.904 44.0762C124.612 44.0762 124.341 44.1598 124.09 44.3061C123.861 44.4524 123.673 44.6613 123.547 44.933C123.422 45.2047 123.36 45.4973 123.36 45.8317C123.36 46.166 123.422 46.4586 123.547 46.7303C123.673 47.002 123.861 47.211 124.09 47.3573C124.341 47.5036 124.612 47.5663 124.904 47.5663Z" fill="#4A5568"/>
<path d="M128.892 48.4225V41.1289H129.915V45.5594L132.253 43.2397H133.631L131.209 45.5176L133.694 48.4225H132.399L130.479 46.1864L129.915 46.7297V48.4225H128.892Z" fill="#4A5568"/>
<path d="M135.176 42.1113C134.946 42.1113 134.779 42.0486 134.654 41.9441C134.549 41.8188 134.487 41.6725 134.487 41.4844C134.487 41.3172 134.549 41.1709 134.654 41.0455C134.758 40.9201 134.946 40.8574 135.176 40.8574C135.405 40.8574 135.572 40.9201 135.698 41.0455C135.802 41.1709 135.865 41.3172 135.865 41.5053C135.865 41.6725 135.802 41.8188 135.698 41.9441C135.572 42.0486 135.405 42.1113 135.176 42.1113ZM135.698 48.4227H134.675V43.2399H135.698V48.4227Z" fill="#4A5568"/>
<path d="M139.936 43.1357C140.395 43.1357 140.771 43.2402 141.021 43.4283C141.272 43.6164 141.46 43.8672 141.564 44.2016C141.669 44.5151 141.71 44.8912 141.71 45.2674V48.4231H140.708V45.3301C140.708 45.0793 140.667 44.8494 140.604 44.6613C140.541 44.4733 140.416 44.3061 140.27 44.2016C140.103 44.0971 139.894 44.0344 139.602 44.0553C139.33 44.0553 139.101 44.118 138.892 44.2225C138.683 44.327 138.537 44.4733 138.412 44.6613C138.287 44.8494 138.245 45.0584 138.245 45.2674V48.4022H137.222V43.2193H138.245V44.0344C138.412 43.7836 138.642 43.5746 138.934 43.3865C139.247 43.2193 139.581 43.1357 139.936 43.1357Z" fill="#4A5568"/>
<path d="M143.798 49.2792C143.986 49.4255 144.236 49.5509 144.529 49.6344C144.821 49.718 145.113 49.7807 145.405 49.7807C145.927 49.7807 146.345 49.6553 146.637 49.3837C146.929 49.1329 147.055 48.7358 147.055 48.2133V47.5864C146.971 47.7536 146.825 47.8999 146.658 48.0252C146.491 48.1715 146.282 48.276 146.053 48.3805C145.823 48.4641 145.593 48.5059 145.343 48.5059C144.863 48.5059 144.424 48.3805 144.048 48.1506C143.652 47.9208 143.36 47.6073 143.13 47.1893C142.9 46.7713 142.796 46.3116 142.796 45.7891C142.796 45.2666 142.9 44.8069 143.13 44.3889C143.36 43.9918 143.652 43.6574 144.048 43.4275C144.424 43.1977 144.863 43.0723 145.343 43.0723C145.739 43.0723 146.094 43.1559 146.387 43.3439C146.7 43.5111 146.929 43.6992 147.076 43.9082V43.1977H148.099V48.067C148.099 48.694 147.973 49.1747 147.723 49.5717C147.472 49.9479 147.159 50.2196 146.742 50.4077C146.345 50.5749 145.906 50.6794 145.426 50.6794C145.051 50.6794 144.696 50.6167 144.32 50.5122C143.965 50.3868 143.652 50.2405 143.443 50.0733L143.798 49.2792ZM145.447 44.0545C145.134 44.0545 144.842 44.1381 144.612 44.2844C144.362 44.4307 144.174 44.6397 144.028 44.9113C143.881 45.183 143.819 45.4756 143.819 45.81C143.819 46.1444 143.881 46.4369 144.028 46.7086C144.174 46.9803 144.362 47.1893 144.612 47.3356C144.863 47.4819 145.134 47.5655 145.447 47.5655C145.781 47.5655 146.053 47.4819 146.303 47.3356C146.554 47.1893 146.742 46.9803 146.888 46.7086C147.034 46.4369 147.096 46.1444 147.096 45.81C147.096 45.4756 147.034 45.1621 146.888 44.9113C146.742 44.6397 146.554 44.4307 146.303 44.2844C146.074 44.1381 145.781 44.0545 145.447 44.0545Z" fill="#4A5568"/>
<path d="M152.9 45.8102C152.9 46.1446 152.984 46.458 153.13 46.7297C153.276 47.0014 153.485 47.2104 153.735 47.3567C153.986 47.503 154.257 47.5866 154.549 47.5866C154.883 47.5866 155.155 47.503 155.405 47.3358C155.656 47.1686 155.844 46.9805 155.99 46.7924L156.554 47.4821C156.428 47.6702 156.261 47.8165 156.032 47.9836C155.823 48.1299 155.572 48.2553 155.301 48.3598C155.03 48.4643 154.737 48.5061 154.424 48.5061C153.944 48.5061 153.526 48.3807 153.151 48.1508C152.775 47.9209 152.462 47.5866 152.253 47.1895C152.023 46.7715 151.919 46.3326 151.919 45.8102C151.919 45.2877 152.023 44.8279 152.253 44.4309C152.483 44.0338 152.775 43.6994 153.151 43.4695C153.526 43.2396 153.965 43.1143 154.424 43.1143C154.904 43.1143 155.322 43.2187 155.698 43.4068C156.073 43.5949 156.345 43.8457 156.533 44.1592L155.969 44.8488C155.823 44.619 155.593 44.4309 155.322 44.2637C155.05 44.0965 154.779 44.0129 154.508 44.0129C154.194 44.0129 153.923 44.0965 153.673 44.2428C153.422 44.3891 153.234 44.5981 153.088 44.8697C152.984 45.1623 152.9 45.4758 152.9 45.8102Z" fill="#4A5568"/>
<path d="M157.514 48.4225V41.1289H158.537V48.4225H157.514Z" fill="#4A5568"/>
<path d="M163.463 46.3541V43.2402H164.486V48.4231H163.463V47.5871C163.317 47.8379 163.088 48.0469 162.795 48.235C162.503 48.4231 162.148 48.5067 161.752 48.5067C161.209 48.5067 160.77 48.3186 160.436 47.9633C160.102 47.5872 159.935 47.0856 159.935 46.4377V43.2402H160.958V46.166C160.958 46.4377 161 46.6676 161.084 46.8975C161.167 47.1274 161.292 47.2946 161.48 47.4409C161.668 47.5663 161.898 47.6498 162.169 47.6498C162.524 47.6498 162.837 47.5454 163.088 47.3155C163.338 47.0647 163.463 46.7512 163.463 46.3541Z" fill="#4A5568"/>
<path d="M168.599 43.1352C169.058 43.1352 169.476 43.2397 169.831 43.4696C170.186 43.6994 170.478 44.0129 170.687 44.41C170.895 44.8071 171 45.2877 171 45.8102C171 46.3327 170.895 46.8133 170.687 47.2104C170.478 47.6284 170.186 47.9419 169.831 48.1717C169.476 48.4016 169.058 48.527 168.62 48.527C168.244 48.527 167.91 48.4434 167.618 48.2762C167.325 48.1091 167.075 47.9419 166.908 47.7329V48.4016H165.885V41.1289H166.908V43.992C167.054 43.783 167.284 43.574 167.597 43.4069C167.889 43.2188 168.223 43.1352 168.599 43.1352ZM168.453 44.0547C168.14 44.0547 167.868 44.1383 167.639 44.2846C167.409 44.4309 167.221 44.6399 167.075 44.9116C166.95 45.1832 166.866 45.4758 166.866 45.8102C166.866 46.1446 166.929 46.4372 167.075 46.7088C167.221 46.9805 167.388 47.1895 167.639 47.3358C167.868 47.503 168.161 47.5657 168.453 47.5657C168.745 47.5657 169.037 47.4821 169.267 47.3358C169.497 47.1686 169.685 46.9596 169.831 46.7088C169.956 46.4372 170.039 46.1446 170.039 45.8102C170.039 45.4758 169.977 45.1832 169.831 44.9116C169.705 44.6399 169.518 44.4309 169.267 44.2846C169.037 44.1383 168.766 44.0547 168.453 44.0547Z" fill="#4A5568"/>
<path d="M69.4146 10.9098C69.4146 10.5754 69.6859 10.3037 70.02 10.3037H81.7109C84.0282 10.3037 85.7819 10.868 86.9927 12.0174C88.2035 13.1668 88.809 14.8178 88.809 16.9495C88.809 18.1825 88.5793 19.2483 88.12 20.147C87.8278 20.7321 87.452 21.2337 86.9927 21.6517C86.7004 21.9234 86.7422 22.4249 87.0971 22.613C87.8069 23.0101 88.3706 23.4908 88.7672 24.0759C89.3309 24.891 89.6232 26.0404 89.6232 27.5033C89.6232 29.8231 88.976 31.5995 87.6816 32.8116C86.3873 34.0237 84.5084 34.6507 82.0867 34.6507H70.0409C69.7068 34.6507 69.4354 34.379 69.4354 34.0446V10.9098H69.4146ZM79.9781 20.2097C81.8988 20.2097 82.8591 19.311 82.8591 17.4929C82.8591 16.5315 82.6086 15.821 82.1284 15.3821C81.6483 14.9223 80.8341 14.6924 79.665 14.6924H75.8237C75.4897 14.6924 75.2183 14.9641 75.2183 15.2985V19.6245C75.2183 19.9589 75.4897 20.2306 75.8237 20.2306H79.9781V20.2097ZM80.5418 30.3037C81.6274 30.3037 82.4207 30.0739 82.9218 29.6141C83.4228 29.1543 83.6733 28.3393 83.6733 27.2107C83.6733 26.2494 83.4228 25.5388 82.9009 25.1C82.379 24.6402 81.523 24.4103 80.3122 24.4103H75.8237C75.4897 24.4103 75.2183 24.682 75.2183 25.0164V29.7186C75.2183 30.053 75.4897 30.3246 75.8237 30.3246H80.5418V30.3037Z" fill="#1A202C"/>
<path d="M93.6102 21.2335H92.3576C92.0027 21.2335 91.7313 20.92 91.773 20.5648L92.1488 17.2628C92.1906 16.9702 92.4411 16.7403 92.7334 16.7403H99.4347C99.7687 16.7403 100.04 17.012 100.04 17.3464V34.0653C100.04 34.3997 99.7687 34.6714 99.4347 34.6714H94.821C94.487 34.6714 94.2156 34.3997 94.2156 34.0653V21.8396C94.2156 21.5052 93.9442 21.2335 93.6102 21.2335ZM94.3408 9.32129H99.4765C99.8105 9.32129 100.082 9.59297 100.082 9.92735V13.3129C100.082 13.6473 99.8105 13.919 99.4765 13.919H94.3408C94.0068 13.919 93.7354 13.6473 93.7354 13.3129V9.92735C93.7354 9.59297 94.0068 9.32129 94.3408 9.32129Z" fill="#1A202C"/>
<path d="M106.157 33.3548C105.134 32.2471 104.612 30.6797 104.612 28.6317V21.9441C104.612 21.6097 104.341 21.338 104.007 21.338H102.901C102.567 21.338 102.295 21.0664 102.295 20.732V17.3255C102.295 16.9911 102.567 16.7194 102.901 16.7194H104.007C104.341 16.7194 104.612 16.4478 104.612 16.1134V13.4384C104.612 13.1667 104.8 12.9368 105.051 12.8532L109.665 11.5575C110.04 11.453 110.416 11.7456 110.416 12.1426V16.1134C110.416 16.4478 110.687 16.7194 111.022 16.7194H113.944C114.278 16.7194 114.571 17.012 114.55 17.3464L114.362 20.7529C114.341 21.0664 114.09 21.3171 113.756 21.3171H111.022C110.687 21.3171 110.416 21.5888 110.416 21.9232V28.1928C110.416 29.0496 110.604 29.6557 111.001 29.9901C111.376 30.3245 112.003 30.4916 112.88 30.4916C113.339 30.4916 113.819 30.4289 114.278 30.3245C114.654 30.2409 115.009 30.5125 115.009 30.9096V33.8354C115.009 34.0862 114.863 34.3161 114.612 34.3997C113.548 34.7968 112.274 35.0057 110.771 35.0057C108.725 35.0266 107.18 34.4624 106.157 33.3548Z" fill="#1A202C"/>
<path d="M117.869 33.2297C116.742 32.0384 116.199 30.2829 116.199 28.005V17.3467C116.199 17.0123 116.47 16.7406 116.804 16.7406H121.418C121.752 16.7406 122.024 17.0123 122.024 17.3467V27.6706C122.024 28.6737 122.253 29.4052 122.712 29.8859C123.172 30.3456 123.882 30.5755 124.842 30.5755C125.51 30.5755 126.157 30.4292 126.783 30.1367C127.326 29.8859 127.806 29.5515 128.203 29.1544C128.307 29.0499 128.37 28.9036 128.37 28.7364V17.3258C128.37 16.9914 128.641 16.7197 128.975 16.7197H133.589C133.923 16.7197 134.195 16.9914 134.195 17.3258V34.0447C134.195 34.3791 133.923 34.6508 133.589 34.6508H129.289C128.975 34.6508 128.725 34.4209 128.704 34.1283C128.662 33.6894 128.161 33.4595 127.806 33.6894C126.345 34.5881 124.612 35.0269 122.629 35.0269C120.562 35.0269 118.976 34.4209 117.869 33.2297Z" fill="#1A202C"/>
<path d="M29.3944 59.9791C24.217 60.1254 13.4865 59.5193 9.54079 57.1578C9.10238 56.9488 8.68485 56.6771 8.26732 56.4263C4.88531 54.2947 2.69327 51.2853 1.73295 47.3772C0.668246 43.0721 0.188085 38.7043 0.0419493 34.2738C-0.229446 25.3709 0.772629 18.8506 1.89996 15.8203C3.54921 11.4316 6.43018 8.31766 10.5429 6.26959C11.6702 5.70533 12.8393 5.26646 14.0293 4.84848C26.9936 0.355277 46.722 0.0835946 49.8326 0C50.2084 0 50.5633 0 50.939 0.0208986C51.2731 0.0417973 51.628 0.0417973 51.9411 0.125392C51.8367 0.188088 51.7115 0.208986 51.6071 0.271682C51.4609 0.355277 51.2939 0.438871 51.1478 0.543365C51.0225 0.626959 50.939 0.752351 50.8138 0.856844C50.5424 1.04493 50.1875 1.10763 49.8743 1.25392C47.4318 2.36155 45.0518 3.57367 43.0686 5.41275C41.6907 6.66667 41.6907 7.37722 43.0477 8.65204C44.0498 9.57158 45.0936 10.5329 46.3462 11.0554C49.8743 12.5183 51.7741 15.5486 53.6112 18.558C55.8033 22.1317 56.4296 26.186 56.534 30.3448C56.6175 33.8349 56.5966 37.3668 55.9912 40.7732C56.1999 45.2874 53.7991 52.79 48.0372 56.698C43.4652 59.7492 36.576 59.791 29.3944 59.9791Z" fill="#FF6D03"/>
<path d="M51.3147 1.54702C50.9806 1.8396 50.584 2.04858 50.2291 2.29937C49.6863 2.71734 49.2688 3.19801 48.8512 3.74137C48.4128 4.30564 48.1832 5.07889 48.3084 5.78944C48.4546 6.64629 49.0809 7.14785 49.7489 7.60762C50.0412 7.79571 50.25 8.0047 50.5631 8.17189C51.2729 8.54806 51.8157 9.11232 52.4002 9.65569C54.0912 11.2649 55.2186 13.2503 56.0328 15.4028C57.2645 18.6839 57.9743 22.0904 58.0369 25.6014C58.1204 29.6975 58.1622 33.7727 57.8908 37.848C57.6611 41.3798 57.1392 44.8908 56.0536 48.2764C55.5526 49.8438 54.801 51.4948 53.8198 53.0204C51.8992 56.0507 48.7677 58.0987 45.2396 58.7257C42.9014 59.1437 36.722 59.6661 36.3879 59.6661C38.7052 58.7675 41.4609 57.7226 43.6738 56.6776C45.4484 55.8417 47.0767 54.6923 48.4755 53.313C49.9159 51.8918 51.3564 50.4916 52.3794 48.7361C53.7572 46.3955 54.9472 43.9713 55.4065 41.2335C55.5735 40.2095 55.991 35.361 55.991 34.943C55.991 32.9786 56.1163 31.0141 55.9701 29.0496C55.7405 25.9148 55.2394 22.8218 53.8407 19.9378C53.3397 18.8929 52.9848 17.8689 52.3167 16.8866C51.6278 15.9044 50.8345 15.0057 49.9786 14.1489C48.9347 13.104 47.6404 12.5188 46.4713 11.662C45.6571 11.0768 44.7177 10.7424 43.9035 10.1364C42.3795 9.00783 40.8973 6.68808 42.6718 5.05799C43.8617 3.97126 45.177 3.00992 46.6383 2.27847C47.4734 1.8605 48.2876 1.40073 49.1435 1.02455C49.5402 0.836463 49.9786 0.731969 50.3752 0.543882C50.6049 0.439389 50.8554 0.334895 51.085 0.230402C51.2312 0.167706 51.3982 0.0841116 51.5652 0.0423143C51.7322 0.000517037 51.941 0.0214157 52.1288 0.063213C53.0683 0.439389 51.5652 1.33803 51.3147 1.54702Z" fill="#F54D05"/>
<path d="M28.5178 55.4227C26.2214 55.6108 23.9876 55.4227 21.7747 55.1092C17.9752 54.5868 14.5305 53.103 11.6913 50.4488C9.95858 48.8187 8.76862 46.7916 7.95443 44.5554C6.84797 41.5251 6.26343 38.3694 6.26343 35.1092C6.26343 32.2043 6.45132 29.3412 6.95235 26.4781C7.64128 22.57 9.4993 19.3307 12.5264 16.7811C13.1944 16.2168 13.8207 15.6108 14.5097 15.0883C16.2633 13.7717 18.1839 12.7686 20.3134 12.1416C22.6724 11.452 25.0732 10.825 27.5158 10.7832C30.0001 10.7414 32.5262 10.7832 34.9896 11.3893C35.7203 11.5773 36.4718 11.7445 37.2025 11.9326C40.6263 12.7477 43.4863 14.5867 46.0959 16.9065C49.5406 19.9577 51.3359 23.7822 51.8578 28.2963C52.0666 30.1353 52.2545 31.9953 52.2963 33.8344C52.4006 37.9514 51.7952 42.0058 50.0833 45.8093C47.8495 50.7623 43.8412 53.5209 38.7056 54.7958C37.7662 55.0257 36.7641 55.1092 35.7829 55.1719C33.3612 55.2764 30.9187 55.6526 28.5178 55.4227Z" fill="white"/>
<path d="M30.4592 32.1632C30.8559 30.2614 31.6909 28.7149 33.027 27.4192C36.9518 23.6157 44.3422 24.9323 46.0749 30.972C47.3484 35.4861 44.5509 39.2687 40.6679 40.4391C36.2629 41.7766 31.7745 39.206 30.6262 34.7546C30.5636 34.5456 30.5636 34.3158 30.5219 34.1068C30.3966 33.6052 30.334 33.5216 29.7077 33.5634C29.2066 33.5843 28.5595 33.3126 28.3507 34.1068C28.3089 34.274 28.2881 34.4203 28.2463 34.5874C27.4739 37.7431 25.5115 39.7912 22.38 40.5644C16.3675 42.0483 11.8791 37.0117 12.5471 32.205C13.0273 28.7358 16.284 25.4547 20.1671 25.3503C23.3821 25.2458 27.2234 27.2729 28.1628 31.2855C28.3925 32.2677 28.6012 32.3304 29.478 32.2468C29.7703 32.205 30.0417 32.205 30.4592 32.1632Z" fill="#0F477D"/>
<path d="M29.4986 44.2629C28.413 44.2211 27.2022 43.9494 26.0539 43.4061C25.365 43.0717 24.7178 42.6537 24.4047 41.9014C24.3003 41.6506 24.3003 41.358 24.5508 41.1699C24.8014 40.9819 25.0727 41.0028 25.3024 41.2117C27.5571 43.427 30.1666 43.218 32.8806 42.3611C33.3399 42.2149 33.7365 41.9014 34.0914 41.5461C34.2793 41.358 34.5089 41.1908 34.7386 41.0864C34.8638 41.0237 35.0726 41.0864 35.1979 41.149C35.3858 41.2535 35.4901 41.4625 35.4484 41.7133C35.4066 42.1313 35.1352 42.4238 34.843 42.6537C34.1749 43.1971 33.4442 43.6986 32.5674 43.9076C31.628 44.0957 30.6677 44.242 29.4986 44.2629Z" fill="#0F477D"/>
<path d="M20.4381 39.477C17.1396 39.3934 14.6135 37.3245 13.9664 34.1897C13.5697 32.2461 14.0499 30.4488 15.3442 29.0068C17.8703 26.1437 22.5884 25.6839 25.4694 28.8605C28.3503 32.0371 27.2647 36.9065 23.4861 38.7874C22.5049 39.2889 21.4402 39.5397 20.4381 39.477Z" fill="white"/>
<path d="M38.4129 39.4356C33.7992 39.4147 30.6677 35.0677 32.1708 30.8462C32.985 28.5892 34.6969 27.3561 36.9307 26.8128C40.0622 26.0395 43.3816 27.7323 44.5507 30.679C45.8033 33.8138 44.3837 37.3666 41.3357 38.8086C40.4171 39.2266 39.415 39.4982 38.4129 39.4356Z" fill="white"/>
</g>
<defs>
<clipPath id="clip0_730_4543">
<rect width="171" height="60" fill="white"/>
</clipPath>
</defs>
</svg>
