<svg width="201" height="71" viewBox="0 0 201 71" fill="none" xmlns="http://www.w3.org/2000/svg">
<g clip-path="url(#clip0_1833_31426)">
<path d="M83.8125 16.0595C83.8125 15.4814 84.2786 15.0117 84.8522 15.0117H104.928C108.908 15.0117 111.919 15.9872 113.998 17.9743C116.078 19.9614 117.117 22.8156 117.117 26.5008C117.117 28.6324 116.723 30.475 115.934 32.0286C115.432 33.0402 114.787 33.9073 113.998 34.6299C113.497 35.0996 113.568 35.9667 114.178 36.2918C115.397 36.9783 116.365 37.8092 117.046 38.8209C118.014 40.2299 118.516 42.217 118.516 44.7461C118.516 48.7564 117.404 51.8274 115.181 53.9229C112.959 56.0184 109.732 57.1022 105.574 57.1022H84.888C84.3144 57.1022 83.8484 56.6326 83.8484 56.0545V16.0595H83.8125ZM101.953 32.137C105.251 32.137 106.9 30.5834 106.9 27.4402C106.9 25.7782 106.47 24.5498 105.645 23.7911C104.821 22.9963 103.423 22.5989 101.415 22.5989H94.8185C94.2449 22.5989 93.7789 23.0685 93.7789 23.6466V31.1253C93.7789 31.7034 94.2449 32.1731 94.8185 32.1731H101.953V32.137ZM102.921 49.5874C104.785 49.5874 106.147 49.1899 107.008 48.3951C107.868 47.6003 108.298 46.1912 108.298 44.2402C108.298 42.5783 107.868 41.3499 106.972 40.5912C106.076 39.7964 104.606 39.3989 102.526 39.3989H94.8185C94.2449 39.3989 93.7789 39.8686 93.7789 40.4467V48.5757C93.7789 49.1538 94.2449 49.6235 94.8185 49.6235H102.921V49.5874Z" fill="#1A202C"/>
<path d="M125.363 33.9061H123.212C122.603 33.9061 122.137 33.3642 122.208 32.75L122.854 27.0416C122.925 26.5358 123.356 26.1384 123.858 26.1384H135.366C135.939 26.1384 136.405 26.608 136.405 27.1861V56.0895C136.405 56.6675 135.939 57.1372 135.366 57.1372H127.443C126.869 57.1372 126.403 56.6675 126.403 56.0895V34.9539C126.403 34.3758 125.937 33.9061 125.363 33.9061ZM126.618 13.3125H135.437C136.011 13.3125 136.477 13.7822 136.477 14.3602V20.2132C136.477 20.7912 136.011 21.2609 135.437 21.2609H126.618C126.044 21.2609 125.578 20.7912 125.578 20.2132V14.3602C125.578 13.7822 126.044 13.3125 126.618 13.3125Z" fill="#1A202C"/>
<path d="M146.91 54.8613C145.153 52.9464 144.257 50.2367 144.257 46.6961V35.1347C144.257 34.5566 143.791 34.087 143.217 34.087H141.317C140.743 34.087 140.277 33.6173 140.277 33.0392V27.1502C140.277 26.5721 140.743 26.1024 141.317 26.1024H143.217C143.791 26.1024 144.257 25.6327 144.257 25.0547V20.4301C144.257 19.9605 144.579 19.563 145.01 19.4185L152.933 17.1785C153.578 16.9979 154.223 17.5037 154.223 18.1901V25.0547C154.223 25.6327 154.689 26.1024 155.263 26.1024H160.282C160.855 26.1024 161.357 26.6082 161.321 27.1863L160.999 33.0754C160.963 33.6173 160.533 34.0508 159.959 34.0508H155.263C154.689 34.0508 154.223 34.5205 154.223 35.0986V45.9373C154.223 47.4186 154.546 48.4664 155.227 49.0445C155.872 49.6225 156.948 49.9116 158.453 49.9116C159.242 49.9116 160.067 49.8032 160.855 49.6225C161.501 49.478 162.11 49.9477 162.11 50.6341V55.6922C162.11 56.1258 161.859 56.5232 161.429 56.6677C159.601 57.3542 157.414 57.7155 154.833 57.7155C151.319 57.7516 148.666 56.7761 146.91 54.8613Z" fill="#1A202C"/>
<path d="M167.02 54.6446C165.084 52.5852 164.152 49.5504 164.152 45.6123V27.1864C164.152 26.6083 164.618 26.1387 165.192 26.1387H173.115C173.688 26.1387 174.155 26.6083 174.155 27.1864V45.0342C174.155 46.7684 174.549 48.033 175.338 48.8639C176.126 49.6588 177.345 50.0562 178.994 50.0562C180.142 50.0562 181.253 49.8033 182.328 49.2975C183.26 48.8639 184.085 48.2859 184.766 47.5994C184.945 47.4188 185.053 47.1659 185.053 46.8768V27.1503C185.053 26.5722 185.519 26.1025 186.093 26.1025H194.016C194.589 26.1025 195.055 26.5722 195.055 27.1503V56.0536C195.055 56.6317 194.589 57.1014 194.016 57.1014H186.63C186.093 57.1014 185.662 56.704 185.627 56.1982C185.555 55.4394 184.694 55.042 184.085 55.4394C181.576 56.993 178.6 57.7517 175.194 57.7517C171.645 57.7517 168.92 56.704 167.02 54.6446Z" fill="#1A202C"/>
<path d="M34.5489 70.9753C28.4632 71.1484 15.8501 70.4312 11.2122 67.6367C10.6969 67.3894 10.2061 67.0679 9.71531 66.7711C5.73997 64.2487 3.16336 60.6876 2.03456 56.063C0.783067 50.9686 0.218667 45.8001 0.0468931 40.5573C-0.272116 30.0223 0.905763 22.3065 2.23088 18.7206C4.16947 13.5273 7.55587 9.84256 12.3901 7.41902C13.7152 6.7513 15.0894 6.23197 16.4881 5.73737C31.7269 0.420411 54.9164 0.0989202 58.5727 0C59.0144 0 59.4316 0 59.8733 0.0247301C60.2659 0.0494601 60.6831 0.0494601 61.0512 0.14838C60.9285 0.22257 60.7812 0.247301 60.6585 0.321491C60.4868 0.420411 60.2905 0.519331 60.1187 0.642981C59.9714 0.741902 59.8733 0.890282 59.7261 1.01393C59.407 1.2365 58.9899 1.31069 58.6218 1.4838C55.7507 2.7945 52.9533 4.22884 50.622 6.40508C49.0025 7.88889 49.0025 8.72971 50.5975 10.2382C51.7754 11.3264 53.0023 12.4639 54.4747 13.0822C58.6218 14.8133 60.8549 18.3992 63.0143 21.9603C65.5909 26.1891 66.3271 30.9868 66.4498 35.908C66.5479 40.038 66.5234 44.2173 65.8118 48.2483C66.0572 53.59 63.2352 62.4681 56.4624 67.0926C51.0883 70.7032 42.9904 70.7527 34.5489 70.9753Z" fill="#FF6D03"/>
<path d="M60.3189 1.82901C59.9263 2.17523 59.46 2.42253 59.0429 2.71929C58.4049 3.21389 57.9141 3.78268 57.4233 4.42566C56.908 5.09338 56.638 6.00839 56.7853 6.84921C56.9571 7.86314 57.6932 8.45666 58.4785 9.00072C58.822 9.22329 59.0674 9.47059 59.4355 9.66843C60.2698 10.1136 60.9079 10.7813 61.5949 11.4243C63.5826 13.3285 64.9077 15.6778 65.8648 18.225C67.3126 22.1077 68.1469 26.1387 68.2205 30.2933C68.3187 35.1404 68.3677 39.9627 68.0487 44.7851C67.7788 48.9645 67.1653 53.1191 65.8893 57.1254C65.3004 58.9802 64.4169 60.9338 63.2636 62.7391C61.006 66.325 57.3251 68.7485 53.178 69.4904C50.4296 69.985 43.1661 70.6033 42.7734 70.6033C45.4973 69.5399 48.7364 68.3034 51.3376 67.0669C53.4234 66.0777 55.3375 64.7175 56.9816 63.0853C58.6748 61.4037 60.368 59.7468 61.5704 57.6695C63.19 54.8997 64.5887 52.031 65.1286 48.7914C65.3249 47.5796 65.8157 41.8422 65.8157 41.3476C65.8157 39.023 65.9629 36.6984 65.7911 34.3738C65.5212 30.6642 64.9323 27.0042 63.2881 23.5915C62.6992 22.355 62.282 21.1432 61.4968 19.9809C60.687 18.8186 59.7545 17.7552 58.7484 16.7412C57.5215 15.5047 56 14.8123 54.6258 13.7984C53.6688 13.1059 52.5645 12.7102 51.6075 11.9931C49.8162 10.6576 48.0739 7.9126 50.1597 5.98366C51.5584 4.69769 53.1044 3.56011 54.8221 2.69456C55.8037 2.19996 56.7607 1.6559 57.7668 1.21076C58.2331 0.988186 58.7484 0.864536 59.2147 0.641966C59.4846 0.518315 59.7791 0.394665 60.049 0.271015C60.2208 0.196825 60.4171 0.0979044 60.6134 0.0484443C60.8097 -0.00101577 61.0551 0.0237143 61.2759 0.0731744C62.3802 0.518315 60.6134 1.58171 60.3189 1.82901Z" fill="#F54D05"/>
<path d="M33.522 65.5843C30.8227 65.8069 28.197 65.5843 25.5959 65.2134C21.1297 64.5951 17.0808 62.8393 13.7435 59.6986C11.7067 57.7696 10.308 55.3708 9.35095 52.7247C8.05038 49.1388 7.36328 45.4046 7.36328 41.5467C7.36328 38.1092 7.58413 34.7212 8.17307 31.3332C8.98286 26.7087 11.1668 22.8755 14.725 19.8585C15.5103 19.1907 16.2464 18.4736 17.0562 17.8553C19.1175 16.2973 21.3751 15.1103 23.8781 14.3684C26.651 13.5523 29.473 12.8104 32.3441 12.7609C35.2643 12.7115 38.2335 12.7609 41.1291 13.4781C41.988 13.7007 42.8714 13.8985 43.7303 14.1211C47.7547 15.0856 51.1166 17.2618 54.1839 20.0068C58.2329 23.6174 60.3433 28.143 60.9567 33.4847C61.2021 35.661 61.423 37.8619 61.4721 40.0382C61.5948 44.91 60.8831 49.7076 58.8709 54.2085C56.2452 60.0695 51.5337 63.3339 45.4971 64.8424C44.3928 65.1145 43.215 65.2134 42.0616 65.2876C39.2151 65.4112 36.344 65.8564 33.522 65.5843Z" fill="white"/>
<path d="M35.8039 38.06C36.2702 35.8096 37.2518 33.9796 38.8223 32.4463C43.4356 27.9454 52.1225 29.5034 54.1592 36.6504C55.6561 41.9921 52.3679 46.4682 47.8036 47.8531C42.6258 49.4358 37.3499 46.3941 36.0003 41.1266C35.9266 40.8793 35.9266 40.6072 35.8776 40.3599C35.7303 39.7664 35.6567 39.6675 34.9205 39.7169C34.3316 39.7417 33.5709 39.4202 33.3255 40.3599C33.2764 40.5578 33.2519 40.7309 33.2028 40.9287C32.2949 44.6629 29.9882 47.0865 26.3073 48.0015C19.24 49.7573 13.9641 43.7974 14.7494 38.1095C15.3138 34.0043 19.1419 30.1217 23.7062 29.998C27.4852 29.8744 32.0004 32.2732 33.1046 37.0214C33.3746 38.1837 33.62 38.2579 34.6506 38.1589C34.9942 38.1095 35.3132 38.1095 35.8039 38.06Z" fill="#1A202C"/>
<path d="M34.6743 52.378C33.3983 52.3286 31.975 52.0071 30.6253 51.3641C29.8156 50.9684 29.0548 50.4738 28.6868 49.5835C28.5641 49.2868 28.5641 48.9406 28.8585 48.718C29.153 48.4954 29.472 48.5202 29.7419 48.7675C32.3922 51.3888 35.4596 51.1415 38.6496 50.1276C39.1895 49.9545 39.6557 49.5835 40.0729 49.1631C40.2938 48.9406 40.5637 48.7427 40.8336 48.6191C40.9809 48.5449 41.2263 48.6191 41.3735 48.6933C41.5943 48.8169 41.717 49.0642 41.668 49.361C41.6189 49.8556 41.2999 50.2018 40.9563 50.4738C40.1711 51.1168 39.3122 51.7103 38.2816 51.9576C37.1773 52.1802 36.0485 52.3533 34.6743 52.378Z" fill="#1A202C"/>
<path d="M24.024 46.7149C20.1468 46.616 17.1776 44.1677 16.4169 40.4582C15.9506 38.1583 16.515 36.0315 18.0364 34.3252C21.0057 30.9371 26.5515 30.3931 29.9379 34.152C33.3243 37.911 32.0483 43.6731 27.6067 45.8988C26.4534 46.4923 25.2019 46.7891 24.024 46.7149Z" fill="white"/>
<path d="M45.1514 46.6668C39.7283 46.6421 36.0474 41.4982 37.8142 36.5027C38.7713 33.8319 40.7835 32.3728 43.4091 31.7298C47.09 30.8148 50.9917 32.818 52.3659 36.3049C53.8383 40.0144 52.1696 44.2185 48.5869 45.9249C47.5072 46.4195 46.3293 46.741 45.1514 46.6668Z" fill="white"/>
</g>
<defs>
<clipPath id="clip0_1833_31426">
<rect width="201" height="71" fill="white"/>
</clipPath>
</defs>
</svg>
