<svg width="70" height="72" viewBox="0 0 70 72" fill="none" xmlns="http://www.w3.org/2000/svg">
<path d="M35.4667 71.9758C29.2538 72.1514 16.3769 71.4241 11.6421 68.5902C11.116 68.3394 10.6149 68.0134 10.1139 67.7124C6.05542 65.1544 3.42494 61.5431 2.27254 56.8534C0.994875 51.6872 0.418674 46.4457 0.243309 41.129C-0.0823701 30.4455 1.12014 22.621 2.47295 18.9846C4.45208 13.718 7.90928 9.98132 12.8446 7.52361C14.1974 6.84648 15.6003 6.31983 17.0283 5.81825C32.5857 0.426338 56.26 0.100315 59.9928 0C60.4438 0 60.8696 0 61.3206 0.0250787C61.7214 0.0501574 62.1473 0.0501574 62.5231 0.150472C62.3978 0.225708 62.2475 0.250787 62.1223 0.326023C61.9469 0.426338 61.7465 0.526652 61.5711 0.652046C61.4208 0.752361 61.3206 0.902833 61.1703 1.02823C60.8446 1.25393 60.4187 1.32917 60.0429 1.50472C57.1118 2.83389 54.2559 4.28846 51.8759 6.49538C50.2225 8.0001 50.2225 8.85278 51.8508 10.3826C53.0534 11.486 54.306 12.6397 55.8091 13.2666C60.0429 15.0221 62.3227 18.6585 64.5273 22.2699C67.1577 26.5583 67.9093 31.4236 68.0346 36.4142C68.1348 40.6024 68.1097 44.8407 67.3832 48.9285C67.6337 54.3455 64.7527 63.3488 57.8383 68.0385C52.3519 71.7 44.0847 71.7501 35.4667 71.9758Z" fill="#FF6D03"/>
<path d="M61.7707 1.85644C61.3699 2.20754 60.8939 2.45833 60.468 2.75928C59.8166 3.26085 59.3156 3.83766 58.8145 4.48971C58.2884 5.16683 58.0129 6.09474 58.1632 6.94742C58.3385 7.97564 59.0901 8.57753 59.8918 9.12926C60.2425 9.35497 60.493 9.60576 60.8688 9.80639C61.7206 10.2578 62.3719 10.9349 63.0734 11.587C65.1026 13.518 66.4554 15.9005 67.4325 18.4836C68.9106 22.421 69.7623 26.5088 69.8375 30.722C69.9377 35.6374 69.9878 40.5278 69.6621 45.4181C69.3865 49.6564 68.7602 53.8696 67.4575 57.9324C66.8563 59.8133 65.9544 61.7945 64.7769 63.6252C62.4721 67.2617 58.7143 69.7194 54.4805 70.4717C51.6747 70.9733 44.2592 71.6003 43.8584 71.6003C46.6392 70.5219 49.9461 69.268 52.6016 68.014C54.731 67.0109 56.6851 65.6315 58.3636 63.9764C60.0922 62.271 61.8208 60.5907 63.0483 58.4841C64.7018 55.6753 66.1298 52.7662 66.6809 49.4809C66.8813 48.252 67.3824 42.4338 67.3824 41.9322C67.3824 39.5748 67.5327 37.2174 67.3573 34.86C67.0817 31.0982 66.4805 27.3865 64.802 23.9257C64.2007 22.6718 63.7749 21.4429 62.9732 20.2642C62.1465 19.0855 61.1945 18.0071 60.1673 16.9789C58.9147 15.725 57.3615 15.0228 55.9586 13.9945C54.9816 13.2923 53.8542 12.8911 52.8772 12.1638C51.0484 10.8095 49.2697 8.0258 51.3991 6.06966C52.8271 4.76557 54.4054 3.61195 56.159 2.7342C57.1611 2.23262 58.1381 1.68089 59.1653 1.22948C59.6413 1.00377 60.1674 0.878374 60.6433 0.652666C60.9189 0.527273 61.2195 0.401879 61.4951 0.276486C61.6705 0.20125 61.8709 0.100935 62.0713 0.0507775C62.2717 0.000620155 62.5223 0.0256988 62.7477 0.0758562C63.8751 0.527273 62.0713 1.60566 61.7707 1.85644Z" fill="#F54D05"/>
<path d="M34.4146 66.5079C31.6589 66.7337 28.9783 66.5079 26.3228 66.1318C21.7633 65.5048 17.6297 63.7242 14.2226 60.5392C12.1432 58.5831 10.7152 56.1504 9.73821 53.467C8.41045 49.8306 7.70898 46.0437 7.70898 42.1314C7.70898 38.6455 7.93445 35.2097 8.53571 31.7739C9.36243 27.0842 11.5921 23.197 15.2246 20.1374C16.0263 19.4603 16.7779 18.733 17.6046 18.106C19.709 16.5261 22.0138 15.3223 24.5691 14.5699C27.4 13.7424 30.281 12.99 33.2121 12.9398C36.1933 12.8897 39.2246 12.9398 42.1808 13.6671C43.0576 13.8928 43.9595 14.0935 44.8363 14.3192C48.9449 15.2972 52.377 17.5042 55.5086 20.2879C59.6422 23.9494 61.7967 28.5388 62.423 33.9558C62.6735 36.1627 62.899 38.3947 62.9491 40.6016C63.0743 45.5421 62.3478 50.4074 60.2935 54.9717C57.613 60.9154 52.8029 64.2258 46.6401 65.7556C45.5127 66.0315 44.3102 66.1318 43.1328 66.207C40.2267 66.3324 37.2956 66.7838 34.4146 66.5079Z" fill="white"/>
<path d="M36.7448 38.5967C37.2208 36.3146 38.2229 34.4588 39.8262 32.9039C44.536 28.3396 53.4045 29.9195 55.4838 37.1672C57.012 42.5842 53.655 47.1235 48.9953 48.5279C43.7093 50.1329 38.3231 47.0482 36.9452 41.7065C36.8701 41.4557 36.8701 41.1798 36.82 40.929C36.6696 40.3272 36.5945 40.2268 35.8429 40.277C35.2417 40.3021 34.4651 39.9761 34.2145 40.929C34.1644 41.1297 34.1394 41.3052 34.0893 41.5059C33.1623 45.2927 30.8074 47.7504 27.0496 48.6784C19.8346 50.4589 14.4484 44.415 15.25 38.6469C15.8262 34.4838 19.7344 30.5465 24.3941 30.4211C28.2521 30.2957 32.8617 32.7283 33.9891 37.5434C34.2646 38.7221 34.5152 38.7974 35.5674 38.697C35.9181 38.6469 36.2438 38.6469 36.7448 38.5967Z" fill="#0F477D"/>
<path d="M35.5921 53.1163C34.2894 53.0661 32.8364 52.7401 31.4585 52.0881C30.6318 51.6868 29.8552 51.1853 29.4794 50.2825C29.3541 49.9815 29.3541 49.6304 29.6548 49.4047C29.9554 49.179 30.2811 49.2041 30.5566 49.4549C33.2623 52.1132 36.3938 51.8624 39.6506 50.8342C40.2017 50.6586 40.6777 50.2825 41.1036 49.8561C41.3291 49.6304 41.6046 49.4298 41.8802 49.3044C42.0305 49.2292 42.281 49.3044 42.4314 49.3796C42.6568 49.505 42.7821 49.7558 42.732 50.0568C42.6819 50.5583 42.3562 50.9094 42.0055 51.1853C41.2038 51.8373 40.327 52.4392 39.2748 52.69C38.1474 52.9157 36.995 53.0912 35.5921 53.1163Z" fill="#0F477D"/>
<path d="M24.7186 47.373C20.7604 47.2727 17.729 44.7899 16.9524 41.0281C16.4764 38.6958 17.0526 36.539 18.6059 34.8086C21.6372 31.3728 27.299 30.8211 30.7562 34.633C34.2134 38.445 32.9107 44.2883 28.3762 46.5454C27.1988 47.1473 25.9211 47.4482 24.7186 47.373Z" fill="white"/>
<path d="M46.2898 47.3229C40.7532 47.2978 36.9954 42.0814 38.7992 37.0155C39.7762 34.307 41.8305 32.8274 44.5111 32.1753C48.2689 31.2474 52.2522 33.2788 53.6551 36.8149C55.1583 40.5767 53.4547 44.8401 49.7971 46.5705C48.6948 47.0721 47.4923 47.3981 46.2898 47.3229Z" fill="white"/>
</svg>
