<?xml version="1.0" ?><!DOCTYPE svg  PUBLIC '-//W3C//DTD SVG 1.1//EN'  'http://www.w3.org/Graphics/SVG/1.1/DTD/svg11.dtd'><svg enable-background="new 0 0 64 64" id="Layer_1" version="1.1" viewBox="0 0 64 64" xml:space="preserve" xmlns="http://www.w3.org/2000/svg" xmlns:xlink="http://www.w3.org/1999/xlink"><circle cx="31" cy="32" fill="#3B97D3" r="21.5"/><polygon fill="#E64C3C" points="37.7,36.4 55,32 37.7,27.6 41,22 35.4,25.3 31,8 26.6,25.3 21,22 24.3,27.6 7,32 24.3,36.4 21,42   26.6,38.7 31,56 35.4,38.7 41,42 "/><path d="M31,57c-0.5,0-0.9-0.3-1-0.8l-4.1-16l-4.4,2.6c-0.4,0.2-0.9,0.2-1.2-0.2c-0.3-0.3-0.4-0.8-0.2-1.2l2.6-4.4  L6.8,33C6.3,32.9,6,32.5,6,32s0.3-0.9,0.8-1l16-4.1l-2.6-4.4c-0.2-0.4-0.2-0.9,0.2-1.2c0.3-0.3,0.8-0.4,1.2-0.2l4.4,2.6l4.1-16  C30.1,7.3,30.5,7,31,7s0.9,0.3,1,0.8l4.1,16l4.4-2.6c0.4-0.2,0.9-0.2,1.2,0.2c0.3,0.3,0.4,0.8,0.2,1.2l-2.6,4.4l16,4.1  c0.4,0.1,0.8,0.5,0.8,1s-0.3,0.9-0.8,1l-16,4.1l2.6,4.4c0.2,0.4,0.2,0.9-0.2,1.2c-0.3,0.3-0.8,0.4-1.2,0.2l-4.4-2.6l-4.1,16  C31.9,56.7,31.5,57,31,57z M26.6,37.7c0.1,0,0.3,0,0.4,0.1c0.3,0.1,0.5,0.4,0.6,0.7L31,52l3.5-13.5c0.1-0.3,0.3-0.6,0.6-0.7  c0.3-0.1,0.6-0.1,0.9,0.1l2.2,1.3l-1.3-2.2c-0.2-0.3-0.2-0.6-0.1-0.9c0.1-0.3,0.4-0.5,0.7-0.6L51,32l-13.5-3.5  c-0.3-0.1-0.6-0.3-0.7-0.6c-0.1-0.3-0.1-0.6,0.1-0.9l1.3-2.2l-2.2,1.3c-0.3,0.2-0.6,0.2-0.9,0.1c-0.3-0.1-0.5-0.4-0.6-0.7L31,12  l-3.5,13.5c-0.1,0.3-0.3,0.6-0.6,0.7c-0.3,0.1-0.6,0.1-0.9-0.1l-2.2-1.3l1.3,2.2c0.2,0.3,0.2,0.6,0.1,0.9c-0.1,0.3-0.4,0.5-0.7,0.6  L11,32l13.5,3.5c0.3,0.1,0.6,0.3,0.7,0.6c0.1,0.3,0.1,0.6-0.1,0.9l-1.3,2.2l2.2-1.3C26.2,37.8,26.4,37.7,26.6,37.7z" fill="#2C3E50"/><circle cx="31" cy="32" fill="#FFD766" r="4"/><path d="M31,37c-2.8,0-5-2.2-5-5s2.2-5,5-5s5,2.2,5,5S33.8,37,31,37z M31,29c-1.7,0-3,1.3-3,3s1.3,3,3,3s3-1.3,3-3  S32.7,29,31,29z" fill="#2C3E50"/><path d="M25.1,54.2c-0.1,0-0.2,0-0.3,0c-8.3-2.3-14.6-9-16.3-17.5c-0.1-0.5,0.2-1.1,0.8-1.2c0.5-0.1,1.1,0.2,1.2,0.8  C12,44,17.7,50.1,25.3,52.2c0.5,0.1,0.8,0.7,0.7,1.2C25.9,53.9,25.5,54.2,25.1,54.2z" fill="#2C3E50"/><path d="M36.1,54.4c-0.5,0-0.9-0.3-1-0.8c-0.1-0.5,0.2-1.1,0.7-1.2c7.7-1.8,13.8-8,15.6-15.8  c0.1-0.5,0.7-0.9,1.2-0.8c0.5,0.1,0.9,0.7,0.8,1.2c-1.9,8.5-8.6,15.2-17.1,17.3C36.3,54.4,36.2,54.4,36.1,54.4z" fill="#2C3E50"/><path d="M52.5,28.1c-0.5,0-0.9-0.3-1-0.8c-1.8-7.8-8-14-15.8-15.8c-0.5-0.1-0.9-0.7-0.8-1.2c0.1-0.5,0.7-0.9,1.2-0.8  c8.6,1.9,15.4,8.7,17.3,17.3c0.1,0.5-0.2,1.1-0.8,1.2C52.6,28.1,52.5,28.1,52.5,28.1z" fill="#2C3E50"/><path d="M9.5,28.1c-0.1,0-0.1,0-0.2,0c-0.5-0.1-0.9-0.7-0.8-1.2c1.9-8.5,8.7-15.3,17.2-17.3c0.5-0.1,1.1,0.2,1.2,0.7  c0.1,0.5-0.2,1.1-0.7,1.2c-7.8,1.8-13.9,8-15.7,15.8C10.4,27.8,10,28.1,9.5,28.1z" fill="#2C3E50"/></svg>