<?xml version="1.0" ?><svg enable-background="new 0 0 90 90" id="Layer_1" version="1.1" viewBox="0 0 90 90" xml:space="preserve" xmlns="http://www.w3.org/2000/svg" xmlns:xlink="http://www.w3.org/1999/xlink"><g><g><circle cx="45" cy="45" fill="#84D2ED" r="44.5"/></g><g><g><path d="M47.9,45.1l-3-3c-3.6-3.6-3.6-9.3,0-12.9l8.3-8.3c3.6-3.6,9.3-3.6,12.9,0l3,3c3.6,3.6,3.6,9.3,0,12.9     l-8.3,8.3C57.2,48.6,51.4,48.6,47.9,45.1z M61.4,25.7c-1-1-2.5-1-3.5,0l-8.3,8.3c-1,1-1,2.5,0,3.5l3,3c1,1,2.5,1,3.5,0l8.3-8.3     c1-1,1-2.5,0-3.5L61.4,25.7z" fill="#EDE9E0"/><path d="M54.3,48.7c-2.7,0-5.2-1-7.1-3l-3-3c-1.9-1.9-3-4.4-3-7.1c0-2.7,1-5.2,3-7.1l8.3-8.3c1.9-1.9,4.4-3,7.1-3     c2.7,0,5.2,1,7.1,3l3,3c3.9,3.9,3.9,10.4,0,14.3l-8.3,8.3C59.6,47.7,57,48.7,54.3,48.7z M59.6,19.3c-2.2,0-4.2,0.8-5.8,2.4     l-8.3,8.3c-1.5,1.5-2.4,3.6-2.4,5.8c0,2.2,0.8,4.2,2.4,5.7l3,3c1.5,1.5,3.6,2.4,5.7,2.4c2.2,0,4.2-0.8,5.8-2.4l8.3-8.3     c3.2-3.2,3.2-8.3,0-11.5l-3-3C63.8,20.1,61.8,19.3,59.6,19.3z M54.3,42.1c-0.9,0-1.8-0.4-2.4-1l-3-3c-0.7-0.7-1-1.5-1-2.4     c0-0.9,0.4-1.8,1-2.4l8.3-8.3c1.3-1.3,3.6-1.3,4.9,0l3,3c1.3,1.3,1.3,3.5,0,4.9l-8.3,8.3C56.1,41.7,55.2,42.1,54.3,42.1z      M59.6,25.9c-0.4,0-0.8,0.2-1,0.4l-8.3,8.3c-0.3,0.3-0.4,0.6-0.4,1c0,0.4,0.2,0.8,0.4,1l3,3c0.6,0.6,1.5,0.6,2.1,0l8.3-8.3     c0.6-0.6,0.6-1.5,0-2.1l-3-3C60.4,26.1,60,25.9,59.6,25.9z" fill="#010101"/></g></g><g><g><path d="M23.9,69l-3-3c-3.6-3.6-3.6-9.3,0-12.9l8.3-8.3c3.6-3.6,9.3-3.6,12.9,0l3,3c3.6,3.6,3.6,9.3,0,12.9     L36.8,69C33.3,72.6,27.5,72.6,23.9,69z M37.4,49.6c-1-1-2.5-1-3.5,0l-8.3,8.3c-1,1-1,2.5,0,3.5l3,3c1,1,2.5,1,3.5,0l8.3-8.3     c1-1,1-2.5,0-3.5L37.4,49.6z" fill="#EFB793"/><path d="M30.4,72.7c-2.7,0-5.2-1-7.1-3l-3-3c-1.9-1.9-3-4.4-3-7.1c0-2.7,1-5.2,3-7.1l8.3-8.3c1.9-1.9,4.4-3,7.1-3     c2.7,0,5.2,1,7.1,3l3,3c1.9,1.9,3,4.4,3,7.1c0,2.7-1,5.2-3,7.1l-8.3,8.3C35.6,71.6,33.1,72.7,30.4,72.7z M35.7,43.2     c-2.2,0-4.2,0.8-5.8,2.4l-8.3,8.3c-1.5,1.5-2.4,3.6-2.4,5.8c0,2.2,0.8,4.2,2.4,5.7l3,3c1.5,1.5,3.6,2.4,5.7,2.4s4.2-0.8,5.8-2.4     l8.3-8.3c1.5-1.5,2.4-3.6,2.4-5.7c0-2.2-0.8-4.2-2.4-5.8l-3-3C39.9,44.1,37.8,43.2,35.7,43.2z M30.4,66c-0.9,0-1.8-0.4-2.4-1     l-3-3c-0.7-0.7-1-1.5-1-2.4c0-0.9,0.4-1.8,1-2.4l8.3-8.3c1.3-1.3,3.6-1.3,4.9,0l3,3c1.3,1.3,1.3,3.5,0,4.9L32.8,65     C32.2,65.7,31.3,66,30.4,66z M35.7,49.9c-0.4,0-0.8,0.2-1,0.4l-8.3,8.3c-0.3,0.3-0.4,0.6-0.4,1c0,0.4,0.2,0.8,0.4,1l3,3     c0.6,0.6,1.5,0.6,2.1,0l8.3-8.3c0.6-0.6,0.6-1.5,0-2.1l-3-3C36.4,50,36.1,49.9,35.7,49.9z" fill="#010101"/></g></g><g><path d="M56.9,33.1c-1.3-1.3-3.4-1.3-4.7,0L33.1,52.2c-1.3,1.3-1.3,3.4,0,4.7c1.3,1.3,3.4,1.3,4.7,0l19.2-19.2    C58.2,36.5,58.2,34.4,56.9,33.1z" fill="#F1B565"/><path d="M35.4,58.9c-1.2,0-2.2-0.5-3.1-1.3c-0.8-0.8-1.3-1.9-1.3-3.1c0-1.2,0.4-2.2,1.3-3.1l19.2-19.2    c0.8-0.8,1.9-1.3,3.1-1.3c1.2,0,2.2,0.4,3.1,1.3c0.8,0.8,1.3,1.9,1.3,3.1c0,1.2-0.4,2.2-1.3,3.1L38.5,57.6    C37.7,58.5,36.6,58.9,35.4,58.9z M54.6,33.1c-0.6,0-1.2,0.2-1.7,0.7L33.8,52.9c-0.4,0.4-0.7,1-0.7,1.7c0,0.6,0.2,1.2,0.7,1.7    c0.9,0.9,2.4,0.9,3.3,0l19.2-19.2c0.4-0.4,0.7-1,0.7-1.7c0-0.6-0.2-1.2-0.7-1.7S55.2,33.1,54.6,33.1z" fill="#010101"/></g></g></svg>