<?xml version="1.0" ?><!DOCTYPE svg  PUBLIC '-//W3C//DTD SVG 1.1//EN'  'http://www.w3.org/Graphics/SVG/1.1/DTD/svg11.dtd'><svg height="6.82666in" style="shape-rendering:geometricPrecision; text-rendering:geometricPrecision; image-rendering:optimizeQuality; fill-rule:evenodd; clip-rule:evenodd" viewBox="0 0 6.82666 6.82666" width="6.82666in" xml:space="preserve" xmlns="http://www.w3.org/2000/svg" xmlns:xlink="http://www.w3.org/1999/xlink"><defs><style type="text/css">
   <![CDATA[
    .fil0 {fill:none}
    .fil2 {fill:#FECA5F}
    .fil1 {fill:#333333;fill-rule:nonzero}
   ]]>
  </style></defs><g id="Layer_x0020_1"><rect class="fil0" height="5.11998" width="5.12" x="0.853329" y="0.853348"/><g id="_258637296"><path class="fil1" d="M2.59633 2.85952c-0.0175433,-0.00106299 -0.0338583,-0.00272835 -0.0488622,-0.00498425 -0.0132323,-0.00199213 -0.0283465,-0.00501181 -0.045315,-0.00904724l-2.75591e-005 0.000125984 -5.51181e-005 -1.1811e-005 -0.00291732 -0.000830709c-0.14939,-0.0360748 -0.270217,-0.129173 -0.344689,-0.250618 -0.073878,-0.12048 -0.101996,-0.269079 -0.0669488,-0.417732l-0.000137795 -3.14961e-005 1.1811e-005 -5.51181e-005 0.000830709 -0.00291732c0.0361693,-0.149831 0.129378,-0.270413 0.25085,-0.344575 0.12165,-0.0742756 0.271764,-0.101972 0.421409,-0.0658543 0.150008,0.0362126 0.270567,0.129185 0.344575,0.250606 0.074,0.121406 0.101445,0.271232 0.0652441,0.421177 -0.00390551,0.0161614 -0.00842913,0.0318425 -0.0135197,0.0470079 -0.00532283,0.0158465 -0.0111929,0.0310787 -0.0175669,0.0456575l-0.195 -0.085c0.00411024,-0.00939764 0.00775591,-0.0187992 0.0108976,-0.0281614 0.00327559,-0.00975984 0.00612992,-0.0196063 0.00851969,-0.0295039 0.0223937,-0.092752 0.00546063,-0.185362 -0.0402441,-0.260343 -0.0456969,-0.0749724 -0.120185,-0.13239 -0.212906,-0.154772 -0.0924252,-0.0223071 -0.18526,-0.00512992 -0.260575,0.0408543 -0.0742717,0.0453465 -0.131437,0.118768 -0.154287,0.209969l0.000102362 1.9685e-005 -1.1811e-005 5.51181e-005 -0.000830709 0.00291732c-0.022248,0.0921654 -0.00482677,0.184701 0.0412559,0.259846 0.0454882,0.0741811 0.119075,0.13124 0.210083,0.154055l1.9685e-005 -0.000102362 5.51181e-005 1.1811e-005 0.00291732 0.000830709c0.00787795,0.00190157 0.0178819,0.00377165 0.0299291,0.00558661 0.0112402,0.00168898 0.0211496,0.00279921 0.0296969,0.00331496l-0.0125039 0.212504zm0.997366 -1.02817l0.255157 -0.155705 -0.104724 -0.170028 -0.25465 0.155488 -0.0745984 0.0455512 -0.0591535 -0.0647205c-0.0435591,-0.0476575 -0.0927165,-0.0915197 -0.14713,-0.13098 -0.0528937,-0.0383543 -0.10998,-0.0716614 -0.170921,-0.0993228l-0.0802559 -0.0364291 0.0206732 -0.0856535 0.0702598 -0.291094 -0.194335 -0.0469094 -0.0703071 0.291193 -0.0206299 0.0854528 -0.0877047 -0.00420079c-0.0666575,-0.00318898 -0.133303,0.000444882 -0.199142,0.0105591 -0.0663228,0.010189 -0.130059,0.0266732 -0.190472,0.0491102l-0.0822559 0.0305512 -0.0456614 -0.0747165 -0.155157 -0.25389 -0.170555 0.104217 0.155118 0.254858 0.0457677 0.0751969 -0.064937 0.0589724c-0.0479882,0.0435827 -0.0915787,0.0923228 -0.13022,0.145642 -0.039,0.0538031 -0.0726693,0.111512 -0.100453,0.172516l-0.0363268 0.0797717 -0.0853386 -0.0206024 -0.290232 -0.0700669 -0.0469567 0.194551 0.290315 0.0700827 0.085185 0.0205669 -0.00393307 0.0873504c-0.00304331,0.0676654 0.000543307,0.134157 0.0105276,0.198717 0.0100709,0.0650984 0.0266181,0.128705 0.0494016,0.190067l0.0305472 0.0822638 -0.0747126 0.0456535 -0.25385 0.15513 0.104217 0.170591 0.254882 -0.155122 0.110835 0.181669 -0.34572 0.210406 -0.0908386 0.0552874 -0.0554134 -0.0907047 -0.215063 -0.352024 -0.0554291 -0.0907323 0.0908465 -0.0555197 0.272866 -0.166752c-0.0139488,-0.0483701 -0.0248268,-0.0976811 -0.0325669,-0.147709 -0.00777953,-0.0502913 -0.0124055,-0.101126 -0.0138071,-0.152272l-0.311579 -0.0752165 -0.103291 -0.0249331 0.0249567 -0.103402 0.0968465 -0.401244 0.0249331 -0.103295 0.103402 0.0249606 0.311346 0.0751614c0.0248425,-0.0457323 0.0522008,-0.0891732 0.0819016,-0.13015 0.0296732,-0.0409409 0.061815,-0.0797323 0.0962559,-0.116213l-0.166433 -0.273453 -0.0552835 -0.0908268 0.0907008 -0.0554252 0.351984 -0.215075 0.0907283 -0.055437 0.0555236 0.0908543 0.166724 0.272819c0.049122,-0.0142677 0.0988701,-0.025315 0.149008,-0.0330197 0.049752,-0.00764567 0.100614,-0.012122 0.152362,-0.0133307l0.0753622 -0.312134 0.0249409 -0.103291 0.103394 0.0249567 0.40102 0.0968031 0.103295 0.024937 -0.0249606 0.103398 -0.075315 0.312035c0.0451024,0.0245827 0.0881142,0.0517638 0.128933,0.0813622 0.0408504,0.029626 0.0798543,0.0620709 0.116882,0.097122l0.27313 -0.166772 0.090311 -0.0551417 0.0555236 0.0901417 0.216339 0.351252 0.0560945 0.0910827 -0.0910945 0.0555866 -0.346252 0.211295 -0.110835 -0.181669z" id="_258637416"/><path class="fil1" d="M2.95297 4.87673c-0.0382835,-0.0404567 -0.0935394,-0.0617126 -0.150126,-0.0632874 -0.056374,-0.00156693 -0.112783,0.0166811 -0.153646,0.0552244l-0.48439 0.458035c-0.0637795,0.0602598 -0.149858,0.0889291 -0.234453,0.0865945 -0.0843189,-0.00233071 -0.168622,-0.035815 -0.229244,-0.0998543l-0.000417323 0 -0.141894 -0.150276 1.1811e-005 -1.1811e-005c-0.030185,-0.0319882 -0.0531457,-0.068685 -0.0681811,-0.108165 -0.0150157,-0.0394449 -0.0222638,-0.0822362 -0.0210354,-0.126433l1.1811e-005 0c0.00124409,-0.0439094 0.0109449,-0.0861299 0.028248,-0.124807 0.0175079,-0.0391417 0.0425945,-0.0746654 0.0743701,-0.104673l1.05972 -1.00157 0.000208661 0.000220472c0.0526811,-0.0497559 0.120843,-0.0789567 0.190445,-0.0863543 0.0699803,-0.00743701 0.142992,0.00693701 0.204728,0.044378 0.0469449,0.0285079 0.103063,0.0394291 0.158402,0.0331339 0.0542598,-0.00617717 0.107079,-0.0292874 0.148925,-0.0689724l0.000429134 -0.000405512 -1.1811e-005 -1.1811e-005 0.0056378 -0.00532677 -0.00562598 0.00533858 -1.1811e-005 -1.1811e-005c0.0260039,-0.0245591 0.0455039,-0.0539843 0.0576654,-0.0860157 0.0123819,-0.0326102 0.0173976,-0.0678228 0.0142087,-0.103331l-3.93701e-006 -3.54331e-005 -0.000413386 3.54331e-005 -0.00979528 -0.11211 0.000129921 -7.87402e-005 -0.00505118 -0.0562205 0.00492126 0.0562992 0.000129921 -7.87402e-005 0.0100787 0.112154 -0.000413386 3.54331e-005c-0.00315748,-0.0361457 -0.0140906,-0.0698504 -0.0315827,-0.0990787 -0.0175394,-0.0293071 -0.0420787,-0.0548937 -0.0723858,-0.0747126 -0.0562874,-0.036878 -0.116209,-0.0663189 -0.178008,-0.0877244 -0.0618465,-0.0214173 -0.127437,-0.0354213 -0.194984,-0.0414016 -0.116803,-0.0103386 -0.232409,0.00433465 -0.339461,0.0414646 -0.107091,0.0371417 -0.206661,0.0970236 -0.29135,0.177059l-1.05981 1.00139c-0.162862,0.153886 -0.247937,0.359657 -0.253827,0.567657 -0.00588976,0.20813 0.0675197,0.418598 0.22161,0.581693l-1.9685e-005 1.5748e-005 0.141197 0.147335 0.000814961 0.000850394 1.9685e-005 -1.5748e-005 0.00249606 0.0026378 -0.00251575 -0.00262205 1.9685e-005 -1.5748e-005c0.0679764,0.0719213 0.147594,0.129626 0.234634,0.171465 0.0876772,0.0421496 0.183787,0.0685 0.283976,0.0773701l-3.93701e-006 6.69291e-005 9.84252e-005 7.87402e-006 3.93701e-006 -6.69291e-005 0.00777953 0.000685039 -0.00778346 -0.00061811 3.93701e-006 -6.69291e-005c0.11661,0.0103228 0.232528,-0.00416929 0.340339,-0.0412913 0.107299,-0.0369449 0.206587,-0.0961535 0.290543,-0.175453l0.484232 -0.457c0.0210433,-0.0198622 0.0374409,-0.0428504 0.0486378,-0.0677559 0.0113858,-0.0253268 0.017752,-0.0527992 0.0185354,-0.0811969 0.00080315,-0.0278583 -0.00423622,-0.0560433 -0.0144252,-0.0827402 -0.0100906,-0.026437 -0.0250236,-0.050626 -0.0441063,-0.0707717l-0.0382441 -0.0401693 0.000208661 -0.00019685 -0.000208661 -0.000220472zm-0.144291 -0.275791c0.109945,0.00306299 0.219476,0.046626 0.298248,0.12974l0.000208661 -0.000200787 0.0382441 0.0401693c0.0391378,0.0413228 0.0692913,0.0896929 0.0891063,0.141606 0.0197047,0.051626 0.0294055,0.107598 0.0277638,0.164409 -0.0015748,0.0568583 -0.0142283,0.111665 -0.036874,0.162031 -0.0228465,0.0508071 -0.0555315,0.0969724 -0.0969685,0.136087l-0.484232 0.457c-0.106524,0.100614 -0.231996,0.175567 -0.367213,0.222122 -0.135858,0.0467795 -0.281583,0.0650748 -0.427835,0.052126l3.93701e-006 -6.69291e-005 -9.84252e-005 -7.87402e-006 -3.93701e-006 6.69291e-005 -0.00591732 -0.000543307 -0.0018622 -0.000149606 0.00777953 0.000692913 3.93701e-006 -6.69291e-005 -0.00592126 -0.000476378c-0.122535,-0.0115551 -0.241413,-0.0447874 -0.351398,-0.0976614 -0.111035,-0.053374 -0.212154,-0.126512 -0.297965,-0.217299l1.9685e-005 -1.5748e-005 -0.141197 -0.147335 -0.000814961 -0.000850394 -1.9685e-005 1.5748e-005 -0.00137008 -0.0014685 -0.00105118 -0.00109843 0.00242126 0.00256693 1.9685e-005 -1.5748e-005 -0.00138976 -0.00145276c-0.193146,-0.205228 -0.285157,-0.469941 -0.277744,-0.731894 0.00743701,-0.262677 0.114858,-0.52252 0.320496,-0.716823l1.05981 -1.00139c0.10613,-0.100303 0.231921,-0.175689 0.36802,-0.222894 0.136118,-0.0472126 0.281551,-0.0660039 0.426957,-0.0531339 0.0828976,0.00733858 0.165602,0.0252913 0.245819,0.0530709 0.0802283,0.0277874 0.156157,0.0647953 0.225512,0.110228 0.0570827,0.0373268 0.103949,0.0866142 0.13822,0.143878 0.0343268,0.0573622 0.0556496,0.121992 0.0615827,0.189913l-0.000413386 3.54331e-005c0.0061063,0.0680394 -0.00332677,0.135028 -0.0267165,0.196626 -0.0235827,0.0621181 -0.061122,0.118909 -0.110996,0.166016l-1.1811e-005 -1.1811e-005c-0.0767441,0.0725984 -0.173102,0.114831 -0.271835,0.126071 -0.100067,0.0113858 -0.203331,-0.00944488 -0.291732,-0.0631339 -0.0205827,-0.0124803 -0.0464173,-0.0171181 -0.0722244,-0.014378 -0.0257323,0.00273228 -0.0499134,0.0125748 -0.0673228,0.0290472l0 0.000417323 -1.05972 1.00157c-0.0112795,0.0106496 -0.0200669,0.0229882 -0.0260394,0.0363425 -0.00609843,0.0136378 -0.00951181,0.028378 -0.00992126,0.0435551l0 0.000417323c-0.00042126,0.0152362 0.00222835,0.0303976 0.00769685,0.0447638 0.00536614,0.0140906 0.013315,0.0269134 0.0235866,0.0377598l0.000417323 0.000417323 0.141894 0.150276 -0.000220472 0.000204724c0.0200591,0.0210512 0.0498425,0.0321299 0.0807165,0.0329803 0.0307992,0.000850394 0.0612835,-0.00877559 0.0827835,-0.0290906l0.48439 -0.458035c0.083252,-0.0785236 0.195161,-0.115795 0.305315,-0.112728zm0.182539 0.316374l8.26772e-005 -7.87402e-005 -0.038122 -0.0402835 -0.000208661 0.00019685 0.038248 0.0401654zm8.26772e-005 -7.87402e-005l-8.26772e-005 7.87402e-005 0.0267323 0.0280787 -0.0266496 -0.0281575z" id="_258637224"/><path class="fil1" d="M3.8737 2.93165c0.0382835,0.0404567 0.0935394,0.0617126 0.150122,0.0632874 0.0563819,0.00157087 0.112791,-0.016685 0.15365,-0.0552205l0.48439 -0.458039c0.0637795,-0.0602598 0.149858,-0.0889291 0.234453,-0.0865945 0.0843189,0.00233071 0.168622,0.035815 0.229244,0.0998543l0.000417323 0 0.141894 0.150276 -1.1811e-005 1.1811e-005c0.030185,0.0319882 0.0531457,0.068685 0.0681811,0.108165 0.0150157,0.0394449 0.0222638,0.0822362 0.0210354,0.126433l-1.1811e-005 0c-0.00124409,0.0439094 -0.0109449,0.0861299 -0.028248,0.124807 -0.0175079,0.0391417 -0.0425945,0.0746654 -0.0743701,0.104673l-1.05972 1.00157 -0.000208661 -0.000220472c-0.052685,0.0497638 -0.120846,0.0789646 -0.190441,0.0863543 -0.0699843,0.00743701 -0.142992,-0.00693701 -0.204732,-0.044378 -0.0469449,-0.0285079 -0.103063,-0.0394291 -0.158402,-0.0331339 -0.0542598,0.00617717 -0.107079,0.0292874 -0.148925,0.0689724l-0.000429134 0.000405512 1.1811e-005 1.1811e-005 -0.0056378 0.00532283 0.00562598 -0.00533465 1.1811e-005 1.1811e-005c-0.0260039,0.0245591 -0.0455039,0.0539843 -0.0576654,0.0860157 -0.0123819,0.0326102 -0.0173976,0.0678228 -0.0142087,0.103331l3.93701e-006 3.54331e-005 0.000413386 -3.54331e-005 0.00979528 0.11211 -0.000129921 7.87402e-005 0.00505118 0.0562205 -0.00492126 -0.0562992 -0.000129921 7.87402e-005 -0.0100787 -0.112154 0.000413386 -3.54331e-005c0.00315748,0.0361457 0.0140906,0.0698504 0.0315827,0.0990787 0.0175394,0.0293071 0.0420787,0.0548937 0.0723858,0.0747126 0.0562874,0.036878 0.116209,0.0663189 0.178008,0.0877244 0.0618465,0.0214173 0.127437,0.0354213 0.194984,0.0414016 0.116803,0.0103425 0.232413,-0.00433071 0.339457,-0.0414606 0.107094,-0.0371417 0.206665,-0.0970276 0.291354,-0.177063l1.05981 -1.00139c0.162862,-0.153886 0.247937,-0.359657 0.253827,-0.567657 0.00588976,-0.20813 -0.0675197,-0.418598 -0.22161,-0.581693l1.9685e-005 -1.5748e-005 -0.141197 -0.147335 -0.000814961 -0.000850394 -1.9685e-005 1.5748e-005 -0.00249606 -0.0026378 0.00251575 0.00262205 -1.9685e-005 1.5748e-005c-0.0679764,-0.0719213 -0.147594,-0.129626 -0.234634,-0.171465 -0.0875354,-0.0420787 -0.183469,-0.0684094 -0.283484,-0.0773228l-0.000492126 -5.90551e-005 0 1.5748e-005 0.000492126 4.33071e-005 5.11811e-005 7.87402e-006 -0.000543307 -5.11811e-005 0 -1.5748e-005 -9.84252e-005 -1.1811e-005 0 1.5748e-005c-0.11661,-0.0103228 -0.232528,0.00416929 -0.340339,0.0412913 -0.107299,0.0369449 -0.206587,0.0961535 -0.290543,0.175453l-0.484232 0.457c-0.0210433,0.0198622 -0.0374409,0.0428504 -0.0486378,0.0677559 -0.0113858,0.0253268 -0.017752,0.0527992 -0.0185354,0.0811969 -0.00080315,0.0278583 0.00423622,0.0560433 0.0144252,0.0827402 0.0100906,0.026437 0.0250236,0.050626 0.0441063,0.0707717l0.0382441 0.0401693 -0.000208661 0.00019685 0.000208661 0.000220472zm0.144287 0.275791c-0.109941,-0.00306299 -0.219472,-0.046626 -0.298244,-0.12974l-0.000208661 0.000200787 -0.0382441 -0.0401693c-0.0391378,-0.0413228 -0.0692913,-0.0896929 -0.0891063,-0.141606 -0.0197047,-0.051626 -0.0294055,-0.107598 -0.0277638,-0.164409 0.0015748,-0.0568583 0.0142283,-0.111665 0.036874,-0.162031 0.0228465,-0.0508071 0.0555315,-0.0969724 0.0969685,-0.136087l0.484232 -0.457c0.106524,-0.100614 0.231996,-0.175567 0.367213,-0.222122 0.135697,-0.0467244 0.281232,-0.0650276 0.427307,-0.0521693l0.000527559 6.29921e-005 0 -1.9685e-005 -0.000547244 -4.72441e-005 1.9685e-005 3.93701e-006 0.000527559 4.33071e-005 0 1.9685e-005 9.84252e-005 1.1811e-005 0 -1.9685e-005c0.124622,0.0110315 0.245559,0.0444724 0.357315,0.0982008 0.111035,0.053374 0.212154,0.126512 0.297965,0.217299l-1.9685e-005 1.5748e-005 0.141197 0.147335 0.000814961 0.000850394 1.9685e-005 -1.5748e-005 0.00137008 0.0014685 0.00105118 0.00109843 -0.00242126 -0.00256693 -1.9685e-005 1.5748e-005 0.00138976 0.00145276c0.193146,0.205228 0.285157,0.469941 0.277744,0.731894 -0.00743701,0.262677 -0.114858,0.52252 -0.320496,0.716823l-1.05981 1.00139c-0.10613,0.100299 -0.231921,0.175693 -0.368024,0.222898 -0.13611,0.0472126 -0.281543,0.0660039 -0.426953,0.0531299 -0.0828976,-0.00733858 -0.165602,-0.0252913 -0.245819,-0.0530709 -0.0802283,-0.0277874 -0.156157,-0.0647953 -0.225512,-0.110228 -0.0570827,-0.0373268 -0.103949,-0.0866142 -0.13822,-0.143878 -0.0343268,-0.0573622 -0.0556496,-0.121992 -0.0615827,-0.189913l0.000413386 -3.54331e-005c-0.0061063,-0.0680394 0.00332677,-0.135028 0.0267165,-0.196626 0.0235787,-0.0621142 0.061122,-0.118909 0.110996,-0.166016l1.1811e-005 1.1811e-005c0.0767441,-0.0725984 0.173102,-0.114831 0.271835,-0.126071 0.100067,-0.0113858 0.203331,0.00944488 0.291732,0.0631339 0.0205827,0.0124803 0.0464173,0.0171181 0.0722283,0.014378 0.0257283,-0.00273228 0.0499134,-0.0125748 0.0673189,-0.0290472l0 -0.000417323 1.05972 -1.00157c0.0112795,-0.0106496 0.0200669,-0.0229882 0.0260394,-0.0363425 0.00609843,-0.0136378 0.00951181,-0.028378 0.00992126,-0.0435551l0 -0.000417323c0.00042126,-0.0152362 -0.00222835,-0.0303976 -0.00769685,-0.0447638 -0.00536614,-0.0140906 -0.013315,-0.0269134 -0.0235866,-0.0377598l-0.000417323 -0.000417323 -0.141894 -0.150276 0.000220472 -0.000204724c-0.0200591,-0.0210512 -0.0498425,-0.0321299 -0.0807165,-0.0329803 -0.0307992,-0.000850394 -0.0612835,0.00877559 -0.0827835,0.0290906l-0.48439 0.458039c-0.083252,0.0785197 -0.195161,0.115795 -0.305319,0.112724zm-0.182535 -0.316374l-8.26772e-005 7.87402e-005 0.038122 0.0402835 0.000208661 -0.00019685 -0.038248 -0.0401654zm-8.26772e-005 7.87402e-005l8.26772e-005 -7.87402e-005 -0.0267323 -0.0280787 0.0266496 0.0281575z" id="_258637656"/></g><rect class="fil0" height="6.82666" width="6.82666"/><path class="fil2" d="M1.20672 5.49651l0 0zm0.142012 0.148185l0 0zm0.518728 0.248827l0.000771654 6.69291e-005c-0.000255906,-1.9685e-005 -0.000515748,-4.33071e-005 -0.000771654,-6.69291e-005zm-0.308646 -0.73037l0 0zm-0.0892047 -0.234598l0 0zm1.86548 -1.30905l0 0zm-0.744976 -0.450811c-0.107091,0.0371417 -0.206661,0.0970236 -0.29135,0.177059l-1.05981 1.00139c-0.162862,0.153886 -0.247937,0.359657 -0.253827,0.567657 -0.00588976,0.20813 0.0675197,0.418598 0.221591,0.581709l0.141197 0.147335 0.000834646 0.000834646 0.0025 0.00263386c0.0674252,0.0706969 0.146161,0.127504 0.232134,0.168831 0.0876772,0.0421496 0.183787,0.0685 0.283976,0.0773701l-3.93701e-006 6.69291e-005 9.84252e-005 7.87402e-006 0.0077874 0.000586614c0.11398,0.00901181 0.227142,-0.00564961 0.332555,-0.0419449 0.107299,-0.0369449 0.206587,-0.0961535 0.290543,-0.175453l0.484232 -0.457c0.0210433,-0.0198622 0.0374409,-0.0428504 0.0486378,-0.0677559 0.0113858,-0.0253268 0.017752,-0.0527992 0.0185354,-0.0811969 0.00080315,-0.0278583 -0.00423622,-0.0560433 -0.0144252,-0.0827402 -0.0100906,-0.026437 -0.0250236,-0.050626 -0.0441063,-0.0707717l-0.0382441 -0.0401693 0.000208661 -0.00019685 -0.000208661 -0.000220472c-0.0382835,-0.0404567 -0.0935394,-0.0617126 -0.150126,-0.0632874 -0.056374,-0.00156693 -0.112783,0.0166811 -0.153646,0.0552244l-0.48439 0.458035c-0.0637795,0.0602598 -0.149858,0.0889291 -0.234453,0.0865945 -0.0843189,-0.00233071 -0.168622,-0.035815 -0.229244,-0.0998543l-0.000417323 0 -0.141882 -0.150287c-0.030185,-0.0319882 -0.0531457,-0.068685 -0.0681811,-0.108165 -0.0150157,-0.0394449 -0.0222638,-0.0822362 -0.0210236,-0.126433 0.00124409,-0.0439094 0.0109449,-0.0861299 0.028248,-0.124807 0.0175079,-0.0391417 0.0425945,-0.0746654 0.0743701,-0.104673l1.05972 -1.00157 0.000208661 0.000220472c0.0526811,-0.0497559 0.120843,-0.0789567 0.190445,-0.0863543 0.0699803,-0.00743701 0.142992,0.00693701 0.204728,0.044378 0.0469449,0.0285079 0.103063,0.0394291 0.158402,0.0331339 0.0542598,-0.00617717 0.107079,-0.0292874 0.148925,-0.0689724l0.000417323 -0.000417323c2.3622e-005,-2.3622e-005 5.11811e-005,-4.72441e-005 7.48031e-005,-7.08661e-005 5.11811e-005,-4.72441e-005 9.84252e-005,-9.44882e-005 0.000149606,-0.000141732 0.0258898,-0.0245157 0.045315,-0.0538622 0.0574409,-0.0858031 0.0123819,-0.0326102 0.0173976,-0.0678228 0.0142047,-0.103366l-0.000413386 3.54331e-005c-0.00315748,-0.0361457 -0.0140906,-0.0698504 -0.0315827,-0.0990787 -0.0175394,-0.0293071 -0.0420787,-0.0548937 -0.0723858,-0.0747126 -0.0562874,-0.036878 -0.116209,-0.0663189 -0.178008,-0.0877244 -0.0618465,-0.0214173 -0.127437,-0.0354213 -0.194984,-0.0414016 -0.116803,-0.0103386 -0.232409,0.00433465 -0.339461,0.0414646z"/><path class="fil2" d="M5.26785 2.64522l0 0zm0.0892047 0.234598l0 0zm-1.86548 1.30905l0 0zm2.12837 -1.87701l0 0zm-0.142012 -0.148185l0 0zm-0.518087 -0.248768c-1.5748e-005,0 -3.54331e-005,-3.93701e-006 -5.11811e-005,-3.93701e-006l5.11811e-005 3.93701e-006zm-0.000543307 -6.29921e-005l0 0zm-9.84252e-005 -1.1811e-005l0 0zm-0.78174 1.02488l0.48439 -0.458039c0.0637795,-0.0602598 0.149858,-0.0889291 0.234453,-0.0865945 0.0843189,0.00233071 0.168622,0.035815 0.229244,0.0998543l0.000417323 0 0.141882 0.150287c0.030185,0.0319882 0.0531457,0.068685 0.0681811,0.108165 0.0150157,0.0394449 0.0222638,0.0822362 0.0210236,0.126433 -0.00124409,0.0439094 -0.0109449,0.0861299 -0.028248,0.124807 -0.0175079,0.0391417 -0.0425945,0.0746654 -0.0743701,0.104673l-1.05972 1.00157 -0.000208661 -0.000220472c-0.052685,0.0497638 -0.120846,0.0789646 -0.190441,0.0863543 -0.0699843,0.00743701 -0.142992,-0.00693701 -0.204732,-0.044378 -0.0469449,-0.0285079 -0.103063,-0.0394291 -0.158402,-0.0331339 -0.0542598,0.00617717 -0.107079,0.0292874 -0.148925,0.0689724l-0.000417323 0.000417323c-0.0260039,0.0245591 -0.0455039,0.0539843 -0.0576654,0.0860157 -0.0123819,0.0326102 -0.0173976,0.0678228 -0.0142047,0.103366l0.000413386 -3.54331e-005c0.00315748,0.0361457 0.0140906,0.0698504 0.0315827,0.0990787 0.0175394,0.0293071 0.0420787,0.0548937 0.0723858,0.0747126 0.0562874,0.036878 0.116209,0.0663189 0.178008,0.0877244 0.0618465,0.0214173 0.127437,0.0354213 0.194984,0.0414016 0.116803,0.0103425 0.232413,-0.00433071 0.339457,-0.0414606 0.107094,-0.0371417 0.206665,-0.0970276 0.291354,-0.177063l1.05981 -1.00139c0.162862,-0.153886 0.247937,-0.359657 0.253827,-0.567657 0.00588976,-0.20813 -0.0675197,-0.418598 -0.221591,-0.581709l-0.141197 -0.147335 -0.000834646 -0.000834646 -0.0025 -0.00263386c-0.0674252,-0.0706969 -0.146161,-0.127504 -0.232134,-0.168831 -0.0875197,-0.0420709 -0.183437,-0.0684016 -0.283433,-0.077315l-5.11811e-005 -7.87402e-006 -0.000492126 -5.90551e-005 -9.84252e-005 3.93701e-006c-0.11661,-0.0103228 -0.232528,0.00416929 -0.340339,0.0412913 -0.107299,0.0369449 -0.206587,0.0961535 -0.290543,0.175453l-0.484232 0.457c-0.0210433,0.0198622 -0.0374409,0.0428504 -0.0486378,0.0677559 -0.0113858,0.0253268 -0.017752,0.0527992 -0.0185354,0.0811969 -0.00080315,0.0278583 0.00423622,0.0560433 0.0144252,0.0827402 0.0100906,0.026437 0.0250236,0.050626 0.0441063,0.0707717l0.0382441 0.0401693 -0.000208661 0.00019685 0.000208661 0.000220472c0.0382835,0.0404567 0.0935394,0.0617126 0.150122,0.0632874 0.0563819,0.00157087 0.112791,-0.016685 0.15365,-0.0552205z"/></g></svg>