<?xml version="1.0" ?><!DOCTYPE svg  PUBLIC '-//W3C//DTD SVG 1.1//EN'  'http://www.w3.org/Graphics/SVG/1.1/DTD/svg11.dtd'><svg enable-background="new 0 0 512 512" height="512px" id="Layer_1" version="1.1" viewBox="0 0 512 512" width="512px" xml:space="preserve" xmlns="http://www.w3.org/2000/svg" xmlns:xlink="http://www.w3.org/1999/xlink"><g id="code_optimization_1_"><rect fill="#434A54" height="307.219" width="445.891" x="16" y="102.664"/><path d="M477.328,319.992l-11-17.328l13.344-21.656L454,250.992c0,0-36,12.344-37.672,11.344s-3-22.672-3-22.672   L375,237.336l-10.328,29.328l-30.672-12l-26,22.672l3.672,15.656l-6.344,28.344L286,319.992l4,41.672l19.328-0.328l10.344,22.672   l-10.344,12.984l26,34.672l12-19.328L368,421.008l10.328,28.656l35,2.344l3.672-29l20.344-9.344l20.812,16.672l15.516-37   l2.656-27.328l24.344-2c0,0,2.328-41.672,2.328-42.672S477.328,319.992,477.328,319.992z M398.125,380.242   c-20.5,0-37.125-16.625-37.125-37.125s16.625-37.125,37.125-37.125s37.125,16.625,37.125,37.125S418.625,380.242,398.125,380.242z" fill="#E6E9ED"/><rect fill="#E6E9ED" height="53.641" width="443.5" x="12.5" y="58.352"/><path d="M32,85.336c0,5.891,4.766,10.672,10.672,10.672c5.875,0,10.656-4.781,10.656-10.672s-4.781-10.672-10.656-10.672   C36.766,74.664,32,79.445,32,85.336z"/><path d="M64,85.336c0,5.891,4.766,10.672,10.672,10.672c5.875,0,10.656-4.781,10.656-10.672s-4.781-10.672-10.656-10.672   C68.766,74.664,64,79.445,64,85.336z"/><path d="M96,85.336c0,5.891,4.766,10.672,10.672,10.672c5.875,0,10.656-4.781,10.656-10.672s-4.781-10.672-10.656-10.672   C100.766,74.664,96,79.445,96,85.336z"/><path d="M53.328,160.008h319.984c0.016,0,0.016,0,0.016,0c5.906,0,10.672-4.781,10.672-10.672   s-4.766-10.672-10.672-10.672l0,0h-320c-5.875,0-10.656,4.781-10.656,10.672S47.453,160.008,53.328,160.008z" fill="#FC6E51"/><path d="M53.328,202.664H224c5.891,0,10.672-4.766,10.672-10.656c0-5.906-4.781-10.672-10.672-10.672H53.328   c-5.875,0-10.656,4.766-10.656,10.672C42.672,197.898,47.453,202.664,53.328,202.664z" fill="#AC92EB"/><path d="M53.328,245.336h234.656c0,0,0,0,0.016,0c5.891,0,10.672-4.781,10.672-10.672s-4.781-10.656-10.672-10.656   l0,0H53.328c-5.875,0-10.656,4.766-10.656,10.656S47.453,245.336,53.328,245.336z" fill="#48CFAD"/><path d="M53.328,288.008h149.344c5.875,0,10.656-4.781,10.656-10.672s-4.781-10.672-10.656-10.672H53.328   c-5.875,0-10.656,4.781-10.656,10.672S47.453,288.008,53.328,288.008z" fill="#5D9CEC"/><path d="M224,309.336L224,309.336H53.328c-5.875,0-10.656,4.766-10.656,10.672c0,5.891,4.781,10.656,10.656,10.656   h170.656c0,0,0,0,0.016,0c5.891,0,10.672-4.766,10.672-10.656S229.891,309.336,224,309.336z" fill="#FFCE54"/><path d="M138.672,352.008H53.328c-5.875,0-10.656,4.766-10.656,10.656s4.781,10.672,10.656,10.672h85.344   c5.875,0,10.656-4.781,10.656-10.672S144.547,352.008,138.672,352.008z" fill="#ED5564"/><path d="M512,373.336v-64h-26.797c-1.141-3.219-2.438-6.344-3.891-9.391l18.953-18.953l-30.938-30.922V74.664   c0-11.781-9.547-21.328-21.328-21.328H21.328C9.547,53.336,0,62.883,0,74.664v341.344h303.391l30.938,30.922l18.953-18.953   c3.047,1.453,6.172,2.75,9.391,3.891v26.797h64v-26.797c3.203-1.141,6.344-2.438,9.375-3.891l18.969,18.953l45.25-45.25   l-18.953-18.953c1.453-3.047,2.75-6.188,3.891-9.391H512z M21.328,74.664h21.344h32h32H448v21.344H106.672h-32h-32H21.328V74.664z    M21.328,117.336H448v125.406l-11.953,11.953c-3.031-1.453-6.172-2.75-9.375-3.891v-26.797h-64v26.797   c-3.219,1.141-6.344,2.438-9.391,3.891l-18.953-18.953l-45.25,45.25l18.938,18.953c-1.438,3.047-2.75,6.172-3.875,9.391h-26.812v64   h26.812c1.125,3.203,2.438,6.344,3.875,9.391l-11.938,11.938H21.328V117.336z M470.109,352.008l-5.031,14.219   c-0.875,2.484-1.891,4.938-3.016,7.281l-6.516,13.625l10.688,10.672l3.859,3.875l-15.078,15.078l-3.875-3.875l-10.688-10.672   l-13.609,6.516c-2.344,1.125-4.797,2.141-7.297,3.031l-14.219,5.016v15.094v5.469H384v-5.469v-15.094l-14.219-5.016   c-2.5-0.891-4.953-1.906-7.297-3.031l-13.625-6.516l-10.656,10.672l-3.875,3.875l-15.094-15.078l3.875-3.875l10.672-10.672   l-6.516-13.625c-1.125-2.344-2.125-4.781-3.016-7.281l-5.031-14.219h-15.078h-5.469v-21.344h5.469h15.078l5.031-14.219   c0.891-2.5,1.891-4.953,3.016-7.297l6.516-13.609l-10.672-10.672l-3.875-3.875l15.094-15.078l3.875,3.859l10.672,10.672   l13.609-6.516c2.344-1.109,4.797-2.125,7.297-3.016L384,265.883v-15.078v-5.469h21.328v5.469v15.078l14.219,5.031   c2.5,0.891,4.953,1.906,7.297,3.016l13.609,6.516l10.688-10.672l3.875-3.859l15.078,15.078l-3.859,3.875l-10.688,10.672   l6.516,13.609c1.125,2.344,2.141,4.797,3.016,7.297l5.031,14.219h15.094h5.469v21.344h-5.469H470.109z"/><path d="M394.672,298.664c-23.562,0-42.672,19.109-42.672,42.672s19.109,42.672,42.672,42.672s42.656-19.109,42.656-42.672   S418.234,298.664,394.672,298.664z M394.672,362.664c-11.766,0-21.344-9.562-21.344-21.328s9.578-21.328,21.344-21.328   c11.75,0,21.328,9.562,21.328,21.328S406.422,362.664,394.672,362.664z"/></g></svg>