<?xml version="1.0" ?><svg height="32" id="svg5349" version="1.1" width="32" xmlns="http://www.w3.org/2000/svg" xmlns:cc="http://creativecommons.org/ns#" xmlns:dc="http://purl.org/dc/elements/1.1/" xmlns:inkscape="http://www.inkscape.org/namespaces/inkscape" xmlns:rdf="http://www.w3.org/1999/02/22-rdf-syntax-ns#" xmlns:sodipodi="http://sodipodi.sourceforge.net/DTD/sodipodi-0.dtd" xmlns:svg="http://www.w3.org/2000/svg"><defs id="defs5351"/><g id="layer1" transform="translate(0,-1020.3622)"><g id="g8127" transform="translate(649.00006,262.00002)"><g id="g8396" transform="translate(-108.26196,-161.48967)"><g id="g9101" transform="translate(146.2619,-37.01035)"><path d="m -666.5625,978.3622 -16.9375,0 c -0.554,0 -1,-0.446 -1,-1 l 0,-15 c 0,-0.554 0.446,-1 1,-1 l 22,0 c 0.55399,0 1,0.446 1,1 l 0,13.9375" id="rect7466-9" style="fill:#d0dde6;fill-opacity:1;stroke:#373449;stroke-linecap:round;stroke-linejoin:round;stroke-opacity:1"/><path d="m -684.44019,974.3657 0,3.002 c 0,0.554 0.446,1 1,1 l 22,0 c 0.554,0 1,-0.446 1,-1 l 0,-3.002 -24,0 z" id="rect6532-3-6" style="fill:#e6cc9b;fill-opacity:1;stroke:#373449;stroke-linecap:round;stroke-linejoin:round;stroke-opacity:1"/><path d="m -675.5,978.379 6,0 c -0.9377,2.8229 0.59123,3.8595 2,4.9832 l -10,0 c 1.7319,-1.2517 3.06667,-2.661 2,-4.9832 z" id="path7468-0" style="fill:#55addf;fill-opacity:1;stroke:#373449;stroke-linecap:round;stroke-linejoin:round;stroke-opacity:1"/><path d="m -684.5,974.3622 19.9375,0 m 1.90625,0 2.15625,0" id="path7470-4" style="fill:#b6e887;fill-opacity:1;stroke:#373449;stroke-width:1px;stroke-linecap:butt;stroke-linejoin:miter;stroke-opacity:1"/><path d="m -679.5,983.3622 14,0" id="path7472-6" style="fill:#b6e887;fill-opacity:1;stroke:#373449;stroke-width:1px;stroke-linecap:round;stroke-linejoin:round;stroke-opacity:1"/><path d="m -678.47878,970.8622 0,-4.5 3,0 0,4.5" id="path7480-3" style="fill:none;stroke:#373449;stroke-width:1px;stroke-linecap:butt;stroke-linejoin:miter;stroke-opacity:1"/><path d="m -673.47878,970.3622 0,-4 3,0 0,4 z" id="path7482-7" style="fill:none;stroke:#373449;stroke-width:0.99999994px;stroke-linecap:butt;stroke-linejoin:miter;stroke-opacity:1"/><path d="m -677.97878,968.3622 2,0" id="path7484-6" style="fill:none;stroke:#373449;stroke-width:1px;stroke-linecap:round;stroke-linejoin:round;stroke-opacity:1"/><path d="m -664.96502,966.3622 -3.50823,0 0,2 3.02209,0 0,2 -3.53033,0" id="path7486-6" style="fill:none;stroke:#373449;stroke-width:1px;stroke-linecap:butt;stroke-linejoin:miter;stroke-opacity:1"/><path d="m -664.49744,978.8646 0,-6.4956 c 0,-0.554 0.446,-1 1,-1 0.554,0 1.0345,0.4471 1,1 l -0.0108,3.9913 4.00352,0 0.002,2.0891 c 0.002,2.1272 -1.78848,3.9128 -3.99761,3.9128 -2.20914,0 -4,-1.7856 -4.00009,-3.9368 l 0.0124,-1.0571 c 0.005,-0.554 0.446,-1 1,-1 l 0.98846,0" id="path7488-0" style="fill:#e6cc9b;fill-opacity:1;stroke:#373449;stroke-width:1;stroke-linejoin:miter;stroke-miterlimit:4;stroke-opacity:1;stroke-dashoffset:0"/><rect height="2" id="rect8637" style="fill:#e6cc9b;fill-opacity:1;stroke:none" width="6.287262" x="-665.98438" y="976.87"/><rect height="3.0162525" id="rect8642" style="fill:#e6cc9b;fill-opacity:1;stroke:none" width="0.98884469" x="-663.99597" y="973.86389"/><circle cx="-572.125" cy="1163.7997" d="m -571.38672,1163.7997 c 0,0.4077 -0.33054,0.7383 -0.73828,0.7383 -0.40774,0 -0.73828,-0.3306 -0.73828,-0.7383 0,-0.4078 0.33054,-0.7383 0.73828,-0.7383 0.40774,0 0.73828,0.3305 0.73828,0.7383 z" id="path5699-7-8-8-0" r="0.73828125" style="fill:#373449;fill-opacity:1" transform="translate(-99.98438,-187.4922)"/></g></g></g></g></svg>