<?xml version="1.0" ?><!DOCTYPE svg  PUBLIC '-//W3C//DTD SVG 1.1//EN'  'http://www.w3.org/Graphics/SVG/1.1/DTD/svg11.dtd'><svg enable-background="new 0 0 90 90" id="Layer_1" version="1.1" viewBox="0 0 90 90" xml:space="preserve" xmlns="http://www.w3.org/2000/svg" xmlns:xlink="http://www.w3.org/1999/xlink"><g><g><circle cx="45" cy="45" fill="#9F96C9" r="44.5"/></g><g><g><rect fill="#FFFFFF" height="49.4" width="49.4" x="20.3" y="20.3"/><path d="M69.7,70.7H20.3c-0.6,0-1-0.4-1-1V20.3c0-0.6,0.4-1,1-1h49.4c0.6,0,1,0.4,1,1v49.4     C70.7,70.3,70.3,70.7,69.7,70.7z M21.3,68.7h47.4V21.3H21.3V68.7z" fill="#010101"/></g><g><rect fill="#8CC749" height="28.9" width="37.3" x="26.4" y="34.7"/><path d="M63.6,64.6H26.4c-0.6,0-1-0.4-1-1V34.7c0-0.6,0.4-1,1-1h37.3c0.6,0,1,0.4,1,1v28.9     C64.6,64.2,64.2,64.6,63.6,64.6z M27.4,62.6h35.3V35.7H27.4V62.6z" fill="#010101"/></g><g><g><line fill="#EFC41C" x1="31.7" x2="58.3" y1="40.1" y2="40.1"/><rect fill="#010101" height="2" width="26.6" x="31.7" y="39.1"/></g><g><line fill="#EFC41C" x1="31.7" x2="58.3" y1="49.2" y2="49.2"/><rect fill="#010101" height="2" width="26.6" x="31.7" y="48.2"/></g><g><line fill="#EFC41C" x1="31.7" x2="58.3" y1="58.3" y2="58.3"/><rect fill="#010101" height="2" width="26.6" x="31.7" y="57.3"/></g></g></g></g></svg>