<?xml version="1.0" ?><!DOCTYPE svg  PUBLIC '-//W3C//DTD SVG 1.1//EN'  'http://www.w3.org/Graphics/SVG/1.1/DTD/svg11.dtd'><svg enable-background="new 0 0 64 64" id="Layer_1" version="1.1" viewBox="0 0 64 64" xml:space="preserve" xmlns="http://www.w3.org/2000/svg" xmlns:xlink="http://www.w3.org/1999/xlink"><path d="M45,15.1h6c2.2,0,4,1.8,4,4v26c0,2.2-1.8,4-4,4H13c-2.2,0-4-1.8-4-4v-26c0-2.2,1.8-4,4-4h7" fill="#FFD766"/><polygon fill="#F8B319" points="54,17.3 32.5,35.9 10.7,17.1 10.5,17.1 9,19.2 10.4,20.9 26.8,35.2 10.5,48.2 12,49.1 52,49.1   53.9,47.2 37.4,35.6 54.2,21 "/><path d="M32,36.9c-0.2,0-0.5-0.1-0.7-0.2l-22-19c-0.4-0.4-0.5-1-0.1-1.4c0.4-0.4,1-0.5,1.4-0.1L32,34.6l21.3-18.4  c0.4-0.4,1-0.3,1.4,0.1c0.4,0.4,0.3,1-0.1,1.4l-22,19C32.5,36.8,32.2,36.9,32,36.9z" fill="#2C3E50"/><path d="M10.9,48.9c-0.3,0-0.6-0.1-0.8-0.4c-0.3-0.4-0.3-1.1,0.2-1.4l15.1-12c0.4-0.3,1.1-0.3,1.4,0.2  c0.3,0.4,0.3,1.1-0.2,1.4l-15.1,12C11.3,48.8,11.1,48.9,10.9,48.9z" fill="#2C3E50"/><path d="M54,48.9c-0.2,0-0.4-0.1-0.6-0.2l-16-12c-0.4-0.3-0.5-1-0.2-1.4c0.3-0.4,1-0.5,1.4-0.2l16,12  c0.4,0.3,0.5,1,0.2,1.4C54.6,48.8,54.3,48.9,54,48.9z" fill="#2C3E50"/><path d="M51.6,50H41c-0.6,0-1-0.4-1-1s0.4-1,1-1h10.6c1.3,0,2.4-1.1,2.4-2.5V18.9c0-1.6-1.3-2.9-3-2.9H13  c-1.7,0-3,1.3-3,2.9v26c0,1.7,1.4,3.1,3,3.1h12c0.6,0,1,0.4,1,1s-0.4,1-1,1H13c-2.8,0-5-2.3-5-5.1v-26c0-2.7,2.2-4.9,5-4.9h38  c2.8,0,5,2.2,5,4.9v26.6C56,48,54,50,51.6,50z" fill="#2C3E50"/><polyline fill="#FFFFFF" points="34.5,48.7 38.3,44.8 28.4,42.7 30.6,52.6 32.3,50.8 "/><path d="M41.6,56.8c-0.3,0-0.5-0.1-0.7-0.3l-7.1-7.1c-0.4-0.4-0.4-1,0-1.4l2.6-2.6L29.8,44l1.4,6.6l0.5-0.5  c0.4-0.4,1-0.4,1.4,0c0.4,0.4,0.4,1,0,1.4l-1.8,1.8c-0.3,0.3-0.6,0.4-1,0.3c-0.4-0.1-0.6-0.4-0.7-0.7l-2.1-9.9  c-0.1-0.3,0-0.7,0.3-0.9c0.2-0.2,0.6-0.3,0.9-0.3l9.9,2.1c0.4,0.1,0.6,0.3,0.8,0.7s0,0.7-0.2,1l-3.2,3.2l6.4,6.3  c0.4,0.4,0.4,1,0,1.4C42.1,56.7,41.8,56.8,41.6,56.8z" fill="#2C3E50"/></svg>