<?xml version="1.0" ?><!DOCTYPE svg  PUBLIC '-//W3C//DTD SVG 1.1//EN'  'http://www.w3.org/Graphics/SVG/1.1/DTD/svg11.dtd'><svg enable-background="new 0 0 64 64" id="Layer_1" version="1.1" viewBox="0 0 64 64" xml:space="preserve" xmlns="http://www.w3.org/2000/svg" xmlns:xlink="http://www.w3.org/1999/xlink"><polyline fill="#B7B7B7" points="38,35 50,35 56,58 8,58 14,35 16,35 "/><path d="M56,59H8c-0.3,0-0.6-0.1-0.8-0.4S7,58,7.1,57.7l6-23c0.1-0.4,0.5-0.7,1-0.7h2c0.6,0,1,0.4,1,1s-0.4,1-1,1  h-1.2L9.3,57h45.3l-5.5-21H38c-0.6,0-1-0.4-1-1s0.4-1,1-1h12c0.5,0,0.9,0.3,1,0.7l6,23c0.1,0.3,0,0.6-0.2,0.9S56.3,59,56,59z" fill="#2C3E50"/><path d="M27,40.7c0,0,13-8.8,13-21.4c0-7.2-5.8-13-13-13s-13,5.8-13,13c0,9.5,6.5,15.9,10.3,19.3L27,40.7z" fill="#EA685E"/><circle cx="27" cy="19.6" fill="#E5E5E5" r="5.5"/><path d="M27,41.7c-0.2,0-0.4-0.1-0.6-0.2l-2.6-2.1C19.1,35.3,13,28.8,13,19.4c0-7.7,6.3-14,14-14s14,6.3,14,14  c0,13-12.9,21.8-13.4,22.2C27.4,41.7,27.2,41.7,27,41.7z M27,7.4c-6.6,0-12,5.4-12,12c0,8.6,5.7,14.7,10,18.5l2,1.6  c2.5-1.9,12-9.7,12-20.1C39,12.8,33.6,7.4,27,7.4z" fill="#2C3E50"/><path d="M27,26.2c-3.6,0-6.5-2.9-6.5-6.5c0-3.6,2.9-6.5,6.5-6.5s6.5,2.9,6.5,6.5C33.5,23.2,30.6,26.2,27,26.2z   M27,15.1c-2.5,0-4.5,2-4.5,4.5s2,4.5,4.5,4.5s4.5-2,4.5-4.5S29.5,15.1,27,15.1z" fill="#2C3E50"/><path d="M15,59c-0.1,0-0.3,0-0.4-0.1c-0.5-0.2-0.7-0.8-0.5-1.3c0,0,0.4-0.8,1-1.9c0.3-0.5,0.9-0.6,1.4-0.3  c0.5,0.3,0.6,0.9,0.3,1.4c-0.6,1-0.9,1.6-0.9,1.6C15.7,58.8,15.4,59,15,59z" fill="#2C3E50"/><path d="M18.4,54.1c-0.2,0-0.5-0.1-0.7-0.3c-0.4-0.4-0.4-1,0-1.4c1-1.1,2.1-2,3.3-2.7c0.5-0.3,1.1-0.1,1.4,0.4  c0.3,0.5,0.1,1.1-0.4,1.4c-1,0.6-1.9,1.4-2.8,2.3C18.9,54,18.6,54.1,18.4,54.1z M35.5,52.1c-1,0-2-0.1-3-0.3  c-0.5-0.1-0.9-0.6-0.8-1.2c0.1-0.5,0.6-0.9,1.2-0.8c1.2,0.2,2.5,0.3,3.6,0.2c0.5-0.1,1,0.4,1.1,0.9c0,0.5-0.4,1-0.9,1.1  C36.4,52.1,36,52.1,35.5,52.1z M40.5,51.1c-0.4,0-0.7-0.2-0.9-0.6c-0.2-0.5,0-1.1,0.5-1.3c1.1-0.5,2.1-1.2,2.9-2  c0.4-0.4,1-0.4,1.4,0c0.4,0.4,0.4,1,0,1.4c-1,1-2.2,1.8-3.5,2.4C40.8,51.1,40.6,51.1,40.5,51.1z M29,50.7c-0.1,0-0.2,0-0.3,0  c-1.2-0.3-2.3-0.4-3.5-0.3c-0.6,0.1-1-0.3-1.1-0.9s0.3-1,0.9-1.1c1.4-0.2,2.9-0.1,4.3,0.4c0.5,0.2,0.8,0.7,0.7,1.2  C29.8,50.4,29.4,50.7,29,50.7z M46,45.7c-0.2,0-0.3,0-0.4-0.1c-0.5-0.2-0.7-0.8-0.4-1.3c0.5-1,0.9-2.2,1.2-3.5  c0.1-0.5,0.6-0.9,1.2-0.8c0.5,0.1,0.9,0.6,0.8,1.2c-0.3,1.4-0.7,2.8-1.3,4C46.7,45.5,46.4,45.7,46,45.7z" fill="#2C3E50"/><path d="M47.6,38c-0.5,0-1-0.4-1-1c0-0.6,0-1.3-0.1-1.9c-0.1-0.5,0.3-1,0.9-1.1c0.6,0,1,0.3,1.1,0.9  c0.1,0.7,0.1,1.4,0.1,2.1C48.6,37.5,48.2,38,47.6,38C47.6,38,47.6,38,47.6,38z" fill="#2C3E50"/></svg>