<?xml version="1.0" ?><!DOCTYPE svg  PUBLIC '-//W3C//DTD SVG 1.1//EN'  'http://www.w3.org/Graphics/SVG/1.1/DTD/svg11.dtd'><svg enable-background="new 0 0 512 512" height="512px" id="Layer_1" version="1.1" viewBox="0 0 512 512" width="512px" xml:space="preserve" xmlns="http://www.w3.org/2000/svg" xmlns:xlink="http://www.w3.org/1999/xlink"><g id="hierarchy_1_"><path d="M382.846,145.338c0,69.233-56.124,125.341-125.342,125.341S132.17,214.571,132.17,145.338   c0-69.218,56.116-125.326,125.334-125.326S382.846,76.12,382.846,145.338z" fill="#ED5564"/><path d="M195.442,397.505c0,50.625-41.047,91.671-91.671,91.671s-91.67-41.046-91.67-91.671   c0-50.623,41.046-91.67,91.67-91.67S195.442,346.882,195.442,397.505z" fill="#48CFAD"/><path d="M496.766,397.505c0,50.625-41.046,91.671-91.671,91.671c-50.624,0-91.67-41.046-91.67-91.671   c0-50.623,41.046-91.67,91.67-91.67C455.72,305.835,496.766,346.882,496.766,397.505z" fill="#AC92EB"/><polygon fill="#FFCE54" points="295.003,215.009 289.003,186.009 249.004,202.009 226.004,186.009 214.004,213.009    169.005,230.008 179.005,255.992 196.005,265.007 236.004,275.007 273.003,275.007 313.003,269.007 346.002,230.008  "/><polygon fill="#EAC6BB" points="293.347,104.025 256.004,87.354 226.012,95.354 208.012,120.025 219.348,174.681 248.676,196.681    280.003,189.603 304.003,140.025  "/><polygon fill="#FC6E51" points="137.341,441.911 133.037,421.099 104.334,432.567 87.834,421.099 79.225,440.474 46.929,452.661    54.108,471.317 66.304,477.786 95.006,484.957 121.561,484.957 150.263,480.66 173.942,452.661  "/><polygon fill="#EAC6BB" points="136.154,362.271 109.357,350.304 87.834,356.037 74.92,373.74 83.053,412.974 104.1,428.755    126.584,423.677 143.81,388.099  "/><polygon fill="#4FC2E9" points="436.407,445.38 432.11,424.567 403.407,436.036 386.908,424.567 378.299,443.942 346.002,456.13    353.189,474.786 365.377,481.254 394.08,488.426 420.626,488.426 449.345,484.129 473.016,456.13  "/><polygon fill="#EAC6BB" points="435.22,365.74 408.438,353.771 386.908,359.506 374.002,377.209 382.127,416.442 403.173,432.224    425.657,427.146 442.876,391.567  "/><path d="M405.329,287.991c-18.077,0-35.077,4.5-49.999,12.438l-23.39-35.078c37.78-24.78,62.718-67.482,62.718-116.028   c0-76.577-62.077-138.654-138.662-138.654c-76.577,0-138.662,62.077-138.662,138.654c0,48.421,24.82,91.029,62.413,115.825   l-23.508,35.047c-14.812-7.797-31.679-12.203-49.569-12.203C47.757,287.991,0,335.741,0,394.646   c0,58.922,47.757,106.687,106.67,106.687c58.905,0,106.663-47.765,106.663-106.687c0-33.343-15.32-63.123-39.296-82.686   l24.438-36.438c17.53,8,37.007,12.469,57.522,12.469c20.397,0,39.757-4.406,57.194-12.312l24.39,36.594   c-23.765,19.562-38.921,49.202-38.921,82.373c0,58.922,47.765,106.687,106.67,106.687C464.25,501.332,512,453.567,512,394.646   C512,335.741,464.25,287.991,405.329,287.991z M51.64,459.88c4.836-1.594,8.062-3.141,10.383-4.25   c0.781-0.375,1.523-0.734,1.914-0.875c12.906-4.922,21.093-9.859,26.085-15.891c5.82,3.938,11.688,6.219,16.648,6.219   s10.82-2.281,16.648-6.219c4.984,6.031,13.179,10.969,26.101,15.906c0.367,0.125,1.109,0.484,1.898,0.859   c2.32,1.109,5.546,2.656,10.375,4.25c-15.375,13.016-34.647,20.109-55.022,20.109C86.295,479.989,67.015,472.896,51.64,459.88z    M120.373,412.802c-5.711,6.969-11.438,10.219-13.703,10.875c-2.273-0.656-7.992-3.906-13.703-10.875   c-6.085-7.406-9.57-15.938-9.57-23.375c0-15.999,9.351-26.78,23.273-26.78s23.273,10.781,23.273,26.78   C129.943,396.864,126.451,405.396,120.373,412.802z M191.997,394.646c0,17.5-5.227,34.188-14.938,48.281   c-1.281-0.812-2.672-1.469-4.164-1.969l-0.586-0.156c-8.586-2.312-11.492-4.531-15.312-5.984   c-13.554-5.172-17.078-8.891-17.984-10.641c-0.031-0.062-0.055-0.125-0.086-0.188v-0.297c7.211-9.688,12.352-21.766,12.352-34.266   c0-28.968-19.976-48.092-44.609-48.092c-24.64,0-44.608,19.124-44.608,48.092c0,12.5,5.141,24.578,12.351,34.25v0.312   c-0.031,0.062-0.055,0.125-0.094,0.188c-0.898,1.75-4.421,5.469-17.984,10.641c-3.82,1.453-6.719,3.672-15.305,5.984l-0.594,0.156   c-1.484,0.5-2.875,1.156-4.164,1.969c-9.711-14.094-14.937-30.781-14.937-48.281c0-22.78,8.875-44.217,24.992-60.326   s37.546-24.984,60.343-24.984c22.789,0,44.218,8.875,60.335,24.984C183.122,350.429,191.997,371.865,191.997,394.646z    M173.036,66.354c22.156-22.156,51.624-34.359,82.96-34.359c31.351,0,60.819,12.203,82.975,34.359   c22.156,22.171,34.359,51.624,34.359,82.968c0,26.78-8.906,52.171-25.328,72.811c-1.812-1.219-3.828-2.203-6-2.906l-0.75-0.234   c-11.155-2.983-14.921-5.858-19.89-7.749c-17.609-6.703-22.172-11.547-23.359-13.828c-0.031-0.094-0.062-0.172-0.109-0.25   l-0.109-15.391c9.422-12.609,16.156-28.328,16.156-44.64c0-37.641-25.938-62.468-57.937-62.468c-32,0-57.937,24.827-57.937,62.468   c0,16.312,6.726,32.03,16.148,44.64l-0.109,15.391c-0.039,0.078-0.07,0.156-0.117,0.25c-1.172,2.281-5.75,7.125-23.359,13.828   c-4.961,1.891-8.734,4.766-19.883,7.749l-0.766,0.234c-2.156,0.703-4.172,1.688-5.992,2.906   c-16.414-20.64-25.32-46.03-25.32-72.811C138.669,117.979,150.873,88.525,173.036,66.354z M234.723,173.243   c-9.742-11.141-15.328-24.296-15.328-36.108c0-12.5,3.812-23.062,11.023-30.562c6.547-6.828,15.633-10.578,25.586-10.578   c9.945,0,19.03,3.75,25.577,10.578c7.203,7.5,11.016,18.062,11.016,30.562c0,11.812-5.578,24.968-15.312,36.108   c-9.866,11.266-19.054,14.828-21.28,14.859C253.77,188.071,244.582,184.509,234.723,173.243z M179.841,238.586   c7.406-2.234,11.969-4.422,15.43-6.062c1.242-0.609,2.219-1.078,2.961-1.359c19.491-7.422,29.874-14.594,34.71-23.952   c0.297-0.578,0.516-1.062,0.672-1.422l1.719-3.812c7.25,4.734,14.5,7.453,20.672,7.453c6.156,0,13.398-2.703,20.624-7.422   l1.781,3.859c0.156,0.328,0.359,0.766,0.625,1.281c4.812,9.39,15.203,16.577,34.75,24.03c0.719,0.266,1.703,0.734,2.938,1.344   c3.469,1.641,8.031,3.828,15.438,6.062c-21.219,18.171-47.938,28.077-76.163,28.077   C227.77,266.663,201.059,256.757,179.841,238.586z M345.002,334.319c16.109-16.109,37.531-24.984,60.327-24.984   c22.797,0,44.234,8.875,60.343,24.984c16.109,16.109,24.984,37.546,24.984,60.326c0,17.5-5.219,34.172-14.938,48.281   c-1.281-0.812-2.672-1.469-4.156-1.969l-0.594-0.156c-8.593-2.312-11.483-4.531-15.312-5.984   c-13.562-5.172-17.078-8.891-17.984-10.641c-0.031-0.062-0.047-0.125-0.078-0.188v-0.297c7.203-9.688,12.344-21.766,12.344-34.266   c0-28.968-19.969-48.092-44.609-48.092c-24.64,0-44.608,19.124-44.608,48.092c0,12.5,5.141,24.578,12.344,34.25v0.312   c-0.031,0.062-0.047,0.125-0.078,0.188c-0.906,1.75-4.422,5.469-17.984,10.641c-3.812,1.453-6.719,3.672-15.312,5.984l-0.594,0.156   c-1.484,0.5-2.875,1.156-4.155,1.969c-9.719-14.094-14.938-30.781-14.938-48.281C320.003,371.865,328.878,350.429,345.002,334.319z    M391.627,412.802c-6.078-7.406-9.562-15.938-9.562-23.375c0-15.999,9.344-26.78,23.265-26.78c13.922,0,23.266,10.781,23.266,26.78   c0,7.438-3.469,15.969-9.562,23.375c-5.719,6.969-11.438,10.219-13.703,10.875C403.063,423.021,397.346,419.771,391.627,412.802z    M350.314,459.88c4.812-1.594,8.047-3.141,10.375-4.25c0.781-0.375,1.531-0.734,1.906-0.875   c12.906-4.922,21.094-9.859,26.094-15.891c5.812,3.938,11.687,6.219,16.64,6.219s10.828-2.281,16.641-6.219   c5,6.031,13.188,10.969,26.109,15.906c0.359,0.125,1.109,0.484,1.891,0.859c2.328,1.109,5.562,2.656,10.391,4.25   c-15.375,13.016-34.656,20.109-55.031,20.109C384.955,479.989,365.689,472.896,350.314,459.88z"/></g></svg>