<?xml version="1.0" ?><!DOCTYPE svg  PUBLIC '-//W3C//DTD SVG 1.1//EN'  'http://www.w3.org/Graphics/SVG/1.1/DTD/svg11.dtd'><svg enable-background="new 0 0 128 128" id="Слой_1" version="1.1" viewBox="0 0 128 128" xml:space="preserve" xmlns="http://www.w3.org/2000/svg" xmlns:xlink="http://www.w3.org/1999/xlink"><g><circle cx="64" cy="64" fill="#DCD9A0" r="62"/><g><g><path d="M41,79.1v42.5c7.1,2.9,14.9,4.4,23,4.4s15.9-1.6,23-4.4V79.1H41z" fill="#EF7063"/><g><path d="M87,78.1H41c-0.6,0-1,0.4-1,1v42.1c0.7,0.3,1.3,0.5,2,0.8V80.1H86V122c0.7-0.3,1.3-0.5,2-0.8V79.1      C88,78.5,87.6,78.1,87,78.1z" fill="#252525"/></g><path d="M41,111.8c1,0.6,2.1,0.8,3.4,0.4h0c2.6-0.7,5.1,1,5.4,3.6c0.4,3.3,4.3,5,6.9,2.9     c2.1-1.7,5.1-1,6.4,1.3c1.6,2.9,5.9,2.9,7.5,0c1.3-2.3,4.3-2.9,6.4-1.3c2.6,2.1,6.6,0.5,6.9-2.9c0.2-1.8,1.5-3.1,3.1-3.6V79.1H41     V111.8z" fill="#050607" opacity="0.1"/><path d="M99.6,78.1     L99.6,78.1c-2.3-1.3-2.9-4.3-1.3-6.4c2.1-2.6,0.5-6.6-2.9-6.9c-2.6-0.3-4.4-2.9-3.6-5.4c0.9-3.2-2.1-6.2-5.3-5.3     c-2.6,0.7-5.1-1-5.4-3.6c-0.4-3.3-4.3-5-6.9-2.9c-2.1,1.7-5.1,1-6.4-1.3c-1.6-2.9-5.9-2.9-7.5,0c-1.3,2.3-4.3,2.9-6.4,1.3     c-2.6-2.1-6.6-0.5-6.9,2.9C46.6,53,44,54.7,41.4,54c-3.2-0.9-6.2,2.1-5.3,5.3c0.7,2.6-1,5.1-3.6,5.4c-3.3,0.4-5,4.3-2.9,6.9     c1.7,2.1,1,5.1-1.3,6.4h0c-2.9,1.6-2.9,5.9,0,7.5h0c2.3,1.3,2.9,4.3,1.3,6.4c-2.1,2.6-0.5,6.6,2.9,6.9c2.6,0.3,4.4,2.9,3.6,5.4     c-0.9,3.2,2.1,6.2,5.3,5.3c2.6-0.7,5.1,1,5.4,3.6v0c0.4,3.3,4.3,5,6.9,2.9c2.1-1.7,5.1-1,6.4,1.3c1.6,2.9,5.9,2.9,7.5,0     c1.3-2.3,4.3-2.9,6.4-1.3c2.6,2.1,6.6,0.5,6.9-2.9v0c0.3-2.6,2.9-4.4,5.4-3.6c3.2,0.9,6.2-2.1,5.3-5.3c-0.7-2.6,1-5.1,3.6-5.4     c3.3-0.4,5-4.3,2.9-6.9c-1.7-2.1-1-5.1,1.3-6.4h0C102.6,84,102.6,79.7,99.6,78.1z" fill="#70C8B4" stroke="#252525" stroke-linecap="round" stroke-linejoin="round" stroke-miterlimit="10"/><g><path d="M100.1,77.2c-0.8-0.5-1.4-1.3-1.6-2.2s0-1.9,0.7-2.7c1.2-1.5,1.5-3.5,0.7-5.3c-0.7-1.8-2.4-3-4.3-3.2      c-1-0.1-1.8-0.6-2.4-1.4c-0.5-0.8-0.7-1.8-0.4-2.7C93.3,58,93,56.3,92,55c-1.3-1.7-3.6-2.5-5.7-1.9c-0.3,0.1-0.6,0.1-0.9,0.1      c-1.7,0-3.1-1.3-3.3-2.9c-0.3-2.7-2.6-4.7-5.3-4.7c-1.2,0-2.3,0.4-3.3,1.2c-0.6,0.5-1.3,0.7-2,0.7c-1.2,0-2.3-0.7-2.9-1.7      C67.7,44,66,43,64,43s-3.7,1-4.6,2.7c-0.6,1-1.7,1.7-2.9,1.7c-0.7,0-1.5-0.2-2-0.7c-1-0.8-2.1-1.2-3.3-1.2c-2.7,0-5,2-5.3,4.7      c-0.2,1.7-1.6,2.9-3.3,2.9c-0.3,0-0.6,0-0.9-0.1c-2.1-0.6-4.4,0.2-5.7,1.9c-1,1.3-1.3,3-0.8,4.6c0.3,0.9,0.1,1.9-0.4,2.7      c-0.5,0.8-1.4,1.3-2.4,1.4c-1.9,0.2-3.5,1.4-4.3,3.2c-0.7,1.8-0.5,3.8,0.7,5.3c0.6,0.8,0.8,1.7,0.7,2.7s-0.8,1.8-1.6,2.2      c-1.7,0.9-2.7,2.7-2.7,4.6s1,3.7,2.7,4.6c0.8,0.5,1.4,1.3,1.6,2.2s0,1.9-0.7,2.7c-1.2,1.5-1.5,3.5-0.7,5.3      c0.7,1.8,2.4,3,4.3,3.2c1,0.1,1.8,0.6,2.4,1.4c0.5,0.8,0.7,1.8,0.4,2.7c-0.5,1.6-0.2,3.3,0.8,4.6c1.3,1.7,3.6,2.5,5.7,1.9      c0.3-0.1,0.6-0.1,0.9-0.1c1.7,0,3.1,1.3,3.3,2.9c0.3,2.7,2.6,4.7,5.3,4.7c1.2,0,2.3-0.4,3.3-1.2c0.6-0.5,1.3-0.7,2-0.7      c1.2,0,2.3,0.6,2.9,1.7c0.9,1.7,2.7,2.7,4.6,2.7s3.7-1,4.6-2.7c0.6-1,1.7-1.7,2.9-1.7c0.7,0,1.5,0.2,2,0.7      c1,0.8,2.1,1.2,3.3,1.2c2.7,0,5-2,5.3-4.7c0.2-1.7,1.6-2.9,3.3-2.9c0.3,0,0.6,0,0.9,0.1c2.1,0.6,4.4-0.2,5.7-1.9      c1-1.3,1.3-3,0.8-4.6c-0.3-0.9-0.1-1.9,0.4-2.7c0.5-0.8,1.4-1.3,2.4-1.4c1.9-0.2,3.5-1.4,4.3-3.2c0.7-1.8,0.5-3.8-0.7-5.3      c-0.6-0.8-0.8-1.7-0.7-2.7s0.8-1.8,1.6-2.2c1.7-0.9,2.7-2.7,2.7-4.6S101.8,78.2,100.1,77.2z M99.2,84.7      c-1.4,0.8-2.3,2.1-2.6,3.6c-0.3,1.5,0.1,3.1,1.1,4.3c0.8,0.9,0.9,2.2,0.5,3.3c-0.5,1.1-1.5,1.9-2.7,2c-1.5,0.2-2.9,1-3.8,2.3      c-0.9,1.3-1.1,2.9-0.7,4.4c0.3,1,0.1,2.1-0.5,2.9c-0.8,1.1-2.2,1.6-3.5,1.2c-0.5-0.1-1-0.2-1.5-0.2c-2.7,0-4.9,2-5.2,4.7      c-0.2,1.9-1.9,2.9-3.3,2.9c-0.7,0-1.4-0.2-2-0.7c-0.9-0.8-2.1-1.2-3.3-1.2c-1.9,0-3.7,1-4.6,2.7c-0.6,1.1-1.7,1.7-2.9,1.7      s-2.3-0.6-2.9-1.7c-0.9-1.7-2.7-2.7-4.6-2.7c-1.2,0-2.3,0.4-3.3,1.2c-0.6,0.5-1.3,0.7-2,0.7c-1.4,0-3.1-1-3.3-2.9      c-0.3-2.7-2.6-4.7-5.2-4.7c-0.5,0-1,0.1-1.5,0.2c-1.3,0.4-2.7-0.1-3.5-1.2c-0.6-0.8-0.8-1.9-0.5-2.9c0.4-1.5,0.2-3.1-0.7-4.4      c-0.9-1.3-2.3-2.1-3.8-2.3c-1.2-0.1-2.2-0.9-2.7-2c-0.5-1.1-0.3-2.4,0.5-3.3c1-1.2,1.4-2.8,1.1-4.3c-0.3-1.5-1.3-2.8-2.6-3.6      c-1.1-0.6-1.7-1.7-1.7-2.9s0.6-2.3,1.7-2.9c1.4-0.8,2.3-2.1,2.6-3.6c0.3-1.5-0.1-3.1-1.1-4.3c-0.8-0.9-0.9-2.2-0.5-3.3      s1.5-1.9,2.7-2c1.5-0.2,2.9-1,3.8-2.3c0.9-1.3,1.1-2.9,0.7-4.4c-0.3-1-0.1-2.1,0.5-2.9c0.8-1.1,2.2-1.6,3.5-1.2      c0.5,0.1,1,0.2,1.5,0.2c2.7,0,4.9-2,5.2-4.7c0.2-1.9,1.9-2.9,3.3-2.9c0.7,0,1.4,0.2,2,0.7c0.9,0.8,2.1,1.2,3.3,1.2      c1.9,0,3.7-1,4.6-2.7c0.6-1.1,1.7-1.7,2.9-1.7s2.3,0.6,2.9,1.7c0.9,1.7,2.7,2.7,4.6,2.7c1.2,0,2.3-0.4,3.3-1.2      c0.6-0.5,1.3-0.7,2-0.7c1.4,0,3.1,1,3.3,2.9c0.3,2.7,2.6,4.7,5.2,4.7c0.5,0,1-0.1,1.5-0.2c1.3-0.4,2.7,0.1,3.5,1.2      C91,57,91.2,58,90.9,59c-0.4,1.5-0.2,3.1,0.7,4.4c0.9,1.3,2.3,2.1,3.8,2.3c1.2,0.1,2.2,0.9,2.7,2s0.3,2.4-0.5,3.3      c-1,1.2-1.4,2.8-1.1,4.3c0.3,1.5,1.3,2.8,2.6,3.6c1.1,0.6,1.7,1.7,1.7,2.9S100.2,84.2,99.2,84.7z" fill="#252525"/></g><path d="M67.8,65.4c-1-0.5-2.2-0.3-3.1,0.5L53,76.7c-1.2,1.1-1.2,2.9-0.2,4c1.1,1.2,2.9,1.2,4,0.2l7-6.4v23.8     c0,1.6,1.3,2.9,2.9,2.9c1.6,0,2.9-1.3,2.9-2.9V68C69.5,66.9,68.9,65.8,67.8,65.4z" fill="#F4F2ED"/><g><path d="M68.2,64.5c-1.4-0.6-3-0.3-4.2,0.7L52.3,76c-0.8,0.7-1.2,1.6-1.2,2.7s0.3,2,1,2.8      c0.7,0.8,1.8,1.3,2.8,1.3c1,0,1.9-0.4,2.6-1l5.3-4.9v21.5c0,2.1,1.7,3.9,3.9,3.9c2.1,0,3.9-1.7,3.9-3.9V68      C70.5,66.5,69.6,65.1,68.2,64.5z M68.5,98.3c0,1-0.8,1.9-1.9,1.9c-1,0-1.9-0.8-1.9-1.9V74.5c0-0.4-0.2-0.8-0.6-0.9      c-0.1-0.1-0.3-0.1-0.4-0.1c-0.2,0-0.5,0.1-0.7,0.3l-7,6.4c-0.7,0.7-2,0.6-2.6-0.1c-0.3-0.4-0.5-0.8-0.5-1.3s0.2-1,0.6-1.3      l11.8-10.8c0.5-0.5,1.3-0.6,2-0.3c0.7,0.3,1.1,1,1.1,1.7V98.3z" fill="#252525"/></g></g></g></g></svg>