<?xml version="1.0" ?><!DOCTYPE svg  PUBLIC '-//W3C//DTD SVG 1.1//EN'  'http://www.w3.org/Graphics/SVG/1.1/DTD/svg11.dtd'><svg enable-background="new 0 0 90 90" id="Layer_1" version="1.1" viewBox="0 0 90 90" xml:space="preserve" xmlns="http://www.w3.org/2000/svg" xmlns:xlink="http://www.w3.org/1999/xlink"><g><circle cx="45" cy="45" fill="#E9E7DF" r="44.5"/><line fill="#EFC41C" stroke="#010101" stroke-linejoin="round" stroke-width="2" x1="22.6" x2="68.4" y1="70.1" y2="70.1"/><line fill="#EFC41C" stroke="#010101" stroke-linejoin="round" stroke-width="2" x1="64.8" x2="64.8" y1="63.9" y2="33.7"/><line fill="#EFC41C" stroke="#010101" stroke-linejoin="round" stroke-width="2" x1="55.2" x2="55.2" y1="63.9" y2="40.5"/><line fill="#EFC41C" stroke="#010101" stroke-linejoin="round" stroke-width="2" x1="45.5" x2="45.5" y1="63.9" y2="45.8"/><line fill="#EFC41C" stroke="#010101" stroke-linejoin="round" stroke-width="2" x1="35.8" x2="35.8" y1="63.9" y2="49.9"/><line fill="#EFC41C" stroke="#010101" stroke-linejoin="round" stroke-width="2" x1="26.2" x2="26.2" y1="63.9" y2="53.1"/><path d="M33.4,24.5c6.1-6.1,16.1-6.1,22.3,0   s6.1,16.1,0,22.3c-5.1,5.1-12.7,5.9-18.7,2.7l-5.2,6.8c-2.1,2.7-6,3-8.5,0.6s-2.1-6.4,0.6-8.5l6.8-5.2   C27.4,37.3,28.3,29.6,33.4,24.5z" fill="#8CC749" stroke="#010101" stroke-linejoin="round" stroke-width="2"/><path d="M37.4,28.6c3.9-3.9,10.2-3.9,14.1,0c3.9,3.9,3.9,10.2,0,14.1   c-0.4,0.4-0.8,0.7-1.2,1c-3.5,2.5-8.2,2.5-11.6,0c-0.4-0.3-0.8-0.6-1.2-1C33.5,38.8,33.5,32.5,37.4,28.6z" fill="#EFC41C" stroke="#010101" stroke-width="2"/></g></svg>